<?xml version="1.0" encoding="iso-8859-1"?>
<!-- Generator: Adobe Illustrator 19.0.0, SVG Export Plug-In . SVG Version: 6.00 Build 0)  -->
<svg version="1.1" id="Capa_1" xmlns="http://www.w3.org/2000/svg" xmlns:xlink="http://www.w3.org/1999/xlink" x="0px" y="0px"
	 viewBox="0 0 512.003 512.003" style="enable-background:new 0 0 512.003 512.003;" xml:space="preserve">
<g>
	<g>
		<path d="M507.969,2.311c-4.625-3.656-11.323-2.875-14.99,1.719L377.592,149.331h-46.926v0.143
			c-3.009,0.005-5.99,1.139-8.094,3.586L69.77,447.998H32c-17.646,0-32,14.354-32,32s14.354,32,32,32h106.667
			c17.646,0,32-14.354,32-32s-14.354-32-32-32h-20.72l217.905-277.333h24.799L204.979,366.696
			c-3.667,4.615-2.896,11.323,1.719,14.99c1.969,1.552,4.302,2.313,6.625,2.313c3.146,0,6.26-1.385,8.365-4.031l288-362.667
			C513.354,12.686,512.583,5.977,507.969,2.311z M138.667,469.331c5.885,0,10.667,4.781,10.667,10.667
			c0,5.885-4.781,10.667-10.667,10.667H32c-5.885,0-10.667-4.781-10.667-10.667c0-5.885,4.781-10.667,10.667-10.667H138.667z"/>
	</g>
</g>
<g>
</g>
<g>
</g>
<g>
</g>
<g>
</g>
<g>
</g>
<g>
</g>
<g>
</g>
<g>
</g>
<g>
</g>
<g>
</g>
<g>
</g>
<g>
</g>
<g>
</g>
<g>
</g>
<g>
</g>
</svg>
