<?xml version="1.0" encoding="iso-8859-1"?>
<!-- Generator: Adobe Illustrator 19.0.0, SVG Export Plug-In . SVG Version: 6.00 Build 0)  -->
<svg version="1.1" id="Capa_1" xmlns="http://www.w3.org/2000/svg" xmlns:xlink="http://www.w3.org/1999/xlink" x="0px" y="0px"
	 viewBox="0 0 511.999 511.999" style="enable-background:new 0 0 511.999 511.999;" xml:space="preserve">
<g>
	<g>
		<path d="M485.25,210.51l-105.604-17.604L349.042,147c-7.938-11.896-21.208-19-35.5-19h-157.75c-14.292,0-27.563,7.104-35.5,19
			l-25.947,38.928L70.25,161.833c-7.938-7.948-18.938-12.5-30.167-12.5H10.667C4.771,149.333,0,154.104,0,160
			s4.771,10.667,10.667,10.667h29.417c5.604,0,11.104,2.281,15.083,6.25l19.975,19.975L24.25,209.615
			C9.979,213.177,0,225.948,0,240.656v53.594c0,12.573,4.896,24.396,13.792,33.292c8.771,8.76,20.896,13.792,33.292,13.792h28.661
			C80.701,365.646,102.237,384,128,384s47.299-18.353,52.255-42.667h140.823C326.034,365.646,347.57,384,373.333,384
			s47.299-18.353,52.255-42.667h47.807c8.146,0,15.458-4.51,19.104-11.792l17.25-34.521c0.375-0.75,0.667-1.542,0.854-2.354
			l1.125-4.771c0.188-0.792,0.271-1.604,0.271-2.417v-43.406C512,226.354,500.75,213.083,485.25,210.51z M128,362.667
			c-17.646,0-32-14.354-32-32s14.354-32,32-32s32,14.354,32,32S145.646,362.667,128,362.667z M373.333,362.667
			c-17.646,0-32-14.354-32-32s14.354-32,32-32s32,14.354,32,32S390.979,362.667,373.333,362.667z M490.668,284.24L490.668,284.24
			L473.396,320h-47.807c-4.956-24.314-26.492-42.667-52.255-42.667S326.035,295.685,321.079,320H180.255
			c-4.956-24.314-26.492-42.667-52.255-42.667S80.701,295.685,75.745,320H47.083c-6.771,0-13.417-2.75-18.208-7.542
			c-4.854-4.865-7.542-11.333-7.542-18.208v-53.594c0-4.906,3.333-9.156,8.083-10.354l69.167-17.292
			c2.583-0.635,4.813-2.219,6.292-4.427l33.167-49.75c3.958-5.948,10.604-9.5,17.75-9.5h157.75c7.146,0,13.792,3.552,17.75,9.5
			l33.167,49.75c1.625,2.458,4.208,4.125,7.125,4.604l110.167,18.365c5.167,0.854,8.917,5.281,8.917,10.521V284.24z"/>
	</g>
</g>
<g>
</g>
<g>
</g>
<g>
</g>
<g>
</g>
<g>
</g>
<g>
</g>
<g>
</g>
<g>
</g>
<g>
</g>
<g>
</g>
<g>
</g>
<g>
</g>
<g>
</g>
<g>
</g>
<g>
</g>
</svg>
