<?xml version="1.0" encoding="iso-8859-1"?>
<!-- Generator: Adobe Illustrator 19.0.0, SVG Export Plug-In . SVG Version: 6.00 Build 0)  -->
<svg version="1.1" id="Capa_1" xmlns="http://www.w3.org/2000/svg" xmlns:xlink="http://www.w3.org/1999/xlink" x="0px" y="0px"
	 viewBox="0 0 512.003 512.003" style="enable-background:new 0 0 512.003 512.003;" xml:space="preserve">
<g>
	<g>
		<path d="M501.333,192.001h-32c-19.854,0-36.563,13.615-41.313,32H309.333c-11.77,0-21.333-9.573-21.333-21.333V83.98
			c18.375-4.74,32-21.469,32-41.313v-32c0-5.895-4.771-10.666-10.667-10.666H202.667C196.771,0.001,192,4.772,192,10.668v32
			c0,19.844,13.625,36.573,32,41.313v118.688c0,11.76-9.563,21.333-21.333,21.333H83.979c-4.75-18.385-21.458-32-41.313-32h-32
			C4.771,192.001,0,196.772,0,202.668v106.667c0,5.895,4.771,10.666,10.667,10.666h32c19.854,0,36.563-13.615,41.313-32h118.688
			c11.771,0,21.333,9.573,21.333,21.333v118.688c-18.375,4.74-32,21.469-32,41.313v32c0,5.896,4.771,10.667,10.667,10.667h106.667
			c5.896,0,10.667-4.771,10.667-10.667v-32c0-19.844-13.625-36.573-32-41.313V309.334c0-11.76,9.563-21.333,21.333-21.333h118.688
			c4.75,18.385,21.458,32,41.313,32h32c5.896,0,10.667-4.771,10.667-10.667V202.668C512,196.772,507.229,192.001,501.333,192.001z
			 M469.334,298.668c-11.771,0-21.333-9.573-21.333-21.333c0-5.896-4.771-10.667-10.667-10.667h-128
			c-23.521,0-42.667,19.135-42.667,42.667v128c0,5.896,4.771,10.667,10.667,10.667c11.771,0,21.333,9.573,21.333,21.333v21.333
			h-85.333v-21.333c0-11.76,9.563-21.333,21.333-21.333c5.896,0,10.667-4.771,10.667-10.667v-128
			c0-23.531-19.146-42.667-42.667-42.667h-128c-5.896,0-10.667,4.771-10.667,10.667c0,11.76-9.563,21.333-21.333,21.333H21.333
			v-85.333h21.333c11.771,0,21.333,9.573,21.333,21.333c0,5.896,4.771,10.667,10.667,10.667h128
			c23.521,0,42.667-19.135,42.667-42.667v-128c0-5.896-4.771-10.667-10.667-10.667c-11.771,0-21.333-9.573-21.333-21.333V21.334
			h85.333v21.333c0,11.76-9.563,21.333-21.333,21.333c-5.896,0-10.667,4.771-10.667,10.667v128
			c0,23.531,19.146,42.667,42.667,42.667h128c5.896,0,10.667-4.771,10.667-10.667c0-11.76,9.563-21.333,21.333-21.333h21.333v85.334
			H469.334z"/>
	</g>
</g>
<g>
</g>
<g>
</g>
<g>
</g>
<g>
</g>
<g>
</g>
<g>
</g>
<g>
</g>
<g>
</g>
<g>
</g>
<g>
</g>
<g>
</g>
<g>
</g>
<g>
</g>
<g>
</g>
<g>
</g>
</svg>
