<?xml version="1.0" encoding="iso-8859-1"?>
<!-- Generator: Adobe Illustrator 19.0.0, SVG Export Plug-In . SVG Version: 6.00 Build 0)  -->
<svg version="1.1" id="Capa_1" xmlns="http://www.w3.org/2000/svg" xmlns:xlink="http://www.w3.org/1999/xlink" x="0px" y="0px"
	 viewBox="0 0 512.001 512.001" style="enable-background:new 0 0 512.001 512.001;" xml:space="preserve">
<g>
	<g>
		<path d="M501.333,448c-25.021,0-38.115,13.646-48.635,24.625c-9.677,10.083-17.323,18.042-33.24,18.042
			s-23.563-7.958-33.24-18.042C375.698,461.646,362.604,448,337.583,448c-24.99,0-38.073,13.646-48.573,24.625
			c-9.667,10.083-17.292,18.042-33.177,18.042c-15.875,0-23.5-7.958-33.146-18.042C212.177,461.646,199.104,448,174.115,448
			c-24.979,0-38.052,13.646-48.563,24.625c-9.646,10.083-17.271,18.042-33.146,18.042c-15.885,0-23.51-7.958-33.177-18.042
			C48.729,461.646,35.646,448,10.667,448C4.771,448,0,452.771,0,458.667s4.771,10.667,10.667,10.667
			c15.875,0,23.5,7.958,33.156,18.042C54.333,498.354,67.417,512,92.406,512c24.979,0,38.052-13.646,48.563-24.625
			c9.646-10.083,17.271-18.042,33.146-18.042s23.51,7.958,33.156,18.042C217.781,498.354,230.854,512,255.833,512
			c24.99,0,38.073-13.646,48.573-24.625c9.667-10.083,17.292-18.042,33.177-18.042c15.917,0,23.563,7.958,33.24,18.042
			C381.344,498.354,394.438,512,419.458,512c25.021,0,38.115-13.646,48.635-24.625c9.677-10.083,17.323-18.042,33.24-18.042
			c5.896,0,10.667-4.771,10.667-10.667S507.229,448,501.333,448z"/>
	</g>
</g>
<g>
	<g>
		<path d="M501.334,362.667c-25.021,0-38.115,13.646-48.635,24.625c-9.677,10.083-17.323,18.042-33.24,18.042
			s-23.563-7.958-33.24-18.042c-10.521-10.979-23.615-24.625-48.635-24.625c-3.227,0-5.676,0.125-7.957,0.382
			c-4.577-32.753-30.259-58.563-62.96-63.303V256h106.667c5.896,0,10.667-4.771,10.667-10.667s-4.771-10.667-10.667-10.667H266.667
			v-64h106.667c5.896,0,10.667-4.771,10.667-10.667s-4.771-10.667-10.667-10.667H266.667v-64h106.667
			c5.896,0,10.667-4.771,10.667-10.667C384,68.771,379.229,64,373.333,64H266.667V10.667C266.667,4.771,261.896,0,256,0
			s-10.667,4.771-10.667,10.667v289.078c-32.742,4.746-58.444,30.617-62.973,63.431c-2.599-0.267-5.158-0.509-8.246-0.509
			c-24.979,0-38.052,13.646-48.563,24.625c-9.646,10.083-17.271,18.042-33.146,18.042c-15.885,0-23.51-7.958-33.177-18.042
			c-10.5-10.979-23.583-24.625-48.563-24.625C4.771,362.667,0,367.438,0,373.333C0,379.229,4.771,384,10.667,384
			c15.875,0,23.5,7.958,33.156,18.042c10.51,10.979,23.594,24.625,48.583,24.625c24.979,0,38.052-13.646,48.563-24.625
			C150.615,391.958,158.24,384,174.115,384c3.811,0,6.26,0.174,8.358,0.595C187.956,420.397,218.69,448,256,448
			c37.257,0,67.962-27.522,73.512-63.249c1.878-0.643,3.453-0.751,8.072-0.751c15.917,0,23.563,7.958,33.24,18.042
			c10.521,10.979,23.615,24.625,48.635,24.625c25.021,0,38.115-13.646,48.635-24.625c9.677-10.083,17.323-18.042,33.24-18.042
			c5.896,0,10.667-4.771,10.667-10.667S507.23,362.667,501.334,362.667z M256,426.667c-29.406,0-53.333-23.917-53.333-53.333
			S226.594,320,256,320s53.333,23.917,53.333,53.333C309.333,402.75,285.406,426.667,256,426.667z"/>
	</g>
</g>
<g>
</g>
<g>
</g>
<g>
</g>
<g>
</g>
<g>
</g>
<g>
</g>
<g>
</g>
<g>
</g>
<g>
</g>
<g>
</g>
<g>
</g>
<g>
</g>
<g>
</g>
<g>
</g>
<g>
</g>
</svg>
