<?xml version="1.0" encoding="iso-8859-1"?>
<!-- Generator: Adobe Illustrator 19.0.0, SVG Export Plug-In . SVG Version: 6.00 Build 0)  -->
<svg version="1.1" id="Capa_1" xmlns="http://www.w3.org/2000/svg" xmlns:xlink="http://www.w3.org/1999/xlink" x="0px" y="0px"
	 viewBox="0 0 512 512" style="enable-background:new 0 0 512 512;" xml:space="preserve">
<g>
	<g>
		<path d="M384,432.603v-27.27c0-15.723-8.645-29.329-21.333-36.73v-27.27c0-23.531-19.146-42.667-42.667-42.667h-32V119.099
			c19.036-11.102,32-31.516,32-55.099c0-35.292-28.708-64-64-64s-64,28.708-64,64c0,23.583,12.964,43.997,32,55.099v179.568h-32
			c-23.521,0-42.667,19.135-42.667,42.667v27.27c-12.688,7.4-21.333,21.007-21.333,36.729v27.27
			c-12.689,7.401-21.333,21.008-21.333,36.73v32c0,5.896,4.771,10.667,10.667,10.667h277.333c5.896,0,10.667-4.771,10.667-10.667
			v-32C405.333,453.611,396.689,440.004,384,432.603z M213.333,64c0-23.531,19.146-42.667,42.667-42.667S298.667,40.469,298.667,64
			S279.521,106.667,256,106.667S213.333,87.531,213.333,64z M266.667,126.922v171.745h-21.333V126.922
			C248.82,127.513,252.348,128,256,128C259.652,128,263.18,127.513,266.667,126.922z M170.667,341.333
			c0-11.76,9.563-21.333,21.333-21.333h128c11.771,0,21.333,9.573,21.333,21.333v21.333H170.667V341.333z M149.333,405.333
			c0-11.76,9.563-21.333,21.333-21.333h170.667c11.771,0,21.333,9.573,21.333,21.333v21.333H149.333V405.333z M128,490.667v-21.333
			c0-11.76,9.563-21.333,21.333-21.333h213.333c11.771,0,21.333,9.573,21.333,21.333v21.333H128z"/>
	</g>
</g>
<g>
</g>
<g>
</g>
<g>
</g>
<g>
</g>
<g>
</g>
<g>
</g>
<g>
</g>
<g>
</g>
<g>
</g>
<g>
</g>
<g>
</g>
<g>
</g>
<g>
</g>
<g>
</g>
<g>
</g>
</svg>
