<?xml version="1.0" encoding="iso-8859-1"?>
<!-- Generator: Adobe Illustrator 19.0.0, SVG Export Plug-In . SVG Version: 6.00 Build 0)  -->
<svg version="1.1" id="Capa_1" xmlns="http://www.w3.org/2000/svg" xmlns:xlink="http://www.w3.org/1999/xlink" x="0px" y="0px"
	 viewBox="0 0 512 512" style="enable-background:new 0 0 512 512;" xml:space="preserve">
<g>
	<g>
		<path d="M384,213.333h-96V164.32c31.223-12.695,53.333-43.262,53.333-78.987C341.333,38.281,303.063,0,256,0
			s-85.333,38.281-85.333,85.333c0,35.725,22.111,66.292,53.333,78.987v49.013h-96c-23.521,0-42.667,19.135-42.667,42.667v213.333
			C85.333,492.865,104.479,512,128,512h256c23.521,0,42.667-19.135,42.667-42.667V256C426.667,232.469,407.521,213.333,384,213.333z
			 M192,85.333c0-35.292,28.708-64,64-64s64,28.708,64,64s-28.708,64-64,64S192,120.625,192,85.333z M266.667,169.589v161.078
			c0,5.885-4.792,10.667-10.667,10.667s-10.667-4.781-10.667-10.667V169.589c3.533,0.448,7.014,1.078,10.667,1.078
			C259.653,170.667,263.134,170.036,266.667,169.589z M225.965,341.334L225.965,341.334c4.418,12.388,16.147,21.332,30.035,21.332
			s25.617-8.944,30.035-21.333h44.632c5.896,0,10.667-4.771,10.667-10.667V288c0-5.885,4.792-10.667,10.667-10.667
			s10.667,4.781,10.667,10.667v149.333c0,5.885-4.792,10.667-10.667,10.667s-10.667-4.781-10.667-10.667V384
			c0-5.896-4.771-10.667-10.667-10.667h-53.333c-5.896,0-10.667,4.771-10.667,10.667v53.333c0,5.885-4.792,10.667-10.667,10.667
			s-10.667-4.781-10.667-10.667V384c0-5.896-4.771-10.667-10.667-10.667h-53.333c-5.896,0-10.667,4.771-10.667,10.667v53.333
			c0,5.885-4.792,10.667-10.667,10.667s-10.667-4.781-10.667-10.667V288c0-5.885,4.792-10.667,10.667-10.667
			s10.667,4.781,10.667,10.667v42.667c0,5.896,4.771,10.667,10.667,10.667H225.965z M405.333,469.333
			c0,11.76-9.563,21.333-21.333,21.333H128c-11.771,0-21.333-9.573-21.333-21.333V256c0-11.76,9.563-21.333,21.333-21.333h96V320
			h-32v-32c0-17.646-14.354-32-32-32s-32,14.354-32,32v149.333c0,17.646,14.354,32,32,32s32-14.354,32-32v-42.667h32v42.667
			c0,17.646,14.354,32,32,32s32-14.354,32-32v-42.667h32v42.667c0,17.646,14.354,32,32,32s32-14.354,32-32V288
			c0-17.646-14.354-32-32-32s-32,14.354-32,32v32h-32v-85.333h96c11.771,0,21.333,9.573,21.333,21.333V469.333z"/>
	</g>
</g>
<g>
	<g>
		<path d="M256,42.666c-23.521,0-42.667,19.135-42.667,42.667C213.333,91.229,218.104,96,224,96s10.667-4.771,10.667-10.667
			C234.667,73.573,244.229,64,256,64c5.896,0,10.667-4.771,10.667-10.667S261.896,42.666,256,42.666z"/>
	</g>
</g>
<g>
</g>
<g>
</g>
<g>
</g>
<g>
</g>
<g>
</g>
<g>
</g>
<g>
</g>
<g>
</g>
<g>
</g>
<g>
</g>
<g>
</g>
<g>
</g>
<g>
</g>
<g>
</g>
<g>
</g>
</svg>
