<?xml version="1.0" encoding="iso-8859-1"?>
<!-- Generator: Adobe Illustrator 19.0.0, SVG Export Plug-In . SVG Version: 6.00 Build 0)  -->
<svg version="1.1" id="Capa_1" xmlns="http://www.w3.org/2000/svg" xmlns:xlink="http://www.w3.org/1999/xlink" x="0px" y="0px"
	 viewBox="0 0 512 512" style="enable-background:new 0 0 512 512;" xml:space="preserve">
<g>
	<g>
		<path d="M256,0C114.844,0,0,114.844,0,256s114.844,256,256,256s256-114.844,256-256S397.156,0,256,0z M256,490.667
			C126.604,490.667,21.333,385.396,21.333,256S126.604,21.333,256,21.333S490.667,126.604,490.667,256S385.396,490.667,256,490.667z
			"/>
	</g>
</g>
<g>
	<g>
		<path d="M462.157,290.501c-36.188-39.178-96.803-46.386-142.084-13.074l-0.063,0.063c-1.135,1.135-2,2.51-2.531,4.021
			c-4.031,11.542-12.771,21.74-24.625,28.719c-1.76,1.031-3.177,2.552-4.104,4.375c-7.573,14.99-11.417,31.156-11.417,48.063
			c0,36.521,18.552,70.125,49.615,89.885c1.74,1.104,3.729,1.667,5.729,1.667c1.365,0,2.74-0.26,4.042-0.792
			c65.677-26.896,113.542-84.271,128.042-153.5C465.469,296.553,464.501,293.043,462.157,290.501z M333.854,431.458
			c-22.135-16.104-35.188-41.427-35.188-68.792c0-12.552,2.635-24.583,7.854-35.792c13.688-8.813,24.135-21.063,29.844-35.021
			c32.188-21.719,77.813-18.073,106.281,9.208C428.708,359.052,388.563,407.167,333.854,431.458z"/>
	</g>
</g>
<g>
	<g>
		<path d="M223.22,314.542c-1.074-2.125-2.814-3.813-4.928-4.813c-11.448-6.99-19.875-17-23.792-28.281
			c-0.833-2.406-2.448-4.333-4.479-5.573C171.854,262.875,150.427,256,128,256c-29.844,0-57.604,12.25-78.156,34.5
			c-2.344,2.542-3.313,6.052-2.604,9.427c14.5,69.229,62.365,126.604,128.042,153.5c1.302,0.531,2.677,0.792,4.042,0.792
			c2,0,3.99-0.563,5.729-1.667c31.063-19.76,49.615-53.365,49.615-89.885C234.668,345.75,230.814,329.552,223.22,314.542z
			 M178.146,431.458c-54.708-24.292-94.854-72.406-108.792-130.396c28.448-27.281,74.083-30.917,106.281-9.208
			c5.708,13.969,16.156,26.219,29.854,35.031c5.208,11.229,7.844,23.25,7.844,35.781
			C213.333,390.031,200.281,415.354,178.146,431.458z"/>
	</g>
</g>
<g>
	<g>
		<path d="M466.594,222.343C449.969,119.438,359.427,41.844,256,41.844c-104.292,0-194.927,77.615-210.823,180.531
			c-0.479,3.073,0.417,6.208,2.448,8.573c2.021,2.354,4.979,3.719,8.094,3.719l139.708-0.01c2.813,0,5.51-1.104,7.5-3.083
			c11.708-11.594,31.052-18.24,53.073-18.24c22.042,0,41.406,6.667,53.115,18.281c2,1.979,4.698,3.093,7.51,3.093h139.438
			c3.125,0,6.094-1.375,8.125-3.75C466.209,228.573,467.094,225.427,466.594,222.343z M320.802,213.375
			C305.063,199.74,281.74,192,256,192c-25.708,0-49,7.719-64.74,21.323l-122.677,0.01C87.885,126.896,166.333,63.177,256,63.177
			c88.885,0,167.198,63.74,187.115,150.198H320.802z"/>
	</g>
</g>
<g>
</g>
<g>
</g>
<g>
</g>
<g>
</g>
<g>
</g>
<g>
</g>
<g>
</g>
<g>
</g>
<g>
</g>
<g>
</g>
<g>
</g>
<g>
</g>
<g>
</g>
<g>
</g>
<g>
</g>
</svg>
