<?xml version="1.0" encoding="iso-8859-1"?>
<!-- Generator: Adobe Illustrator 19.0.0, SVG Export Plug-In . SVG Version: 6.00 Build 0)  -->
<svg version="1.1" id="Capa_1" xmlns="http://www.w3.org/2000/svg" xmlns:xlink="http://www.w3.org/1999/xlink" x="0px" y="0px"
	 viewBox="0 0 512 512" style="enable-background:new 0 0 512 512;" xml:space="preserve">
<g>
	<g>
		<circle cx="256" cy="117.33" r="10.667"/>
	</g>
</g>
<g>
	<g>
		<path d="M276.507,218.822l-10.048-50.238c-1-5-5.375-8.583-10.458-8.583s-9.458,3.583-10.458,8.583l-10.048,50.238
			c-13.139,7.281-22.16,21.126-22.16,37.178c-0.002,23.521,19.144,42.667,42.665,42.667s42.667-19.146,42.667-42.667
			C298.667,239.948,289.646,226.103,276.507,218.822z M256,277.333c-11.77,0-21.333-9.563-21.333-21.333s9.562-21.333,21.333-21.333
			s21.333,9.563,21.333,21.333C277.333,267.77,267.77,277.333,256,277.333z"/>
	</g>
</g>
<g>
	<g>
		<circle cx="330.67" cy="138.67" r="10.667"/>
	</g>
</g>
<g>
	<g>
		<circle cx="181.33" cy="138.67" r="10.667"/>
	</g>
</g>
<g>
	<g>
		<circle cx="138.67" cy="181.33" r="10.667"/>
	</g>
</g>
<g>
	<g>
		<circle cx="373.33" cy="181.33" r="10.667"/>
	</g>
</g>
<g>
	<g>
		<circle cx="138.67" cy="309.33" r="10.667"/>
	</g>
</g>
<g>
	<g>
		<circle cx="373.33" cy="309.33" r="10.667"/>
	</g>
</g>
<g>
	<g>
		<circle cx="394.67" cy="245.33" r="10.667"/>
	</g>
</g>
<g>
	<g>
		<circle cx="117.33" cy="245.33" r="10.667"/>
	</g>
</g>
<g>
	<g>
		<path d="M288,384h-64c-5.896,0-10.667,4.771-10.667,10.667s4.771,10.667,10.667,10.667h64c5.896,0,10.667-4.771,10.667-10.667
			S293.896,384,288,384z"/>
	</g>
</g>
<g>
	<g>
		<path d="M423.569,162.539C390.69,103.826,327.947,64,256,64c-71.91,0-134.624,39.786-167.516,98.451
			C34.693,186.525,0,239.546,0,298.667C0,381,67,448,149.333,448c17.113,0,33.814-2.977,49.74-8.618
			C217.068,444.979,236.186,448,256,448c19.822,0,38.948-3.022,56.949-8.624c15.948,5.65,32.637,8.624,49.717,8.624
			C445,448,512,381,512,298.667C512,239.496,477.341,186.608,423.569,162.539z M256,85.333c94.104,0,170.667,76.563,170.667,170.667
			c0,31.1-8.497,60.195-23.092,85.333H108.426C93.831,316.195,85.333,287.1,85.333,256C85.333,161.896,161.896,85.333,256,85.333z
			 M149.333,426.667c-70.583,0-128-57.417-128-128c0-41.457,20.063-79.253,52.527-103.012C67.548,214.656,64,234.905,64,256
			c0,73.129,41.111,136.797,101.415,169.21C160.086,425.878,154.773,426.667,149.333,426.667z M256,426.667
			c-53.753,0-101.707-25.039-133.014-64h266.029C357.707,401.628,309.753,426.667,256,426.667z M362.667,426.667
			c-5.43,0-10.741-0.793-16.069-1.464C406.896,392.789,448,329.124,448,256c0-21.113-3.555-41.379-9.878-60.395
			c32.483,23.757,52.544,61.543,52.544,103.061C490.667,369.25,433.25,426.667,362.667,426.667z"/>
	</g>
</g>
<g>
</g>
<g>
</g>
<g>
</g>
<g>
</g>
<g>
</g>
<g>
</g>
<g>
</g>
<g>
</g>
<g>
</g>
<g>
</g>
<g>
</g>
<g>
</g>
<g>
</g>
<g>
</g>
<g>
</g>
</svg>
