<?xml version="1.0" encoding="iso-8859-1"?>
<!-- Generator: Adobe Illustrator 19.0.0, SVG Export Plug-In . SVG Version: 6.00 Build 0)  -->
<svg version="1.1" id="Capa_1" xmlns="http://www.w3.org/2000/svg" xmlns:xlink="http://www.w3.org/1999/xlink" x="0px" y="0px"
	 viewBox="0 0 469.339 469.339" style="enable-background:new 0 0 469.339 469.339;" xml:space="preserve">
<g>
	<g>
		<path d="M277.333,42.669H192c-105.875,0-192,86.125-192,192s86.125,192,192,192h85.333c23.521,0,42.667-19.146,42.667-42.667
			V85.336C320,61.815,300.854,42.669,277.333,42.669z M277.334,405.335H192c-94.104,0-170.667-76.563-170.667-170.667
			S97.896,64.002,192,64.002h85.333c11.771,0,21.333,9.563,21.333,21.333v298.667h0.001
			C298.667,395.773,289.104,405.335,277.334,405.335z"/>
	</g>
</g>
<g>
	<g>
		<path d="M460.751,128.21l-106.667-21.333c-5.542-1.125-11.375,2.563-12.542,8.375c-1.167,5.771,2.583,11.396,8.375,12.542
			l106.667,21.333c0.688,0.146,1.396,0.208,2.104,0.208c4.979,0,9.417-3.5,10.438-8.583
			C470.293,134.981,466.543,129.356,460.751,128.21z"/>
	</g>
</g>
<g>
	<g>
		<path d="M460.75,245.544l-106.667-21.333c-5.542-1.208-11.375,2.563-12.542,8.375c-1.167,5.771,2.583,11.396,8.375,12.542
			l106.667,21.333c0.688,0.146,1.396,0.208,2.104,0.208c4.979,0,9.417-3.5,10.438-8.583
			C470.292,252.315,466.542,246.69,460.75,245.544z"/>
	</g>
</g>
<g>
	<g>
		<path d="M460.75,362.877l-106.667-21.333c-5.542-1.188-11.375,2.563-12.542,8.375c-1.167,5.771,2.583,11.396,8.375,12.542
			l106.667,21.333c0.688,0.146,1.396,0.208,2.104,0.208c4.979,0,9.417-3.5,10.438-8.583
			C470.292,369.648,466.542,364.023,460.75,362.877z"/>
	</g>
</g>
<g>
</g>
<g>
</g>
<g>
</g>
<g>
</g>
<g>
</g>
<g>
</g>
<g>
</g>
<g>
</g>
<g>
</g>
<g>
</g>
<g>
</g>
<g>
</g>
<g>
</g>
<g>
</g>
<g>
</g>
</svg>
