<?xml version="1.0" encoding="iso-8859-1"?>
<!-- Generator: Adobe Illustrator 19.0.0, SVG Export Plug-In . SVG Version: 6.00 Build 0)  -->
<svg version="1.1" id="Capa_1" xmlns="http://www.w3.org/2000/svg" xmlns:xlink="http://www.w3.org/1999/xlink" x="0px" y="0px"
	 viewBox="0 0 511.999 511.999" style="enable-background:new 0 0 511.999 511.999;" xml:space="preserve">
<g>
	<g>
		<path d="M485.26,253.208l-105.615-17.601l-30.604-45.888c-7.938-11.894-21.208-18.997-35.5-18.997h-14.335
			c1.85-2.467,3.775-4.903,6.053-7.145c16.385-16.101,25.406-37.577,25.406-60.469c0-36.431-22.885-69.009-56.958-81.091
			c-1.626-0.55-3.349-0.832-5.017-0.604c-1.997,0.272-3.915,1.221-5.493,2.583c-2.906,2.479-4.25,6.332-3.531,10.082l6.729,35.119
			c0.01,0.042,0.021,0.083,0.021,0.104c0.833,4.103-0.448,8.311-3.427,11.29l-2.573,2.583c-9.385,9.332-23.792,11.852-35.813,6.332
			c-3.052-1.416-5.438-4.478-6.375-8.144l-9.75-38.285c-0.896-3.541-3.542-6.374-7.01-7.52c-3.458-1.125-7.281-0.417-10.094,1.916
			C171.438,53.845,160,77.779,160,103.108c0,22.892,9.021,44.367,25.406,60.469c2.279,2.242,4.203,4.678,6.053,7.145h-35.668
			c-14.292,0-27.563,7.103-35.5,18.997l-30.875,46.305l-65.188,16.289C9.969,255.895,0,268.643,0,283.348v53.595
			c0,12.581,4.896,24.392,13.792,33.286c8.896,8.894,20.719,13.789,33.292,13.789h28.663c4.956,24.315,26.5,42.659,52.254,42.659
			c25.754,0,47.298-18.345,52.254-42.659h22.413v63.989c0,23.517,19.135,42.659,42.667,42.659c23.532,0,42.665-19.141,42.665-42.658
			v-63.989h33.079c4.956,24.315,26.5,42.659,52.254,42.659c25.754,0,47.298-18.345,52.254-42.659h47.819
			c8.135,0,15.448-4.52,19.083-11.79l17.26-34.515c0.375-0.75,0.656-1.541,0.844-2.333l1.125-4.77
			c0.188-0.812,0.281-1.625,0.281-2.437v-43.409C512,269.08,500.76,255.811,485.26,253.208z M128,405.334c-17.646,0-32-14.354-32-32
			s14.354-32,32-32s32,14.354,32,32S145.646,405.334,128,405.334z M202.667,362.668h-22.413
			c-4.956-24.319-26.5-42.667-52.254-42.667c-25.754,0-47.298,18.348-52.254,42.667H47.083c-6.875,0-13.344-2.688-18.208-7.542
			c-4.865-4.875-7.542-11.333-7.542-18.208v-53.604c0-4.896,3.323-9.146,8.073-10.333l69.177-17.292
			c2.573-0.646,4.823-2.229,6.292-4.438l33.167-49.75c3.969-5.938,10.604-9.5,17.75-9.5h45.724
			c0.757,3.504,1.151,7.073,1.151,10.667V362.668z M266.667,202.668v245.333c0,11.771-9.573,21.333-21.333,21.333
			s-21.333-9.563-21.333-21.333V202.668c0-20.063-8.396-39.354-23.635-54.354c-12.271-12.063-19.031-28.146-19.031-45.271
			c0-12.896,4-25.354,11.292-35.854l4.938,19.354c2.542,9.979,9.125,18.083,18.073,22.25c20.167,9.313,44.177,5.063,59.885-10.625
			l2.573-2.583c8.01-8,11.469-19.396,9.25-30.5l-2.469-12.896c15.135,12.042,24.458,30.667,24.458,50.854
			c0,17.125-6.76,33.208-19.031,45.271C275.063,163.313,266.667,182.605,266.667,202.668z M373.333,405.334
			c-17.646,0-32-14.354-32-32s14.354-32,32-32s32,14.354,32,32S390.979,405.334,373.333,405.334z M490.667,326.897l-17.26,35.771
			h-47.819c-4.956-24.319-26.5-42.667-52.254-42.667c-25.754,0-47.298,18.348-52.254,42.667H288v-160
			c0-3.594,0.395-7.163,1.151-10.667h24.391c7.146,0,13.781,3.563,17.75,9.5l33.167,49.75c1.635,2.458,4.219,4.125,7.125,4.604
			l110.156,18.354c5.177,0.875,8.927,5.292,8.927,10.521V326.897z"/>
	</g>
</g>
<g>
</g>
<g>
</g>
<g>
</g>
<g>
</g>
<g>
</g>
<g>
</g>
<g>
</g>
<g>
</g>
<g>
</g>
<g>
</g>
<g>
</g>
<g>
</g>
<g>
</g>
<g>
</g>
<g>
</g>
</svg>
