<?xml version="1.0" encoding="iso-8859-1"?>
<!-- Generator: Adobe Illustrator 19.0.0, SVG Export Plug-In . SVG Version: 6.00 Build 0)  -->
<svg version="1.1" id="Capa_1" xmlns="http://www.w3.org/2000/svg" xmlns:xlink="http://www.w3.org/1999/xlink" x="0px" y="0px"
	 viewBox="0 0 512 512" style="enable-background:new 0 0 512 512;" xml:space="preserve">
<g>
	<g>
		<path d="M349.375,247.354L230.25,161.323c-3.729-2.688-8.771-2.688-12.5,0L98.625,247.354c-2.771,2-4.417,5.219-4.417,8.646
			s1.646,6.646,4.417,8.646l119.125,86.031c1.865,1.344,4.063,2.021,6.25,2.021s4.385-0.677,6.25-2.021l119.125-86.031
			c2.771-2,4.417-5.219,4.417-8.646S352.146,249.354,349.375,247.354z M224,328.875l-86.137-62.208h172.273L224,328.875z
			 M137.863,245.333L224,183.125l86.137,62.208H137.863z"/>
	</g>
</g>
<g>
	<g>
		<path d="M480,224c-3.758,0-7.314,0.77-10.667,1.965V224c0-5.896-4.771-10.667-10.667-10.667S448,218.104,448,224v21.333h-28.548
			l-162.584-117.42c23.122-0.475,41.798-19.345,41.798-42.579V74.667C298.667,68.771,293.896,64,288,64h-42.667
			c-5.896,0-10.667,4.771-10.667,10.667h-21.333c0-5.896-4.771-10.667-10.667-10.667H160c-5.896,0-10.667,4.771-10.667,10.667
			v10.667c0,23.234,18.676,42.104,41.798,42.579L28.548,245.333H10.667C4.771,245.333,0,250.104,0,256s4.771,10.667,10.667,10.667
			h17.881L191.009,384H160c-29.406,0-53.333,23.927-53.333,53.333c0,5.896,4.771,10.667,10.667,10.667h213.333
			c5.896,0,10.667-4.771,10.667-10.667C341.333,407.927,317.406,384,288,384h-31.009l162.461-117.333H448V288
			c0,5.896,4.771,10.667,10.667,10.667s10.667-4.771,10.667-10.667v-1.965C472.686,287.23,476.242,288,480,288
			c17.646,0,32-14.354,32-32S497.646,224,480,224z M170.667,85.333H192C192,91.229,196.771,96,202.667,96h42.667
			C251.229,96,256,91.229,256,85.333h21.333c0,11.76-9.573,21.333-21.333,21.333h-64C180.24,106.667,170.667,97.094,170.667,85.333z
			 M288,405.333c13.906,0,25.771,8.917,30.177,21.333H129.823c4.406-12.417,16.271-21.333,30.177-21.333H288z M224,381.51
			L50.219,256L224,130.49L397.781,256L224,381.51z M480,266.667c-5.885,0-10.667-4.781-10.667-10.667s4.781-10.667,10.667-10.667
			c5.885,0,10.667,4.781,10.667,10.667S485.885,266.667,480,266.667z"/>
	</g>
</g>
<g>
</g>
<g>
</g>
<g>
</g>
<g>
</g>
<g>
</g>
<g>
</g>
<g>
</g>
<g>
</g>
<g>
</g>
<g>
</g>
<g>
</g>
<g>
</g>
<g>
</g>
<g>
</g>
<g>
</g>
</svg>
