<?xml version="1.0" encoding="iso-8859-1"?>
<!-- Generator: Adobe Illustrator 19.0.0, SVG Export Plug-In . SVG Version: 6.00 Build 0)  -->
<svg version="1.1" id="Capa_1" xmlns="http://www.w3.org/2000/svg" xmlns:xlink="http://www.w3.org/1999/xlink" x="0px" y="0px"
	 viewBox="0 0 511.999 511.999" style="enable-background:new 0 0 511.999 511.999;" xml:space="preserve">
<g>
	<g>
		<path d="M485.25,210.51l-105.604-17.604L349.042,147c-7.938-11.896-21.208-19-35.5-19h-157.75c-14.292,0-27.563,7.104-35.5,19
			l-30.875,46.323L24.25,209.615C9.979,213.177,0,225.948,0,240.656v53.594c0,12.573,4.896,24.396,13.792,33.292
			c8.771,8.76,20.896,13.792,33.292,13.792h28.661C80.701,365.646,102.237,384,128,384s47.299-18.353,52.255-42.667h140.823
			C326.034,365.646,347.57,384,373.333,384s47.299-18.353,52.255-42.667h47.807c8.146,0,15.458-4.51,19.104-11.792l17.25-34.521
			c0.375-0.75,0.667-1.542,0.854-2.354l1.125-4.771c0.188-0.792,0.271-1.604,0.271-2.417v-43.406
			C512,226.354,500.75,213.083,485.25,210.51z M128,362.667c-17.646,0-32-14.354-32-32s14.354-32,32-32s32,14.354,32,32
			S145.646,362.667,128,362.667z M373.333,362.667c-17.646,0-32-14.354-32-32s14.354-32,32-32s32,14.354,32,32
			S390.979,362.667,373.333,362.667z M490.668,284.24L490.668,284.24L473.396,320h-47.807
			c-4.956-24.314-26.492-42.667-52.255-42.667S326.035,295.685,321.079,320H180.255c-4.956-24.314-26.492-42.667-52.255-42.667
			S80.701,295.685,75.745,320H47.083c-6.771,0-13.417-2.75-18.208-7.542c-4.854-4.865-7.542-11.333-7.542-18.208v-53.594
			c0-4.906,3.333-9.156,8.083-10.354l69.167-17.292c2.583-0.635,4.813-2.219,6.292-4.427l33.167-49.75
			c3.958-5.948,10.604-9.5,17.75-9.5h157.75c7.146,0,13.792,3.552,17.75,9.5l33.167,49.75c1.625,2.458,4.208,4.125,7.125,4.604
			l110.167,18.365c5.167,0.854,8.917,5.281,8.917,10.521V284.24z"/>
	</g>
</g>
<g>
	<g>
		<path d="M277.333,170.667H160c-5.896,0-10.667,4.771-10.667,10.667S154.104,192,160,192h117.333
			c11.771,0,21.333,9.573,21.333,21.333s-9.563,21.333-21.333,21.333h-39.438l2.688-1.792c4.896-3.271,6.229-9.885,2.958-14.792
			c-3.292-4.927-9.938-6.229-14.792-2.958l-32,21.333c-2.958,1.979-4.75,5.313-4.75,8.875s1.792,6.896,4.75,8.875l32,21.333
			c1.813,1.208,3.875,1.792,5.917,1.792c3.438,0,6.813-1.667,8.875-4.75c3.271-4.906,1.938-11.521-2.958-14.792L237.896,256h39.438
			c23.52,0,42.666-19.135,42.666-42.667C320,189.8,300.854,170.667,277.333,170.667z"/>
	</g>
</g>
<g>
</g>
<g>
</g>
<g>
</g>
<g>
</g>
<g>
</g>
<g>
</g>
<g>
</g>
<g>
</g>
<g>
</g>
<g>
</g>
<g>
</g>
<g>
</g>
<g>
</g>
<g>
</g>
<g>
</g>
</svg>
