<?xml version="1.0" encoding="iso-8859-1"?>
<!-- Generator: Adobe Illustrator 19.0.0, SVG Export Plug-In . SVG Version: 6.00 Build 0)  -->
<svg version="1.1" id="Capa_1" xmlns="http://www.w3.org/2000/svg" xmlns:xlink="http://www.w3.org/1999/xlink" x="0px" y="0px"
	 viewBox="0 0 512 512" style="enable-background:new 0 0 512 512;" xml:space="preserve">
<g>
	<g>
		<path d="M256,0C114.833,0,0,114.844,0,256s114.833,256,256,256s256-114.844,256-256S397.167,0,256,0z M256,490.667
			C126.604,490.667,21.333,385.396,21.333,256S126.604,21.333,256,21.333S490.667,126.604,490.667,256S385.396,490.667,256,490.667z
			"/>
	</g>
</g>
<g>
	<g>
		<path d="M373.333,128c-17.646,0-32,14.354-32,32v64h-64v-64c0-17.646-14.354-32-32-32s-32,14.354-32,32v64h-74.667
			c-17.646,0-32,14.354-32,32v96c0,17.646,14.354,32,32,32s32-14.354,32-32v-64h42.667v64c0,17.646,14.354,32,32,32s32-14.354,32-32
			v-64h64v64c0,17.646,14.354,32,32,32s32-14.354,32-32V160C405.333,142.354,390.979,128,373.333,128z M384,352
			c0,5.885-4.792,10.667-10.667,10.667s-10.667-4.781-10.667-10.667v-74.667c0-5.896-4.771-10.667-10.667-10.667h-85.333
			c-5.896,0-10.667,4.771-10.667,10.667V352c0,5.885-4.792,10.667-10.667,10.667s-10.667-4.781-10.667-10.667v-74.667
			c0-5.896-4.771-10.667-10.667-10.667h-64c-5.896,0-10.667,4.771-10.667,10.667V352c0,5.885-4.792,10.667-10.667,10.667
			S128,357.885,128,352v-96c0-5.885,4.792-10.667,10.667-10.667H224c5.896,0,10.667-4.771,10.667-10.667V160
			c0-5.885,4.792-10.667,10.667-10.667S256,154.115,256,160v74.667c0,5.896,4.771,10.667,10.667,10.667H352
			c5.896,0,10.667-4.771,10.667-10.667V160c0-5.885,4.792-10.667,10.667-10.667S384,154.115,384,160V352z"/>
	</g>
</g>
<g>
</g>
<g>
</g>
<g>
</g>
<g>
</g>
<g>
</g>
<g>
</g>
<g>
</g>
<g>
</g>
<g>
</g>
<g>
</g>
<g>
</g>
<g>
</g>
<g>
</g>
<g>
</g>
<g>
</g>
</svg>
