<?xml version="1.0" encoding="iso-8859-1"?>
<!-- Generator: Adobe Illustrator 19.0.0, SVG Export Plug-In . SVG Version: 6.00 Build 0)  -->
<svg version="1.1" id="Capa_1" xmlns="http://www.w3.org/2000/svg" xmlns:xlink="http://www.w3.org/1999/xlink" x="0px" y="0px"
	 viewBox="0 0 469.334 469.334" style="enable-background:new 0 0 469.334 469.334;" xml:space="preserve">
<g>
	<g>
		<path d="M359.544,387.125l-45.587-45.587C317.702,335.193,320,327.889,320,320v-85.333c0-7.889-2.298-15.193-6.046-21.538
			l45.587-45.587c4.167-4.167,4.167-10.917,0.001-15.084c-4.167-4.167-10.917-4.167-15.083,0l-45.589,45.589
			C292.524,194.3,285.222,192,277.334,192H192c-7.889,0-15.195,2.299-21.543,6.049l-45.582-45.591
			c-4.167-4.167-10.917-4.167-15.083,0c-4.167,4.167-4.167,10.917,0,15.083l45.585,45.594c-3.745,6.345-6.043,13.645-6.043,21.531
			V320c0,7.889,2.298,15.193,6.046,21.538l-45.587,45.587c-4.167,4.167-4.167,10.917,0,15.083c2.083,2.083,4.813,3.125,7.542,3.125
			s5.458-1.042,7.542-3.125l45.589-45.589c6.346,3.747,13.648,6.047,21.536,6.047h85.333c7.888,0,15.19-2.299,21.536-6.047
			l45.589,45.589c2.083,2.083,4.813,3.125,7.542,3.125s5.458-1.042,7.542-3.125C363.711,398.041,363.711,391.291,359.544,387.125z
			 M298.667,320c0,11.76-9.563,21.333-21.333,21.333H192c-11.771,0-21.333-9.573-21.333-21.333v-85.333
			c0-5.879,2.389-11.21,6.25-15.073l0.003-0.003c3.862-3.863,9.195-6.258,15.081-6.258h85.333c11.771,0,21.333,9.573,21.333,21.333
			V320z"/>
	</g>
</g>
<g>
	<g>
		<path d="M384,0H256c-23.521,0-42.667,19.135-42.667,42.667v42.667H160V64h10.667C182.437,64,192,54.427,192,42.667V21.333
			C192,9.573,182.437,0,170.667,0H64C52.229,0,42.667,9.573,42.667,21.333v21.333C42.667,54.427,52.229,64,64,64h10.667v22.849
			c-18.346,4.77-32,21.326-32,41.151v298.667c0,23.531,19.146,42.667,42.667,42.667H384c23.521,0,42.667-19.135,42.667-42.667v-384
			C426.667,19.135,407.521,0,384,0z M234.666,42.667c0-11.76,9.563-21.333,21.333-21.333h128c11.771,0,21.333,9.573,21.333,21.333
			v48.602c-6.302-3.676-13.528-5.935-21.332-5.935V64V53.333c0-5.896-4.771-10.667-10.667-10.667h-10.667h-85.333h-10.667
			c-5.896,0-10.667,4.771-10.667,10.667V64v21.333h-21.333V42.667z M362.666,64v21.333h-85.333V64H362.666z M64,42.667V21.333
			h106.667v21.333h0.021l-0.021,10.667V42.667H64z M138.667,64v21.333H96V64H138.667z M405.333,426.667
			c0,11.76-9.563,21.333-21.333,21.333H85.333C73.562,448,64,438.427,64,426.667V128c0-11.76,9.563-21.333,21.333-21.333H224h42.667
			H384c11.771,0,21.333,9.573,21.333,21.333V426.667z"/>
	</g>
</g>
<g>
</g>
<g>
</g>
<g>
</g>
<g>
</g>
<g>
</g>
<g>
</g>
<g>
</g>
<g>
</g>
<g>
</g>
<g>
</g>
<g>
</g>
<g>
</g>
<g>
</g>
<g>
</g>
<g>
</g>
</svg>
