<?xml version="1.0" encoding="iso-8859-1"?>
<!-- Generator: Adobe Illustrator 19.0.0, SVG Export Plug-In . SVG Version: 6.00 Build 0)  -->
<svg version="1.1" id="Capa_1" xmlns="http://www.w3.org/2000/svg" xmlns:xlink="http://www.w3.org/1999/xlink" x="0px" y="0px"
	 viewBox="0 0 469.333 469.333" style="enable-background:new 0 0 469.333 469.333;" xml:space="preserve">
<g>
	<g>
		<path d="M373.336,42.667c-29.417,0-53.333,23.917-53.333,53.333c0,29.417,23.917,53.333,53.333,53.333
			c29.417,0,53.333-23.917,53.333-53.333C426.67,66.583,402.753,42.667,373.336,42.667z M373.336,128c-17.646,0-32-14.354-32-32
			s14.354-32,32-32s32,14.354,32,32S390.982,128,373.336,128z"/>
	</g>
</g>
<g>
	<g>
		<path d="M190.879,91.229c-1.813-3.604-5.5-5.896-9.542-5.896h-32V10.667C149.336,4.771,144.565,0,138.67,0H96.003
			c-5.896,0-10.667,4.771-10.667,10.667v74.667h-32c-4.042,0-7.729,2.292-9.542,5.896c-1.813,3.604-1.417,7.938,1,11.167
			l64.001,85.332c2.021,2.688,5.188,4.271,8.542,4.271s6.521-1.583,8.542-4.271l64-85.333
			C192.296,99.167,192.692,94.833,190.879,91.229z M117.336,163.563l-42.667-56.896h21.334c5.896,0,10.667-4.771,10.667-10.667
			V21.333h21.333V96c0,5.896,4.771,10.667,10.667,10.667h21.333L117.336,163.563z"/>
	</g>
</g>
<g>
	<g>
		<path d="M378.336,172.312c-0.021-0.021-0.042-0.021-0.042-0.021c-6.208-1.958-19.688-2.833-30.583,1.604l-88.313,39.438h-78.021
			c-17.667,0-32.021,14.354-32.021,32s14.354,32,32.021,32h85.333c4.958,0,9.917-1.167,13.896-3.167l39.042-17.354l-12.917,50.917
			l-149.917-9c-12.25-0.875-24.083,4.708-31.583,14.354l-74.688,96c-6.125,7.854-8.813,17.646-7.583,27.542
			c1.229,9.896,6.25,18.708,14.125,24.833c6.604,5.146,14.542,7.875,22.896,7.875c11.604,0,22.354-5.25,29.479-14.417l62.625-80.479
			l158.021,9.5c0.813,0.042,4.063,0.083,4.917,0.083c16.229,0,30.583-11.896,34.938-28.938l34.125-134.417
			C409.295,200.25,397.732,178.562,378.336,172.312z M383.42,215.417l-34.125,134.396c-1.938,7.583-7.813,12.875-14.271,12.875
			l-167.25-9.875c-3.667-0.313-6.917,1.313-9.063,4.104l-66.083,84.917c-5.271,6.729-15.646,8.063-22.458,2.792
			c-3.354-2.625-5.521-6.396-6.042-10.646c-0.521-4.229,0.625-8.438,3.25-11.813l74.687-95.979
			c3.042-3.917,7.771-6.188,12.708-6.188c0.271,0,0.563,0,0.833,0.021l158.646,9.521c5.458,0.542,9.708-3.063,10.979-8.021
			l20.5-80.75c1.021-3.958-0.333-8.146-3.458-10.771c-3.104-2.625-7.438-3.271-11.208-1.604l-59.563,26.479
			c-1.479,0.729-3.125,1.125-4.792,1.125h-85.333c-5.896,0-10.688-4.792-10.688-10.667s4.792-10.667,10.688-10.667h80.292
			c1.5,0,2.979-0.313,4.354-0.938l90.042-40.208c5.646-2.313,13.875-1.479,15.771-0.896
			C380.399,195.417,385.795,206.042,383.42,215.417z"/>
	</g>
</g>
<g>
</g>
<g>
</g>
<g>
</g>
<g>
</g>
<g>
</g>
<g>
</g>
<g>
</g>
<g>
</g>
<g>
</g>
<g>
</g>
<g>
</g>
<g>
</g>
<g>
</g>
<g>
</g>
<g>
</g>
</svg>
