<?xml version="1.0" encoding="iso-8859-1"?>
<!-- Generator: Adobe Illustrator 19.0.0, SVG Export Plug-In . SVG Version: 6.00 Build 0)  -->
<svg version="1.1" id="Capa_1" xmlns="http://www.w3.org/2000/svg" xmlns:xlink="http://www.w3.org/1999/xlink" x="0px" y="0px"
	 viewBox="0 0 512 512" style="enable-background:new 0 0 512 512;" xml:space="preserve">
<g>
	<g>
		<path d="M202.667,234.667c-5.896,0-10.667,4.771-10.667,10.667v85.333c0,5.896,4.771,10.667,10.667,10.667
			s10.667-4.771,10.667-10.667v-85.333C213.333,239.438,208.563,234.667,202.667,234.667z"/>
	</g>
</g>
<g>
	<g>
		<path d="M330.667,65.516V10.667C330.667,4.771,325.896,0,320,0h-42.667c-5.896,0-10.667,4.771-10.667,10.667V64h-21.333V10.667
			c0-5.896-4.77-10.667-10.666-10.667H192c-5.896,0-10.667,4.771-10.667,10.667v54.849c-18.346,4.77-32,21.326-32,41.151v234.667
			C149.333,364.865,168.479,384,192,384h32v16.01c0,2.938-2.375,5.323-5.313,5.323c-38.229,0-69.333,31.115-69.333,69.354
			l-0.021,26.635c0,2.833,1.125,5.552,3.125,7.552S157.167,512,160,512h42.667c5.896,0,10.667-4.771,10.667-10.656l0.021-26.667
			c0-2.948,2.396-5.344,5.333-5.344c38.229,0,69.313-31.094,69.313-69.323V384h32c23.521,0,42.667-19.135,42.667-42.667V106.667
			C362.667,86.841,349.013,70.285,330.667,65.516z M288,21.333h21.333V64H288V21.333z M202.667,21.333H224V64h-21.333V21.333z
			 M266.667,400.01c0,26.458-21.521,47.99-47.979,47.99c-14.708,0-26.667,11.969-26.667,26.667l-0.021,16h-21.333l0.021-15.969
			c0-26.49,21.542-48.031,48-48.031c14.688,0,26.646-11.958,26.646-26.656V384h21.333V400.01z M341.333,341.333
			c0,11.76-9.563,21.333-21.333,21.333H192c-11.771,0-21.333-9.573-21.333-21.333V106.667c0-11.76,9.563-21.333,21.333-21.333h128
			c11.771,0,21.333,9.573,21.333,21.333V341.333z"/>
	</g>
</g>
<g>
</g>
<g>
</g>
<g>
</g>
<g>
</g>
<g>
</g>
<g>
</g>
<g>
</g>
<g>
</g>
<g>
</g>
<g>
</g>
<g>
</g>
<g>
</g>
<g>
</g>
<g>
</g>
<g>
</g>
</svg>
