<?xml version="1.0" encoding="iso-8859-1"?>
<!-- Generator: Adobe Illustrator 19.0.0, SVG Export Plug-In . SVG Version: 6.00 Build 0)  -->
<svg version="1.1" id="Capa_1" xmlns="http://www.w3.org/2000/svg" xmlns:xlink="http://www.w3.org/1999/xlink" x="0px" y="0px"
	 viewBox="0 0 512.001 512.001" style="enable-background:new 0 0 512.001 512.001;" xml:space="preserve">
<g>
	<g>
		<path d="M442.104,257.125l-36.771-18.385v-4.073c0-23.531-19.135-42.667-42.667-42.667H352c-5.896,0-10.667,4.771-10.667,10.667
			v10.667h-42.667c-19.082,0-35.081,12.667-40.522,29.973l-10.059-25.148c31.699-15.836,48.652-52.496,38.341-87.668L250.396,7.667
			c-1.646-5.656-7.521-8.875-13.24-7.24L114.333,36.459c-5.656,1.667-8.896,7.594-7.24,13.24l36.031,122.823
			c9.542,32.521,39.385,53.656,71.688,53.656c4.299,0,8.641-0.518,12.986-1.29l12.445,31.113H128
			c-23.531,0-42.667,19.135-42.667,42.667H64v-32c0-5.896-4.771-10.667-10.667-10.667C23.927,256,0,279.927,0,309.334
			c0,29.407,23.927,53.333,53.333,53.333C59.229,362.667,64,357.896,64,352v-32h21.333c0,15.428,8.305,28.841,20.603,36.336
			L85.438,499.823c-0.438,3.063,0.479,6.167,2.5,8.5c2.031,2.333,4.969,3.677,8.063,3.677c30.146,0,58.156-16.25,73.094-42.417
			l61.095-106.917h19.217l-34.948,69.896c-2.635,5.271-0.5,11.677,4.771,14.313c1.531,0.76,3.156,1.125,4.76,1.125
			c3.917,0,7.677-2.156,9.552-5.896l39.719-79.438h68.073v10.667c0,5.896,4.771,10.667,10.667,10.667h10.667
			c23.531,0,42.667-19.135,42.667-42.667v-4.073l36.771-18.385c3.615-1.813,5.896-5.5,5.896-9.542v-42.667
			C448,262.625,445.719,258.938,442.104,257.125z M42.667,339.511c-12.417-4.406-21.333-16.271-21.333-30.177
			s8.917-25.771,21.333-30.177V339.511z M139.786,85.334l-9.214-31.406l102.354-30.021l18.017,61.427H139.786z M229.792,202.677
			c-13.698,4-28.104,2.458-40.583-4.375c-12.51-6.823-21.604-18.115-25.604-31.781l-17.559-59.854h111.155l8.747,29.823
			c4.01,13.677,2.458,28.083-4.365,40.583C254.75,189.584,243.458,198.677,229.792,202.677z M150.573,459
			c-9.063,15.854-24.542,26.844-42.094,30.406l18.129-126.88c0.473,0.016,0.915,0.141,1.392,0.141h77.621L150.573,459z
			 M341.334,341.334L341.334,341.334H128c-11.76,0-21.333-9.573-21.333-21.333v-21.333c0-11.76,9.573-21.333,21.333-21.333h138.667
			c5.896,0,10.667-4.771,10.667-10.667v-10.667c0-11.76,9.573-21.333,21.333-21.333h42.667V341.334z M384,341.334
			c0,11.76-9.573,21.333-21.333,21.333V213.334c11.76,0,21.333,9.573,21.333,21.333V341.334z M426.667,302.74l-21.333,10.667
			v-50.813l21.333,10.667V302.74z"/>
	</g>
</g>
<g>
	<g>
		<path d="M501.333,277.334H480c-5.896,0-10.667,4.771-10.667,10.667s4.771,10.667,10.667,10.667h21.333
			c5.896,0,10.667-4.771,10.667-10.667C512,282.104,507.229,277.334,501.333,277.334z"/>
	</g>
</g>
<g>
	<g>
		<path d="M508.875,216.459c-4.167-4.167-10.917-4.167-15.083,0l-21.333,21.333c-4.167,4.167-4.167,10.917,0,15.083
			c2.083,2.084,4.812,3.125,7.541,3.125s5.458-1.042,7.542-3.125l21.333-21.333C513.042,227.375,513.042,220.625,508.875,216.459z"
			/>
	</g>
</g>
<g>
	<g>
		<path d="M508.876,344.458l-21.334-21.333c-4.167-4.167-10.917-4.167-15.083,0c-4.167,4.167-4.167,10.917,0,15.083l21.333,21.333
			c2.083,2.083,4.813,3.125,7.542,3.125s5.458-1.042,7.542-3.125C513.043,355.374,513.043,348.624,508.876,344.458z"/>
	</g>
</g>
<g>
</g>
<g>
</g>
<g>
</g>
<g>
</g>
<g>
</g>
<g>
</g>
<g>
</g>
<g>
</g>
<g>
</g>
<g>
</g>
<g>
</g>
<g>
</g>
<g>
</g>
<g>
</g>
<g>
</g>
</svg>
