<?xml version="1.0" encoding="iso-8859-1"?>
<!-- Generator: Adobe Illustrator 19.0.0, SVG Export Plug-In . SVG Version: 6.00 Build 0)  -->
<svg version="1.1" id="Capa_1" xmlns="http://www.w3.org/2000/svg" xmlns:xlink="http://www.w3.org/1999/xlink" x="0px" y="0px"
	 viewBox="0 0 469.333 469.333" style="enable-background:new 0 0 469.333 469.333;" xml:space="preserve">
<g>
	<g>
		<path d="M373.336,42.667c-29.416,0-53.334,23.916-53.334,53.333s23.917,53.333,53.334,53.333S426.669,125.416,426.669,96
			C426.669,66.583,402.752,42.667,373.336,42.667z M373.336,128c-17.646,0-32-14.354-32-32s14.354-32,32-32s32,14.354,32,32
			S390.982,128,373.336,128z"/>
	</g>
</g>
<g>
	<g>
		<path d="M128.002,0C69.189,0,21.336,47.854,21.336,106.667S69.19,213.333,128.002,213.333
			c58.813,0,106.667-47.854,106.667-106.667C234.669,47.853,186.815,0,128.002,0z M128.002,192
			c-47.063,0-85.333-38.271-85.333-85.333s38.271-85.334,85.333-85.334c47.063,0,85.333,38.271,85.333,85.333
			C213.335,153.728,175.065,192,128.002,192z"/>
	</g>
</g>
<g>
	<g>
		<path d="M445.794,153.521c-3.583-4.729-10.333-5.604-14.938-1.979l-38.342,29.388c-4.009-3.81-8.741-6.865-14.178-8.617
			c-0.021-0.021-0.042-0.021-0.042-0.021c-6.229-1.979-19.667-2.854-30.583,1.583l-88.313,39.458h-78.021
			c-17.667,0-32.021,14.354-32.021,32s14.354,32,32.021,32h85.333c4.958,0,9.917-1.167,13.896-3.167l39.042-17.375l-12.917,50.938
			l-149.917-9c-12.188-0.875-24.063,4.708-31.583,14.354l-74.688,96c-6.125,7.854-8.813,17.646-7.583,27.542
			c1.229,9.896,6.25,18.708,14.125,24.833c6.604,5.146,14.542,7.875,22.896,7.875c11.604,0,22.354-5.25,29.479-14.417l62.625-80.5
			l158.333,9.542l4.604,0.063c11.382,0,21.632-6.072,28.366-15.445l46.217,34.633c1.917,1.438,4.167,2.125,6.396,2.125
			c3.229,0,6.438-1.479,8.542-4.271c3.521-4.708,2.563-11.396-2.146-14.938L371.72,348.15l32.365-127.504
			c1.844-7.22,1.495-14.574-0.469-21.376l40.198-30.811C448.502,164.875,449.377,158.187,445.794,153.521z M271.502,254.875
			c-1.479,0.729-3.125,1.125-4.792,1.125h-85.333c-5.896,0-10.688-4.792-10.688-10.667s4.792-10.667,10.688-10.667h80.292
			c1.5,0,2.979-0.313,4.354-0.938l90.042-40.229c5.646-2.292,13.875-1.458,15.771-0.875c1.137,0.369,2.044,1.188,3.059,1.811
			l-43.871,33.626c-0.199,0.152-0.289,0.379-0.474,0.542L271.502,254.875z M335.023,362.688l-167.25-9.896
			c-3.833-0.292-6.917,1.333-9.063,4.104l-66.083,84.938c-5.271,6.729-15.646,8.063-22.458,2.792
			c-6.958-5.417-8.208-15.479-2.792-22.458l74.688-95.979c3.042-3.917,7.771-6.188,12.708-6.188c0.271,0,0.563,0,0.833,0.021
			l156.339,9.383c0.529,0.642,0.967,1.345,1.661,1.867l32.849,24.615C343.656,360.01,339.524,362.688,335.023,362.688z
			 M383.419,215.396l-30.186,118.901l-26.251-19.672l17.84-70.289l38.635-29.613C383.409,214.945,383.475,215.174,383.419,215.396z"
			/>
	</g>
</g>
<g>
</g>
<g>
</g>
<g>
</g>
<g>
</g>
<g>
</g>
<g>
</g>
<g>
</g>
<g>
</g>
<g>
</g>
<g>
</g>
<g>
</g>
<g>
</g>
<g>
</g>
<g>
</g>
<g>
</g>
</svg>
