<?xml version="1.0" encoding="iso-8859-1"?>
<!-- Generator: Adobe Illustrator 19.0.0, SVG Export Plug-In . SVG Version: 6.00 Build 0)  -->
<svg version="1.1" id="Capa_1" xmlns="http://www.w3.org/2000/svg" xmlns:xlink="http://www.w3.org/1999/xlink" x="0px" y="0px"
	 viewBox="0 0 512.001 512.001" style="enable-background:new 0 0 512.001 512.001;" xml:space="preserve">
<g>
	<g>
		<path d="M443.412,159.906c-3.542-4.469-8.604-7.292-14.251-7.948l-21.188-2.479c-12.042-1.396-22.293,7.031-23.689,18.708
			l-12.375,105.979c-0.462,4.105,0.611,7.895,2.271,11.38l-0.521-0.13L365.013,320h-4.667l-8.646-34.583l-0.526,0.131
			c1.664-3.492,2.738-7.293,2.276-11.413l-12.396-105.958c-1.27-10.776-10.197-18.514-21.043-18.501V128
			c0-70.583-57.419-128-128.005-128S64,57.417,64,128s57.419,128,128.005,128c35.293,0,64.003,28.708,64.003,64s-28.71,64-64.003,64
			c-5.896,0-10.667,4.771-10.667,10.667s4.771,10.667,10.667,10.667c47.065,0,85.337-38.281,85.337-85.333
			s-38.272-85.333-85.337-85.333c-58.815,0-106.671-47.854-106.671-106.667S133.19,21.333,192.005,21.333
			S298.677,69.188,298.677,128v23.671l-2.458,0.288c-5.667,0.656-10.73,3.479-14.271,7.948c-3.542,4.469-5.104,10.052-4.458,15.708
			l12.355,105.948c0.753,6.323,4.37,11.436,9.237,14.809l10.284,205.494c0.271,5.677,4.959,10.135,10.646,10.135
			c23.522,0,42.668-19.135,42.668-42.667c0,23.531,19.147,42.667,42.669,42.667c5.688,0,10.375-4.458,10.646-10.135l10.284-205.497
			c4.863-3.374,8.485-8.486,9.237-14.805l12.334-105.938C448.516,169.958,446.954,164.375,443.412,159.906z M311.05,279.083
			l-12.354-105.938l21.167-2.479l12.375,105.927c0,0.01,0,0.021,0,0.021L311.05,279.083z M363.8,453.897
			c-0.729,1.479-1.125,3.115-1.125,4.771c0-1.656-0.396-3.292-1.125-4.771l-8.292-16.563l8.292-16.563
			c0.749-1.497,1.123-3.129,1.125-4.762c0.002,1.631,0.377,3.264,1.125,4.762l8.292,16.563L363.8,453.897z M362.675,415.992
			c-0.001-1.632-0.376-3.265-1.125-4.763l-8.292-16.563L358.591,384h8.16l5.34,10.667l-8.292,16.563
			C363.051,412.727,362.676,414.359,362.675,415.992z M373.341,362.667h-21.333c-4.042,0-7.729,2.281-9.542,5.896L331.8,389.896
			c-1.5,3-1.5,6.542,0,9.542L340.091,416l-8.292,16.563c-1.5,3-1.5,6.542,0,9.542l9.542,19.083v8.146
			c0,8.146-4.583,15.24-11.313,18.833l-9.452-188.712l12.27-1.434l8.807,35.229c1.188,4.75,5.458,8.083,10.354,8.083h21.333
			c5.875,0,10.667,4.781,10.667,10.667C384.008,357.885,379.216,362.667,373.341,362.667z M395.321,488.167
			c-6.729-3.594-11.313-10.688-11.313-18.833v-8.146l9.542-19.083c1.5-3,1.5-6.542,0-9.542L385.258,416l8.292-16.563
			c1.5-3,1.5-6.542,0-9.542l-4.967-9.935c5.428-2.971,9.857-7.424,12.802-12.87L395.321,488.167z M402.769,339.456
			c-3.174-7.422-9.098-13.37-16.461-16.654l6.195-24.781l12.27,1.434L402.769,339.456z M414.321,279.094l-21.188-2.479l-1.25,10.594
			l13.583-116.542l21.188,2.469L414.321,279.094z"/>
	</g>
</g>
<g>
</g>
<g>
</g>
<g>
</g>
<g>
</g>
<g>
</g>
<g>
</g>
<g>
</g>
<g>
</g>
<g>
</g>
<g>
</g>
<g>
</g>
<g>
</g>
<g>
</g>
<g>
</g>
<g>
</g>
</svg>
