<?xml version="1.0" encoding="iso-8859-1"?>
<!-- Generator: Adobe Illustrator 19.0.0, SVG Export Plug-In . SVG Version: 6.00 Build 0)  -->
<svg version="1.1" id="Capa_1" xmlns="http://www.w3.org/2000/svg" xmlns:xlink="http://www.w3.org/1999/xlink" x="0px" y="0px"
	 viewBox="0 0 511.997 511.997" style="enable-background:new 0 0 511.997 511.997;" xml:space="preserve">
<g>
	<g>
		<path d="M509.353,152.976c-3.167-3.646-79.833-88.979-253.354-88.979S5.811,149.331,2.644,152.976
			c-2.354,2.688-3.208,6.375-2.271,9.833l64,234.667c0.938,3.417,3.521,6.146,6.875,7.271c3.396,1.125,7.083,0.521,9.917-1.625
			c0.362-0.275,26.607-19.655,82.827-31.487c-1.036,2.85-2.113,5.625-3.223,8.404c-5.625,14.042-11.438,28.563-11.438,57.292
			c0,5.896,4.771,10.667,10.667,10.667s10.667-4.771,10.667-10.667c0-24.604,4.813-36.646,9.896-49.375
			c2.52-6.289,5.048-12.749,7.104-20.462c19.862-2.911,42.475-4.829,68.333-4.829c2.323,0,4.457,0.109,6.73,0.139
			c-1.723,6.26-3.777,11.771-5.96,17.236c-5.625,14.042-11.438,28.563-11.438,57.292c0,5.896,4.771,10.667,10.667,10.667
			c5.896,0,10.667-4.771,10.667-10.667c0-24.604,4.813-36.646,9.896-49.375c2.939-7.335,5.908-14.855,8.092-24.409
			c27.678,1.557,51.174,5.207,70.699,9.755c-0.849,2.257-1.694,4.509-2.583,6.737c-5.625,14.042-11.438,28.563-11.438,57.292
			c0,5.896,4.771,10.667,10.667,10.667s10.667-4.771,10.667-10.667c0-24.604,4.813-36.646,9.896-49.375
			c1.195-2.984,2.391-6.022,3.546-9.182c36.928,11.186,54.43,24.125,54.725,24.349c1.896,1.438,4.188,2.188,6.5,2.188
			c1.146,0,2.292-0.188,3.417-0.563c3.354-1.125,5.938-3.854,6.875-7.271l64-234.667
			C512.561,159.351,511.707,155.664,509.353,152.976z M430.811,378.039c-10.081-5.557-26.527-13.038-49.051-19.831
			c1.372-7.616,2.238-16.522,2.238-27.544c0-28.729-5.813-43.25-11.438-57.292c-2.659-6.658-5.197-13.238-7.057-21.415
			c2.048,2.387,4.764,4.04,7.828,4.04c1.604,0,3.229-0.354,4.771-1.125c5.271-2.646,7.396-9.042,4.771-14.313l-21.333-42.667
			c-3.625-7.208-15.458-7.208-19.083,0l-21.333,42.667c-2.625,5.271-0.5,11.667,4.771,14.313c5.313,2.646,11.667,0.5,14.313-4.771
			l2.428-4.858c2.016,15.592,6.105,25.988,10.134,36.046c5.083,12.729,9.896,24.771,9.896,49.375c0,8.887-0.772,15.78-1.814,22.013
			c-20.422-4.781-44.553-8.686-73.237-10.371c0.229-3.633,0.384-7.447,0.384-11.642c0-28.729-5.813-43.25-11.438-57.292
			c-2.659-6.658-5.197-13.238-7.057-21.415c2.048,2.387,4.764,4.04,7.828,4.04c1.604,0,3.229-0.354,4.771-1.125
			c5.271-2.646,7.396-9.042,4.771-14.313l-21.333-42.667c-3.625-7.208-15.458-7.208-19.083,0l-21.333,42.667
			c-2.625,5.271-0.5,11.667,4.771,14.313c5.313,2.646,11.667,0.5,14.313-4.771l2.428-4.858c2.016,15.592,6.105,25.988,10.134,36.046
			c5.083,12.729,9.896,24.771,9.896,49.375c0,4.142-0.309,7.486-0.56,10.979c-3.441-0.064-6.556-0.313-10.107-0.313
			c-24.009,0-45.497,1.518-64.632,3.983c0.371-4.487,0.632-9.25,0.632-14.65c0-28.729-5.813-43.25-11.438-57.292
			c-2.659-6.658-5.197-13.238-7.057-21.415c2.048,2.387,4.764,4.04,7.828,4.04c1.604,0,3.229-0.354,4.771-1.125
			c5.271-2.646,7.396-9.042,4.771-14.313l-21.333-42.667c-3.625-7.208-15.458-7.208-19.083,0l-21.333,42.667
			c-2.625,5.271-0.5,11.667,4.771,14.313c5.313,2.646,11.667,0.5,14.313-4.771l2.428-4.858c2.016,15.592,6.105,25.988,10.134,36.046
			c5.083,12.729,9.896,24.771,9.896,49.375c0,7.033-0.467,12.855-1.147,18.145c-44.122,8.063-73.128,20.848-88.332,29.23
			L22.561,163.081c17-16.313,90.542-77.75,233.438-77.75c142.271,0,216.313,61.479,233.417,77.792L430.811,378.039z"/>
	</g>
</g>
<g>
</g>
<g>
</g>
<g>
</g>
<g>
</g>
<g>
</g>
<g>
</g>
<g>
</g>
<g>
</g>
<g>
</g>
<g>
</g>
<g>
</g>
<g>
</g>
<g>
</g>
<g>
</g>
<g>
</g>
</svg>
