<?xml version="1.0" encoding="iso-8859-1"?>
<!-- Generator: Adobe Illustrator 19.0.0, SVG Export Plug-In . SVG Version: 6.00 Build 0)  -->
<svg version="1.1" id="Capa_1" xmlns="http://www.w3.org/2000/svg" xmlns:xlink="http://www.w3.org/1999/xlink" x="12px" y="12px"
	 viewBox="0 0 512 512" style="enable-background:new 0 0 512 512;" xml:space="preserve">
<g>
	<g>
		<path d="M256,0C114.844,0,0,114.844,0,256s114.844,256,256,256s256-114.844,256-256S397.156,0,256,0z M256,490.667
			C126.604,490.667,21.333,385.396,21.333,256S126.604,21.333,256,21.333S490.667,126.604,490.667,256S385.396,490.667,256,490.667z
			"/>
	</g>
</g>
<g>
	<g>
		<path d="M256,64C150.135,64,64,150.135,64,256s86.135,192,192,192s192-86.135,192-192S361.865,64,256,64z M256,426.667
			c-94.104,0-170.667-76.563-170.667-170.667S161.896,85.333,256,85.333S426.667,161.896,426.667,256S350.104,426.667,256,426.667z"
			/>
	</g>
</g>
<g>
	<g>
		<path d="M402.01,225.605c-6.292-29.5-21.302-56.167-43.438-77.125c-2.083-1.969-4.865-3.156-7.75-2.906
			c-2.875,0.115-5.583,1.375-7.5,3.51c-30.74,34.083-38.281,65.219-20.198,83.292c8.501,8.509,23.157,12.937,38.636,12.937
			c11.885,0,24.271-2.615,34.708-8.01C400.739,235.095,403.01,230.303,402.01,225.605z M338.209,217.292
			c-8.511-8.511,0.26-27.875,13.614-45.146c12.688,14.302,21.938,31.063,27.167,49.292
			C363.375,226.188,344.688,223.771,338.209,217.292z"/>
	</g>
</g>
<g>
	<g>
		<path d="M396.469,274.667c-24.073-12.417-58.313-10.125-73.344,4.927c-18.083,18.083-10.531,49.219,20.198,83.302
			c1.917,2.135,4.625,3.396,7.5,3.51c0.135,0.01,0.281,0.01,0.417,0.01c2.719,0,5.354-1.042,7.333-2.917
			c22.135-20.958,37.156-47.635,43.438-77.135C403.01,281.667,400.74,276.875,396.469,274.667z M351.823,339.833
			c-13.354-17.281-22.125-36.646-13.615-45.156c4.146-4.146,13.302-6.625,23.458-6.625c5.698,0,11.708,0.781,17.323,2.49
			C373.76,308.771,364.51,325.531,351.823,339.833z"/>
	</g>
</g>
<g>
	<g>
		<path d="M301.469,114.615c-29.479-9.438-61.458-9.438-90.938,0c-4.677,1.49-7.729,5.99-7.396,10.896
			c2.667,38.375,25.385,67.323,52.865,67.323c27.48,0,50.198-28.948,52.865-67.323C309.198,120.604,306.146,116.104,301.469,114.615
			z M256,171.5c-14.125,0-26.677-16.531-30.552-38.948c20-4.938,41.104-4.938,61.104,0C282.677,154.969,270.125,171.5,256,171.5z"/>
	</g>
</g>
<g>
	<g>
		<path d="M308.863,387.333C306.198,348.948,283.479,320,256,320s-50.198,28.948-52.865,67.333
			c-0.333,4.906,2.719,9.406,7.406,10.896c14.75,4.719,30.042,7.104,45.458,7.104c15.416,0,30.708-2.385,45.458-7.104
			C306.145,396.739,309.197,392.239,308.863,387.333z M225.448,380.292c3.875-22.427,16.427-38.958,30.552-38.958
			s26.677,16.531,30.552,38.958C266.531,385.208,245.469,385.208,225.448,380.292z"/>
	</g>
</g>
<g>
	<g>
		<path d="M168.676,149.082c-1.916-2.134-4.624-3.394-7.499-3.509c-2.833-0.229-5.677,0.938-7.75,2.906
			c-22.135,20.958-37.146,47.625-43.438,77.125c-1,4.698,1.271,9.49,5.542,11.698c10.448,5.396,22.823,8.01,34.708,8.01
			c15.479,0,30.135-4.427,38.635-12.938C206.957,214.301,199.416,183.166,168.676,149.082z M173.792,217.292
			c-6.469,6.458-25.167,8.875-40.781,4.146c5.24-18.229,14.479-34.99,27.167-49.292
			C173.531,189.417,182.302,208.781,173.792,217.292z"/>
	</g>
</g>
<g>
	<g>
		<path d="M188.875,281.293c-15.021-15.033-49.302-17.345-73.344-4.928c-4.271,2.208-6.542,7-5.542,11.698
			c6.292,29.51,21.302,56.177,43.438,77.135c1.979,1.875,4.615,2.917,7.333,2.917c0.135,0,0.281,0,0.427-0.01
			c2.865-0.115,5.573-1.375,7.5-3.51C199.406,330.512,206.947,299.366,188.875,281.293z M160.177,341.521
			c-12.688-14.292-21.927-31.052-27.167-49.292c15.635-4.76,34.313-2.323,40.781,4.146
			C182.302,304.885,173.521,324.25,160.177,341.521z"/>
	</g>
</g>
<g>
	<g>
		<path d="M256,213.333c-23.532,0-42.667,19.136-42.667,42.667s19.135,42.667,42.667,42.667c23.532,0,42.667-19.136,42.667-42.667
			S279.532,213.333,256,213.333z M256,277.333c-11.76,0-21.333-9.573-21.333-21.333s9.573-21.333,21.333-21.333
			s21.333,9.573,21.333,21.333S267.76,277.333,256,277.333z"/>
	</g>
</g>
<g>
</g>
<g>
</g>
<g>
</g>
<g>
</g>
<g>
</g>
<g>
</g>
<g>
</g>
<g>
</g>
<g>
</g>
<g>
</g>
<g>
</g>
<g>
</g>
<g>
</g>
<g>
</g>
<g>
</g>
</svg>
