<?xml version="1.0" encoding="iso-8859-1"?>
<!-- Generator: Adobe Illustrator 19.0.0, SVG Export Plug-In . SVG Version: 6.00 Build 0)  -->
<svg version="1.1" id="Capa_1" xmlns="http://www.w3.org/2000/svg" xmlns:xlink="http://www.w3.org/1999/xlink" x="0px" y="0px"
	 viewBox="0 0 512.001 512.001" style="enable-background:new 0 0 512.001 512.001;" xml:space="preserve">
<g>
	<g>
		<path d="M426.667,343.298V168.702C439.056,164.284,448,152.555,448,138.667c0-17.646-14.354-32-32-32s-32,14.354-32,32
			c0,13.888,8.944,25.617,21.333,30.035v76.631h-86.411c-4.523-26.719-25.536-47.732-52.255-52.255v-24.376
			C279.056,164.284,288,152.555,288,138.667c0-17.646-14.354-32-32-32s-32,14.354-32,32c0,13.888,8.944,25.617,21.333,30.035v24.376
			c-26.719,4.523-47.732,25.536-52.255,52.255h-86.411v-76.631C119.056,164.284,128,152.555,128,138.667c0-17.646-14.354-32-32-32
			s-32,14.354-32,32c0,13.888,8.944,25.617,21.333,30.035v174.596C72.944,347.716,64,359.445,64,373.333c0,17.646,14.354,32,32,32
			s32-14.354,32-32c0-13.888-8.944-25.617-21.333-30.035v-76.632h86.411c4.523,26.719,25.536,47.732,52.255,52.255v24.376
			C232.944,347.716,224,359.445,224,373.333c0,17.646,14.354,32,32,32s32-14.354,32-32c0-13.888-8.944-25.617-21.333-30.035v-24.376
			c26.719-4.523,47.732-25.536,52.255-52.255h86.411v76.632C392.944,347.716,384,359.445,384,373.333c0,17.646,14.354,32,32,32
			s32-14.354,32-32C448,359.445,439.056,347.716,426.667,343.298z M96,384c-5.875,0-10.667-4.781-10.667-10.667
			c0-5.885,4.792-10.667,10.667-10.667s10.667,4.781,10.667,10.667S101.875,384,96,384z M96,149.333
			c-5.875,0-10.667-4.781-10.667-10.667C85.333,132.781,90.125,128,96,128s10.667,4.781,10.667,10.667
			C106.667,144.552,101.875,149.333,96,149.333z M256,128c5.875,0,10.667,4.781,10.667,10.667c0,5.885-4.792,10.667-10.667,10.667
			s-10.667-4.781-10.667-10.667S250.125,128,256,128z M256,384c-5.875,0-10.667-4.781-10.667-10.667
			c0-5.885,4.792-10.667,10.667-10.667s10.667,4.781,10.667,10.667S261.875,384,256,384z M256,298.667
			c-23.521,0-42.667-19.135-42.667-42.667s19.146-42.667,42.667-42.667s42.667,19.135,42.667,42.667S279.521,298.667,256,298.667z
			 M416,127.999c5.875,0,10.667,4.781,10.667,10.667c0,5.886-4.792,10.667-10.667,10.667s-10.667-4.781-10.667-10.667
			C405.333,132.781,410.125,127.999,416,127.999z M416,384c-5.875,0-10.667-4.781-10.667-10.667c0-5.885,4.792-10.667,10.667-10.667
			s10.667,4.781,10.667,10.667S421.875,384,416,384z"/>
	</g>
</g>
<g>
	<g>
		<path d="M96,0H74.667C68.771,0,64,4.771,64,10.667s4.771,10.666,10.667,10.666h10.667v53.333c0,5.896,4.771,10.667,10.667,10.667
			c5.896,0,10.667-4.771,10.667-10.667v-64C106.667,4.771,101.896,0,96,0z"/>
	</g>
</g>
<g>
	<g>
		<path d="M128,469.331v-16c0-14.706-11.958-26.664-26.667-26.664c-14.708,0-26.667,11.958-26.667,26.667
			c0,5.896,4.771,10.667,10.667,10.667C91.229,464,96,459.229,96,453.333c0-5.875,10.667-5.875,10.667,0v11.583l-28.875,28.875
			c-3.042,3.052-3.958,7.635-2.313,11.625c1.646,3.99,5.542,6.583,9.854,6.583h32c5.896,0,10.667-4.771,10.667-10.667
			s-4.771-10.667-10.667-10.667h-6.25l13.792-13.792C126.875,474.873,128,472.165,128,469.331z"/>
	</g>
</g>
<g>
	<g>
		<path d="M288,26.667C288,11.958,276.042,0,261.333,0c-14.708,0-26.667,11.958-26.667,26.667c0,5.896,4.771,10.667,10.667,10.667
			S256,32.563,256,26.667c0-5.875,10.667-5.875,10.667,0c0,2.938-2.396,5.333-5.333,5.333c-5.896,0-10.667,4.771-10.667,10.667
			s4.771,10.667,10.667,10.667c2.938,0,5.333,2.396,5.333,5.333c0,5.875-10.667,5.875-10.667,0C256,52.771,251.229,48,245.333,48
			s-10.667,4.771-10.667,10.667c0,14.708,11.958,26.667,26.667,26.667c14.708,0,26.667-11.958,26.667-26.667c0-6-2-11.542-5.354-16
			C286,38.209,288,32.667,288,26.667z"/>
	</g>
</g>
<g>
	<g>
		<path d="M266.667,469.333v-10.667c0-5.896-4.771-10.667-10.667-10.667s-10.667,4.771-10.667,10.667v10.667h-10.667v-32
			c0-5.896-4.771-10.667-10.667-10.667s-10.667,4.771-10.667,10.667V480c0,5.896,4.771,10.667,10.667,10.667h21.333v10.667
			c0,5.896,4.771,10.667,10.667,10.667s10.667-4.771,10.667-10.667v-10.667c5.896,0,10.667-4.771,10.667-10.667
			S272.563,469.333,266.667,469.333z"/>
	</g>
</g>
<g>
	<g>
		<path d="M421.333,32H416V21.333h21.333c5.896,0,10.667-4.771,10.667-10.667C448,4.771,443.229,0,437.333,0h-32
			c-5.896,0-10.667,4.771-10.667,10.667v32c0,5.896,4.771,10.667,10.667,10.667h16c2.938,0,5.333,2.396,5.333,5.333
			S424.271,64,421.333,64h-16c-5.896,0-10.667,4.771-10.667,10.667s4.771,10.667,10.667,10.667h16
			c14.708,0,26.667-11.958,26.667-26.667S436.042,32,421.333,32z"/>
	</g>
</g>
<g>
	<g>
		<path d="M444.876,493.792l-9.682-9.682c7.728-5.848,12.806-15.027,12.806-25.443c0-17.646-14.354-32-32-32h-21.333
			c-5.896,0-10.667,4.771-10.667,10.667v64c0,5.896,4.771,10.667,10.667,10.667s10.667-4.771,10.667-10.667v-10.667h6.25
			l18.208,18.208c2.083,2.083,4.813,3.125,7.542,3.125s5.458-1.042,7.542-3.125C449.043,504.708,449.043,497.958,444.876,493.792z
			 M416,469.333h-10.667V448H416c5.875,0,10.667,4.781,10.667,10.667S421.875,469.333,416,469.333z"/>
	</g>
</g>
<g>
</g>
<g>
</g>
<g>
</g>
<g>
</g>
<g>
</g>
<g>
</g>
<g>
</g>
<g>
</g>
<g>
</g>
<g>
</g>
<g>
</g>
<g>
</g>
<g>
</g>
<g>
</g>
<g>
</g>
</svg>
