<?xml version="1.0" encoding="iso-8859-1"?>
<!-- Generator: Adobe Illustrator 19.0.0, SVG Export Plug-In . SVG Version: 6.00 Build 0)  -->
<svg version="1.1" id="Capa_1" xmlns="http://www.w3.org/2000/svg" xmlns:xlink="http://www.w3.org/1999/xlink" x="0px" y="0px"
	 viewBox="0 0 512.001 512.001" style="enable-background:new 0 0 512.001 512.001;" xml:space="preserve">
<g>
	<g>
		<path d="M501.333,192h-42.667c-5.896,0-10.667,4.771-10.667,10.667v42.667H341.333v-10.667c0-3.883-0.798-7.559-2.07-11.005
			c0.693,0.138,1.387,0.339,2.07,0.339c4.469,0,8.625-2.823,10.115-7.292c1.865-5.594-1.156-11.635-6.74-13.49l-14.042-4.681v-9.521
			l7.292,2.431c1.125,0.375,2.26,0.552,3.375,0.552c4.469,0,8.625-2.823,10.115-7.292c1.865-5.594-1.156-11.635-6.74-13.49
			l-14.042-4.681v-9.521l7.292,2.431c1.125,0.375,2.26,0.552,3.375,0.552c4.469,0,8.625-2.823,10.115-7.292
			c1.865-5.594-1.156-11.635-6.74-13.49l-14.042-4.681v-9.521l7.292,2.431c1.125,0.375,2.26,0.552,3.375,0.552
			c4.469,0,8.625-2.823,10.115-7.292c1.865-5.594-1.156-11.635-6.74-13.49l-14.042-4.681v-9.521l7.292,2.431
			c1.125,0.375,2.26,0.552,3.375,0.552c4.469,0,8.625-2.823,10.115-7.292c1.865-5.594-1.156-11.635-6.74-13.49l-14.042-4.681V55.677
			c6.499-5.862,10.667-14.256,10.667-23.677c0-17.646-14.354-32-32-32s-32,14.354-32,32c0,9.421,4.168,17.815,10.667,23.677v0.639
			l-7.292-2.431c-5.656-1.854-11.635,1.156-13.49,6.74c-1.865,5.594,1.156,11.635,6.74,13.49L288,78.797v9.521l-7.292-2.431
			c-5.656-1.865-11.635,1.156-13.49,6.74c-1.865,5.594,1.156,11.635,6.74,13.49l14.042,4.68v9.521l-7.292-2.431
			c-5.656-1.875-11.635,1.156-13.49,6.74c-1.865,5.594,1.156,11.635,6.74,13.49l14.042,4.68v9.521l-7.292-2.431
			c-5.656-1.896-11.635,1.167-13.49,6.74c-1.865,5.594,1.156,11.635,6.74,13.49l14.042,4.68v9.521l-7.292-2.431
			c-5.656-1.854-11.635,1.156-13.49,6.74c-1.865,5.594,1.156,11.635,6.74,13.49l14.042,4.68v4.194
			c-6.499,5.862-10.667,14.257-10.667,23.677v10.667h-42.667V224c0-25.754-18.353-47.298-42.667-52.254v-33.079
			C192,97.5,158.5,64,117.333,64H74.667C33.5,64,0,97.5,0,138.667v298.667C0,478.5,33.5,512,74.667,512h42.667
			C158.5,512,192,478.5,192,437.333v-33.079c24.314-4.956,42.667-26.5,42.667-52.254v-42.667H448V352
			c0,5.896,4.771,10.667,10.667,10.667h42.667c5.896,0,10.667-4.771,10.667-10.667V202.667C512,196.771,507.229,192,501.333,192z
			 M170.667,302.586l-36.802,18.561c-5.26,2.646-7.375,9.063-4.719,14.323c1.875,3.719,5.625,5.865,9.531,5.865
			c1.615,0,3.25-0.365,4.792-1.146l27.198-13.717v61.448l-36.802,18.561c-5.26,2.646-7.375,9.063-4.719,14.323
			c1.875,3.719,5.625,5.865,9.531,5.865c1.615,0,3.25-0.365,4.792-1.146l27.198-13.717v25.53c0,29.406-23.927,53.333-53.333,53.333
			H74.667c-29.406,0-53.333-23.927-53.333-53.333v-25.41l27.229,13.618c1.531,0.76,3.156,1.125,4.76,1.125
			c3.917,0,7.677-2.156,9.552-5.896c2.635-5.271,0.5-11.677-4.771-14.313l-36.771-18.391v-61.47l27.229,13.611
			c1.531,0.76,3.156,1.125,4.76,1.125c3.917,0,7.688-2.156,9.552-5.896c2.635-5.271,0.5-11.677-4.771-14.313l-36.771-18.38v-61.48
			l27.229,13.611c1.531,0.76,3.156,1.125,4.76,1.125c3.917,0,7.688-2.156,9.552-5.896c2.635-5.271,0.5-11.677-4.771-14.313
			l-36.771-18.38v-61.484l27.229,13.615c1.531,0.76,3.156,1.125,4.76,1.125c3.917,0,7.677-2.156,9.552-5.896
			c2.635-5.271,0.5-11.677-4.771-14.313l-36.135-18.068c3.151-26.423,25.441-47.057,52.698-47.057h42.667
			c27.207,0,49.469,20.56,52.684,46.913l-36.152,18.233c-5.26,2.646-7.375,9.063-4.719,14.323c1.875,3.719,5.625,5.865,9.531,5.865
			c1.615,0,3.25-0.365,4.792-1.146l27.198-13.717v61.446h0.002l-36.802,18.561c-5.26,2.646-7.375,9.063-4.719,14.323
			c1.875,3.719,5.625,5.865,9.531,5.865c1.615,0,3.25-0.365,4.792-1.146l27.198-13.717V302.586z M213.333,352
			c0,13.888-8.944,25.617-21.333,30.035v-188.07c12.389,4.418,21.333,16.147,21.333,30.035V352z M298.667,234.667
			c0-5.885,4.781-10.667,10.667-10.667c5.885,0,10.667,4.781,10.667,10.667v10.667h-21.333L298.667,234.667L298.667,234.667z
			 M309.333,21.333C315.219,21.333,320,26.115,320,32s-4.781,10.667-10.667,10.667c-5.885,0-10.667-4.781-10.667-10.667
			S303.448,21.333,309.333,21.333z M448,288H234.667v-21.333H448V288z M490.667,341.333h-21.333v-128h21.333V341.333z"/>
	</g>
</g>
<g>
</g>
<g>
</g>
<g>
</g>
<g>
</g>
<g>
</g>
<g>
</g>
<g>
</g>
<g>
</g>
<g>
</g>
<g>
</g>
<g>
</g>
<g>
</g>
<g>
</g>
<g>
</g>
<g>
</g>
</svg>
