<?xml version="1.0" encoding="iso-8859-1"?>
<!-- Generator: Adobe Illustrator 19.0.0, SVG Export Plug-In . SVG Version: 6.00 Build 0)  -->
<svg version="1.1" id="Capa_1" xmlns="http://www.w3.org/2000/svg" xmlns:xlink="http://www.w3.org/1999/xlink" x="0px" y="0px"
	 viewBox="0 0 512 512" style="enable-background:new 0 0 512 512;" xml:space="preserve">
<g>
	<g>
		<path d="M256,192c-35.292,0-64,28.708-64,64c0,5.896,4.771,10.667,10.667,10.667s10.667-4.771,10.667-10.667
			c0-23.531,19.135-42.667,42.667-42.667c5.896,0,10.667-4.771,10.667-10.667C266.667,196.771,261.896,192,256,192z"/>
	</g>
</g>
<g>
	<g>
		<path d="M256,0C114.844,0,0,114.844,0,256s114.844,256,256,256s256-114.844,256-256S397.156,0,256,0z M256,21.333
			c60.85,0,116.184,23.477,157.924,61.599l-15.271,15.276C360.374,63.592,310.052,42.667,256,42.667
			c-54.279,0-104.661,20.852-142.892,55.358L98.044,82.961C139.788,44.822,195.134,21.333,256,21.333z M233.086,360.047
			c7.4,1.63,15.031,2.62,22.914,2.62c7.882,0,15.512-0.988,22.91-2.618c-1.031,6.599-1.577,13.276-1.577,19.993
			c0,22.573,6.148,44.374,17.242,63.848C282.027,446.495,269.145,448,256,448c-13.25,0-26.141-1.464-38.642-3.999
			c11.141-19.505,17.309-41.346,17.309-63.96C234.667,373.335,234.12,366.656,233.086,360.047z M256,341.333
			c-47.052,0-85.333-38.281-85.333-85.333s38.281-85.333,85.333-85.333s85.333,38.281,85.333,85.333S303.052,341.333,256,341.333z
			 M213.333,380.042c0,20.839-6.048,40.978-17.319,58.47c-56.991-18.665-102.146-63.645-120.816-123.741
			c25.286-15.628,56.661-19.967,85.348-12.111c10.41,21.19,27.513,38.306,48.69,48.738
			C211.807,360.758,213.333,370.345,213.333,380.042z M302.772,351.393c21.164-10.43,38.256-27.531,48.668-48.706
			c30.017-8.139,63.25-2.632,87.112,13c-19.186,58.669-65.688,103.758-122.677,122.637c-11.188-17.444-17.208-37.513-17.208-58.283
			C298.667,370.315,300.194,360.727,302.772,351.393z M339.51,190.452c-19.547-24.841-49.523-41.119-83.51-41.119
			c-33.977,0-63.945,16.268-83.493,41.098l-41.329,16.548c-19.583,7.813-41.542,8.385-61.313,1.729
			C91.229,124.333,168.115,64,256,64c87.333,0,164.198,60.344,186.083,144.729c-19.729,6.656-41.688,6.083-61.26-1.75
			L339.51,190.452z M21.333,256c0-60.866,23.488-116.212,61.628-157.956l15.003,15.003c-25.053,27.586-43.18,61.781-50.995,100.151
			c-0.594,2.896,0.125,5.917,1.833,8.323c1.188,1.656,2.844,2.938,4.719,3.698c27.031,11.969,58.094,12.531,85.583,1.573
			l16.914-6.771c-4.081,11.293-6.685,23.297-6.685,35.979c0,7.948,1.018,15.637,2.676,23.094
			c-31.646-4.917-64.689,1.855-92.717,20.625l-3.208,2.646c-3.229,2.667-4.604,6.979-3.5,11.021
			c8.876,32.697,24.801,61.516,45.741,85.31l-15.327,15.301C44.836,372.247,21.333,316.885,21.333,256z M256,490.667
			c-60.846,0-116.176-23.474-157.915-61.591l15.076-15.049c37.697,34.849,87.863,55.307,142.84,55.307
			c53.949,0,104.53-20.717,142.923-55.327l15.033,15.033C372.212,467.178,316.866,490.667,256,490.667z M429.039,413.956
			L413.983,398.9c21.366-23.488,37.788-51.76,46.975-83.494c1.115-3.854-0.031-8.01-2.958-10.75l-6.167-5.583
			c-26.922-17.952-60.055-24.863-91.848-19.964c1.66-7.462,2.681-15.155,2.681-23.109c0-12.682-2.604-24.686-6.685-35.979
			l16.924,6.771c13.083,5.229,26.854,7.875,40.927,7.875c15.646,0,30.813-3.25,45.104-9.656c4.573-2.052,7.104-7.01,6.073-11.927
			c-8.038-38.23-26.223-72.32-51.216-99.848l15.216-15.223c38.156,41.749,61.656,97.107,61.656,157.987
			C490.667,316.866,467.178,372.212,429.039,413.956z"/>
	</g>
</g>
<g>
</g>
<g>
</g>
<g>
</g>
<g>
</g>
<g>
</g>
<g>
</g>
<g>
</g>
<g>
</g>
<g>
</g>
<g>
</g>
<g>
</g>
<g>
</g>
<g>
</g>
<g>
</g>
<g>
</g>
</svg>
