<?xml version="1.0" encoding="iso-8859-1"?>
<!-- Generator: Adobe Illustrator 19.0.0, SVG Export Plug-In . SVG Version: 6.00 Build 0)  -->
<svg version="1.1" id="Capa_1" xmlns="http://www.w3.org/2000/svg" xmlns:xlink="http://www.w3.org/1999/xlink" x="0px" y="0px"
	 viewBox="0 0 512 512" style="enable-background:new 0 0 512 512;" xml:space="preserve">
<g>
	<g>
		<path d="M256,0C114.844,0,0,114.844,0,256s114.844,256,256,256s256-114.844,256-256S397.156,0,256,0z M256,490.667
			C126.604,490.667,21.333,385.396,21.333,256S126.604,21.333,256,21.333S490.667,126.604,490.667,256S385.396,490.667,256,490.667z
			"/>
	</g>
</g>
<g>
	<g>
		<path d="M256,42.667C138.365,42.667,42.667,138.365,42.667,256S138.365,469.333,256,469.333S469.333,373.635,469.333,256
			S373.635,42.667,256,42.667z M256,64c84.388,0,156.083,54.806,181.763,130.634C390.46,179.306,325.771,170.667,256,170.667
			c-69.78,0-134.469,8.646-181.764,23.971C99.914,118.807,171.611,64,256,64z M67.271,290.484l29.115-10.724
			c14.354-5.281,30.615-1.719,41.427,9.094s14.375,27.083,9.094,41.427l-23.628,64.125
			C94.729,367.018,74.656,330.975,67.271,290.484z M256,448c-20.984,0-41.137-3.505-60.053-9.756l24.335-52.723
			c6.396-13.885,20.417-22.854,35.719-22.854s29.323,8.969,35.719,22.854l24.335,52.723C297.137,444.495,276.984,448,256,448z
			 M388.717,394.41l-23.624-64.129c-5.281-14.344-1.708-30.615,9.094-41.427c10.823-10.802,27.063-14.396,41.427-9.094l29.113,10.73
			C437.341,330.98,417.268,367.025,388.717,394.41z M422.99,259.74c-22.125-8.167-47.208-2.656-63.885,14.031
			s-22.177,41.76-14.031,63.885l26.315,71.435c-10.983,8.299-22.841,15.448-35.475,21.263l-24.819-53.771
			c-9.875-21.417-31.5-35.25-55.094-35.25s-45.219,13.833-55.094,35.25l-24.819,53.771c-12.635-5.815-24.495-12.967-35.479-21.267
			l26.319-71.431c8.146-22.125,2.646-47.198-14.031-63.885c-16.688-16.677-41.76-22.177-63.885-14.031l-24.366,8.975
			C64.366,264.492,64,260.292,64,256c0-12.401,1.284-24.496,3.54-36.249C112.694,202.371,182.359,192,256,192
			c73.629,0,143.281,10.372,188.458,27.749C446.716,231.503,448,243.599,448,256c0,4.294-0.366,8.496-0.645,12.72L422.99,259.74z"/>
	</g>
</g>
<g>
	<g>
		<path d="M256,213.333c-23.531,0-42.667,19.135-42.667,42.667c0,23.532,19.135,42.667,42.667,42.667s42.667-19.135,42.667-42.667
			S279.531,213.333,256,213.333z M256,277.333c-11.76,0-21.333-9.573-21.333-21.333s9.573-21.333,21.333-21.333
			s21.333,9.573,21.333,21.333S267.76,277.333,256,277.333z"/>
	</g>
</g>
<g>
</g>
<g>
</g>
<g>
</g>
<g>
</g>
<g>
</g>
<g>
</g>
<g>
</g>
<g>
</g>
<g>
</g>
<g>
</g>
<g>
</g>
<g>
</g>
<g>
</g>
<g>
</g>
<g>
</g>
</svg>
