<?xml version="1.0" encoding="iso-8859-1"?>
<!-- Generator: Adobe Illustrator 19.0.0, SVG Export Plug-In . SVG Version: 6.00 Build 0)  -->
<svg version="1.1" id="Capa_1" xmlns="http://www.w3.org/2000/svg" xmlns:xlink="http://www.w3.org/1999/xlink" x="0px" y="0px"
	 viewBox="0 0 512 512" style="enable-background:new 0 0 512 512;" xml:space="preserve">
<g>
	<g>
		<path d="M402.917,236.302l-26.209-78.583c-10.188-30.531-38.646-51.052-70.833-51.052H185.438
			c-58.708,0-110.75,35.229-132.542,89.74c-6.792,16.938-10.229,34.781-10.229,53.031c0,27.146,22.083,49.229,49.229,49.229h266.063
			c26.125,0,47.375-21.25,47.375-47.375C405.334,246.25,404.521,241.229,402.917,236.302z M357.958,277.333H91.896
			c-15.375,0-27.896-12.51-27.896-27.896c0-15.521,2.917-30.698,8.688-45.104C91.25,157.969,135.5,128,185.438,128h120.438
			c23,0,43.313,14.656,50.583,36.469L382.646,243c0.896,2.719,1.354,5.51,1.354,8.292C384,265.646,372.313,277.333,357.958,277.333z
			"/>
	</g>
</g>
<g>
	<g>
		<path d="M501.333,149.333H480c-5.604,0-10.25,4.323-10.646,9.906c-0.038,0.499-3.667,45.814-29.471,53.03l-22.695-68.04
			C401.188,96.24,356.458,64,305.875,64H185.438c-76.25,0-143.833,45.75-172.146,116.542C4.479,202.542,0,225.719,0,249.438
			c0,50.667,41.229,91.896,91.896,91.896H352c67.146,0,117.958,99.771,118.458,100.771c1.813,3.615,5.5,5.896,9.542,5.896h21.333
			c5.896,0,10.667-4.771,10.667-10.667V160C512,154.104,507.229,149.333,501.333,149.333z M91.896,319.998V320
			c-38.917,0-70.563-31.656-70.563-70.563c0-20.99,3.958-41.5,11.75-60.969c25.063-62.656,84.875-103.135,152.354-103.135h120.438
			c41.375,0,77.979,26.385,91.063,65.646l26.188,78.51c2.354,7.188,3.542,14.521,3.542,21.802c0,37.885-30.813,68.708-68.708,68.708
			H91.896z M490.667,426.667h-4.25c-9.926-17.978-42.359-71.186-88.84-94.923C427.316,317.024,448,286.657,448,251.292
			c0-6.15-0.879-12.296-2.156-18.418c30.441-8.217,40.438-44.357,43.51-62.207h1.313V426.667z"/>
	</g>
</g>
<g>
	<g>
		<path d="M188.876,173.792c-4.168-4.167-10.918-4.167-15.084,0l-64,64c-4.167,4.167-4.167,10.917,0,15.083
			c2.083,2.083,4.813,3.125,7.542,3.125c2.729,0,5.458-1.042,7.542-3.125l64-64C193.043,184.708,193.043,177.958,188.876,173.792z"
			/>
	</g>
</g>
<g>
	<g>
		<path d="M135.541,173.792c-4.167-4.167-10.917-4.167-15.083,0l-21.333,21.333c-4.167,4.167-4.167,10.917,0,15.083
			c2.083,2.083,4.813,3.125,7.542,3.125s5.458-1.041,7.541-3.125l21.333-21.333C139.708,184.708,139.708,177.958,135.541,173.792z"
			/>
	</g>
</g>
<g>
</g>
<g>
</g>
<g>
</g>
<g>
</g>
<g>
</g>
<g>
</g>
<g>
</g>
<g>
</g>
<g>
</g>
<g>
</g>
<g>
</g>
<g>
</g>
<g>
</g>
<g>
</g>
<g>
</g>
</svg>
