<?xml version="1.0" encoding="iso-8859-1"?>
<!-- Generator: Adobe Illustrator 19.0.0, SVG Export Plug-In . SVG Version: 6.00 Build 0)  -->
<svg version="1.1" id="Capa_1" xmlns="http://www.w3.org/2000/svg" xmlns:xlink="http://www.w3.org/1999/xlink" x="0px" y="0px"
	 viewBox="0 0 512.001 512.001" style="enable-background:new 0 0 512.001 512.001;" xml:space="preserve">
<g>
	<g>
		<path d="M331.208,308.438c-6.344-3.906-14.104-4.281-20.75-0.927c-1.427,0.719-2.667,1.729-3.646,2.979l-24.031,30.844h-53.573
			l-24.02-30.834c-0.979-1.26-2.229-2.281-3.656-2.99c-6.656-3.344-14.417-2.969-20.75,0.938
			c-6.333,3.917-10.115,10.698-10.115,18.146v110.74c0,5.896,4.771,10.667,10.667,10.667H192v53.333
			c0,5.896,4.771,10.667,10.667,10.667h106.667c5.896,0,10.667-4.771,10.667-10.667V448h10.667c5.896,0,10.667-4.771,10.667-10.667
			v-110.74C341.333,319.146,337.552,312.354,331.208,308.438z M298.667,490.667h-85.333V448h85.333V490.667z M320,426.667H192
			l0.01-98.375l23.573,30.26c2.021,2.594,5.125,4.115,8.417,4.115h63.99c3.292,0,6.396-1.521,8.417-4.104L320,328.281V426.667z"/>
	</g>
</g>
<g>
	<g>
		<path d="M425.479,5.781C423.656,2.229,420,0,416,0H309.333c-3.448,0-6.677,1.667-8.677,4.469L256,66.987L211.344,4.469
			c-2-2.802-5.229-4.469-8.677-4.469H96c-4,0-7.656,2.229-9.479,5.781C84.688,9.333,85,13.615,87.323,16.865l94.621,132.469h-0.611
			c-5.896,0-10.667,4.771-10.667,10.667v57.406c0,8.146,4.521,15.458,11.792,19.083l30.875,15.438v25.406
			c0,11.76,9.573,21.333,21.333,21.333h42.667c11.76,0,21.333-9.573,21.333-21.333v-25.406l30.865-15.438
			c7.281-3.625,11.802-10.938,11.802-19.083V160c0-5.896-4.771-10.667-10.667-10.667h-0.611l94.621-132.469
			C427,13.615,427.313,9.333,425.479,5.781z M116.729,21.333h80.448l91.432,128h-80.457L116.729,21.333z M320,217.406
			l-36.771,18.385c-3.615,1.813-5.896,5.5-5.896,9.542v32h-42.667v-32c0-4.042-2.281-7.729-5.896-9.542L192,217.406v-46.74h128
			V217.406z M309.333,141.654l-40.229-56.32l45.719-64h80.448L309.333,141.654z"/>
	</g>
</g>
<g>
	<g>
		<circle cx="256" cy="202.67" r="10.667"/>
	</g>
</g>
<g>
</g>
<g>
</g>
<g>
</g>
<g>
</g>
<g>
</g>
<g>
</g>
<g>
</g>
<g>
</g>
<g>
</g>
<g>
</g>
<g>
</g>
<g>
</g>
<g>
</g>
<g>
</g>
<g>
</g>
</svg>
