<?xml version="1.0" encoding="iso-8859-1"?>
<!-- Generator: Adobe Illustrator 19.0.0, SVG Export Plug-In . SVG Version: 6.00 Build 0)  -->
<svg version="1.1" id="Capa_1" xmlns="http://www.w3.org/2000/svg" xmlns:xlink="http://www.w3.org/1999/xlink" x="0px" y="0px"
	 viewBox="0 0 512 512" style="enable-background:new 0 0 512 512;" xml:space="preserve">
<g>
	<g>
		<path d="M160.254,16.77C151.515,6.125,138.598,0,124.817,0h-7.271C92.275,0,71.713,20.563,71.713,45.833v36.333
			c0,25.272,20.562,45.834,45.833,45.834c21.771,0,40.677-15.5,44.948-36.854l7.26-36.313
			C172.462,41.312,169.004,27.437,160.254,16.77z M148.838,50.645l-7.26,36.313c-2.281,11.417-12.396,19.708-24.031,19.708
			c-13.51,0-24.5-11-24.5-24.5V45.833h-0.001c0-13.5,10.99-24.5,24.5-24.5h7.271c7.365,0,14.271,3.271,18.948,8.979
			C148.432,36,150.286,43.416,148.838,50.645z"/>
	</g>
</g>
<g>
	<g>
		<path d="M433.463,356.229c-9.219-8.438-21.688-12.646-34.073-11.479l-5.454,0.453c5.305-13.266,10.714-27.145,11.281-52.897
			l3.236,3.236c2.083,2.083,4.813,3.125,7.542,3.125s5.458-1.042,7.542-3.125c4.167-4.167,4.167-10.917,0-15.083l-21.333-21.333
			c-4.167-4.167-10.917-4.167-15.083,0l-21.333,21.333c-4.167,4.167-4.167,10.917,0,15.083c4.167,4.167,10.917,4.167,15.083,0
			l2.888-2.888c-0.617,21.247-4.939,32.901-9.669,44.721c-1.271,3.177-2.543,6.401-3.764,9.786l-53.513,4.44
			c0.799-2.108,1.589-4.224,2.423-6.31c5.316-13.296,10.747-27.176,11.316-52.986l3.236,3.236c2.083,2.083,4.813,3.125,7.542,3.125
			s5.458-1.042,7.542-3.125c4.167-4.167,4.167-10.917,0-15.083l-21.333-21.333c-4.167-4.167-10.917-4.167-15.083,0l-21.333,21.333
			c-4.167,4.167-4.167,10.917,0,15.083c4.167,4.167,10.917,4.167,15.083,0l2.888-2.888c-0.617,21.247-4.939,32.901-9.669,44.721
			c-2.038,5.098-4.095,10.279-5.898,16.159l-53.566,4.444c1.431-4.401,2.97-8.586,4.611-12.686
			c5.316-13.296,10.747-27.176,11.316-52.986l3.236,3.236c2.083,2.083,4.813,3.125,7.542,3.125s5.458-1.042,7.542-3.125
			c4.167-4.167,4.167-10.917,0-15.083l-21.333-21.333c-4.167-4.167-10.917-4.167-15.083,0l-21.333,21.333
			c-4.167,4.167-4.167,10.917,0,15.083c4.167,4.167,10.917,4.167,15.083,0l2.888-2.888c-0.617,21.247-4.939,32.901-9.669,44.721
			c-2.737,6.846-5.51,13.833-7.646,22.499l-26.625,2.21l-18.646-162.646c-0.635-4.375-2.01-8.854-3.719-12.417
			c-5.531-17.917-20.219-31.75-38.688-36.208c-8.542-2-15.313-2.104-24.563,0.104c-23.198,5.583-39.656,25.542-40.656,50.938
			c-0.125,0.708-0.219,1.563-0.219,2.208c0,42.396,5.219,84.771,15.51,125.917l19.833,79.354
			c5.604,22.458,20.708,41.271,41.417,51.646c10.948,5.458,23.188,8.354,35.417,8.354h54.594c2.271,8.292,3.896,18.04,3.896,32
			c0,5.896,4.771,10.667,10.667,10.667S256,507.229,256,501.333c0-13.276-1.272-23.438-3.161-32h52.599
			c2.271,8.292,3.896,18.04,3.896,32c0,5.896,4.771,10.667,10.667,10.667s10.667-4.771,10.667-10.667
			c0-13.276-1.272-23.438-3.161-32h26.536c8.628,0,16.958-1.391,25.004-3.546c2.828,9.025,4.954,19.53,4.954,35.546
			c0,5.896,4.771,10.667,10.667,10.667s10.667-4.771,10.667-10.667c0-19.581-2.72-32.505-6.217-43.233
			c21.512-11.35,38.523-30.609,46.592-54.829c1.521-4.542,2.292-9.292,2.292-14.104
			C447.994,376.667,442.702,364.667,433.463,356.229z M176.171,447.999V448c-8.938,0-17.885-2.104-25.875-6.104
			c-15.135-7.583-26.167-21.333-30.271-37.729l-19.833-79.354c-9.865-39.479-14.865-80.104-15.073-118.708
			c0.167-0.771,0.208-2.667,0.208-3.438c0-14.792,10.083-27.542,24.75-31.063c2.667-0.625,5.042-0.938,7.25-0.938
			s4.583,0.313,7.479,1c10.823,2.604,19.604,10.896,23.406,22.917c1.344,2.958,2.167,5.542,2.469,7.583l18.656,162.646
			c1.625,11.271,11.906,19.354,22.948,18.229l21.569-1.759c-0.307,4.137-0.527,8.491-0.527,13.384
			c0,26.055,4.781,40.41,9.861,53.333H176.171z M246.133,448c-0.521-1.327-1.044-2.651-1.566-3.958
			c-5.094-12.729-9.906-24.771-9.906-49.375c0-5.714,0.311-10.62,0.773-15.145l53.616-4.375c-0.664,5.733-1.056,12.147-1.056,19.52
			c0,26.055,4.781,40.41,9.861,53.333H246.133z M354.036,448H320.8c-0.521-1.327-1.044-2.651-1.566-3.958
			c-5.094-12.729-9.906-24.771-9.906-49.375c0-8.551,0.723-15.24,1.694-21.311l53.578-4.371c-1.188,7.211-1.939,15.527-1.939,25.682
			c0,24.52,4.241,38.671,8.971,51.026C365.935,447.063,360.089,448,354.036,448z M425.473,396.521
			c-5.983,17.957-18.346,32.309-33.965,41.294c-4.093-10.775-7.514-22.523-7.514-43.148c0-11.51,1.117-20.121,2.759-27.49
			L401.182,366c0.042,0,0.073,0,0.104,0c6.531-0.542,12.906,1.521,17.792,5.979c4.896,4.458,7.583,10.563,7.583,17.188
			C426.661,391.688,426.265,394.146,425.473,396.521z"/>
	</g>
</g>
<g>
</g>
<g>
</g>
<g>
</g>
<g>
</g>
<g>
</g>
<g>
</g>
<g>
</g>
<g>
</g>
<g>
</g>
<g>
</g>
<g>
</g>
<g>
</g>
<g>
</g>
<g>
</g>
<g>
</g>
</svg>
