<?xml version="1.0" encoding="iso-8859-1"?>
<!-- Generator: Adobe Illustrator 19.0.0, SVG Export Plug-In . SVG Version: 6.00 Build 0)  -->
<svg version="1.1" id="Capa_1" xmlns="http://www.w3.org/2000/svg" xmlns:xlink="http://www.w3.org/1999/xlink" x="0px" y="0px"
	 viewBox="0 0 512 512" style="enable-background:new 0 0 512 512;" xml:space="preserve">
<g>
	<g>
		<path d="M255.999,64c-105.875,0-192,86.125-192,192s86.125,192,192,192s192-86.125,192-192S361.874,64,255.999,64z
			 M255.999,426.667c-94.104,0-170.667-76.563-170.667-170.667S161.895,85.333,255.999,85.333S426.666,161.896,426.666,256
			S350.103,426.667,255.999,426.667z"/>
	</g>
</g>
<g>
	<g>
		<path d="M89.984,82.985c4.169-4.344,4.169-11.382,0-15.727c-4.169-4.344-10.922-4.344-15.09,0
			c-99.859,104.07-99.859,273.414,0,377.483c2.084,2.172,4.815,3.258,7.545,3.258s5.461-1.086,7.545-3.258
			c4.169-4.344,4.169-11.382,0-15.727C-1.559,333.612-1.559,178.388,89.984,82.985z"/>
	</g>
</g>
<g>
	<g>
		<path d="M437.105,67.258c-4.169-4.344-10.922-4.344-15.09,0c-4.169,4.344-4.169,11.382,0,15.727
			c91.543,95.403,91.543,250.627,0,346.03c-4.169,4.344-4.169,11.382,0,15.727c2.084,2.172,4.815,3.258,7.545,3.258
			c2.73,0,5.461-1.086,7.545-3.258C536.964,340.672,536.964,171.328,437.105,67.258z"/>
	</g>
</g>
<g>
	<g>
		<path d="M266.666,170.667h-42.667c-5.896,0-10.667,4.771-10.667,10.667v149.333c0,5.896,4.771,10.667,10.667,10.667
			s10.667-4.771,10.667-10.667v-53.333h32c29.416-0.001,53.333-23.917,53.333-53.334S296.082,170.667,266.666,170.667z M266.666,256
			h-32v-64h32c17.646,0,32,14.354,32,32S284.312,256,266.666,256z"/>
	</g>
</g>
<g>
</g>
<g>
</g>
<g>
</g>
<g>
</g>
<g>
</g>
<g>
</g>
<g>
</g>
<g>
</g>
<g>
</g>
<g>
</g>
<g>
</g>
<g>
</g>
<g>
</g>
<g>
</g>
<g>
</g>
</svg>
