<?xml version="1.0" encoding="iso-8859-1"?>
<!-- Generator: Adobe Illustrator 19.0.0, SVG Export Plug-In . SVG Version: 6.00 Build 0)  -->
<svg version="1.1" id="Capa_1" xmlns="http://www.w3.org/2000/svg" xmlns:xlink="http://www.w3.org/1999/xlink" x="0px" y="0px"
	 viewBox="0 0 469.334 469.334" style="enable-background:new 0 0 469.334 469.334;" xml:space="preserve">
<g>
	<g>
		<path d="M277.333,42.667H192c-105.875,0-192,86.125-192,192s86.125,192,192,192h85.333C300.854,426.667,320,407.521,320,384
			V85.333C320,61.812,300.854,42.667,277.333,42.667z M277.334,405.333H192c-94.104,0-170.667-76.563-170.667-170.667
			S97.896,64,192,64h85.333c11.771,0,21.333,9.563,21.333,21.333V384h0.001C298.667,395.771,289.104,405.333,277.334,405.333z"/>
	</g>
</g>
<g>
	<g>
		<path d="M458.667,106.666H352c-5.896,0-10.667,4.771-10.667,10.667S346.104,128,352,128h106.667
			c5.896,0,10.667-4.771,10.667-10.667S464.563,106.666,458.667,106.666z"/>
	</g>
</g>
<g>
	<g>
		<path d="M458.667,224H352c-5.896,0-10.667,4.771-10.667,10.667s4.771,10.667,10.667,10.667h106.667
			c5.896,0,10.667-4.771,10.667-10.667S464.563,224,458.667,224z"/>
	</g>
</g>
<g>
	<g>
		<path d="M458.667,341.333H352c-5.896,0-10.667,4.771-10.667,10.667s4.771,10.667,10.667,10.667h106.667
			c5.896,0,10.667-4.771,10.667-10.667C469.333,346.104,464.563,341.333,458.667,341.333z"/>
	</g>
</g>
<g>
</g>
<g>
</g>
<g>
</g>
<g>
</g>
<g>
</g>
<g>
</g>
<g>
</g>
<g>
</g>
<g>
</g>
<g>
</g>
<g>
</g>
<g>
</g>
<g>
</g>
<g>
</g>
<g>
</g>
</svg>
