<?xml version="1.0" encoding="iso-8859-1"?>
<!-- Generator: Adobe Illustrator 19.0.0, SVG Export Plug-In . SVG Version: 6.00 Build 0)  -->
<svg version="1.1" id="Capa_1" xmlns="http://www.w3.org/2000/svg" xmlns:xlink="http://www.w3.org/1999/xlink" x="0px" y="0px"
	 viewBox="0 0 512 512" style="enable-background:new 0 0 512 512;" xml:space="preserve">
<g>
	<g>
		<path d="M508.625,318.813l-11.583-34.729c-5.021-15.125-13.667-29.115-24.979-40.458c-19.563-19.531-45.542-30.292-73.167-30.292
			H297.013l-5.034-30.25c-0.521-3.146,0.333-6.208,2.375-8.646c2.063-2.427,4.958-3.771,8.146-3.771h29.729
			c16.271,0,30.875-9.042,38.146-23.583l12.5-24.979c1.646-3.302,1.479-7.229-0.458-10.375c-1.958-3.146-5.396-5.063-9.083-5.063
			H138.667c-3.688,0-7.125,1.917-9.063,5.063c-1.958,3.135-2.125,7.063-0.479,10.375l12.479,24.99
			c7.292,14.542,21.917,23.573,38.167,23.573h26.167c5.208,0,9.479,1.635,11.979,4.604c1.854,2.188,2.583,4.885,2.104,7.813
			l-5.035,30.25H113.104c-27.625,0-53.604,10.76-73.167,30.292c0,0,0,0.01,0,0.021c-11.313,11.323-19.958,25.313-24.979,40.427
			l-11.583,34.74C1.146,325.531,0,332.531,0,339.604c0,36.24,29.479,65.729,65.729,65.729h380.542
			c36.25,0,65.729-29.49,65.729-65.729C512,332.531,510.854,325.531,508.625,318.813z M205.938,149.333h-26.167
			c-8.125,0-15.438-4.521-19.083-11.792L155.917,128h200.146l-4.771,9.542c-3.625,7.271-10.938,11.792-19.063,11.792H302.5
			c-9.417,0-18.313,4.125-24.417,11.323c-6.083,7.188-8.688,16.635-7.146,25.927l4.454,26.75h-38.786l4.457-26.76
			c1.5-9.052-1-18.198-6.875-25.104C227.563,153.646,217.521,149.333,205.938,149.333z M446.271,384H65.729
			c-24.479,0-44.396-19.917-44.396-44.396c0-4.781,0.771-9.5,2.292-14.042l11.583-34.75c3.979-12,10.833-23.094,19.813-32.094
			c15.542-15.51,36.167-24.052,58.083-24.052h285.792c21.917,0,42.563,8.542,58.083,24.042c8.979,9,15.833,20.104,19.813,32.115
			l11.583,34.74c1.521,4.542,2.292,9.26,2.292,14.042C490.667,364.083,470.75,384,446.271,384z"/>
	</g>
</g>
<g>
	<g>
		<path d="M124.875,259.125c-4.167-4.167-10.917-4.167-15.083,0l-64,64c-4.167,4.167-4.167,10.917,0,15.083
			c2.083,2.083,4.813,3.125,7.542,3.125s5.458-1.042,7.542-3.125l64-64C129.042,270.042,129.042,263.292,124.875,259.125z"/>
	</g>
</g>
<g>
	<g>
		<path d="M146.209,301.792c-4.167-4.167-10.917-4.167-15.084,0l-42.667,42.667c-4.167,4.167-4.167,10.917,0,15.083
			c2.083,2.083,4.813,3.125,7.542,3.125s5.458-1.042,7.542-3.125l42.667-42.667C150.376,312.708,150.376,305.958,146.209,301.792z"
			/>
	</g>
</g>
<g>
</g>
<g>
</g>
<g>
</g>
<g>
</g>
<g>
</g>
<g>
</g>
<g>
</g>
<g>
</g>
<g>
</g>
<g>
</g>
<g>
</g>
<g>
</g>
<g>
</g>
<g>
</g>
<g>
</g>
</svg>
