<?xml version="1.0" encoding="iso-8859-1"?>
<!-- Generator: Adobe Illustrator 19.0.0, SVG Export Plug-In . SVG Version: 6.00 Build 0)  -->
<svg version="1.1" id="Capa_1" xmlns="http://www.w3.org/2000/svg" xmlns:xlink="http://www.w3.org/1999/xlink" x="0px" y="0px"
	 viewBox="0 0 512 512" style="enable-background:new 0 0 512 512;" xml:space="preserve">
<g>
	<g>
		<path d="M472.271,63.999c-11.813,0-22.938,5.208-30.51,14.292l-46.26,55.5c-35.927,43.125-113.688,79.542-169.792,79.542H74.667
			c-5.885,0-10.667-4.792-10.667-10.667c0-17.646-14.354-32-32-32s-32,14.354-32,32v106.667c0,17.646,14.354,32,32,32
			s32-14.354,32-32c0-5.875,4.781-10.667,10.667-10.667h20.146c-6.188,11.521-9.479,24.438-9.479,37.771v9.792
			c0,44.354,36.094,80.438,80.448,80.438H282.22c39.969,0,73.219-29.292,79.417-67.542c25.667,16.646,47.25,35.146,63.021,54.063
			l17.104,20.521c7.573,9.083,18.698,14.292,30.51,14.292C494.177,447.999,512,430.187,512,408.27V103.728
			C512,81.812,494.177,63.999,472.271,63.999z M490.668,408.27h-0.001c0,10.146-8.25,18.396-18.396,18.396
			c-5.469,0-10.615-2.417-14.115-6.625l-17.115-20.521c-20.323-24.375-49.25-47.917-83.646-68.063
			c-1.666-0.979-3.53-1.458-5.395-1.458c-1.833,0-3.656,0.479-5.302,1.417c-3.323,1.896-5.365,5.438-5.365,9.25v5.563
			c0,32.583-26.521,59.104-59.115,59.104H165.781c-32.594,0-59.115-26.521-59.115-59.104v-9.792
			c0-15.313,5.927-29.875,16.698-41.021c2.979-3.083,3.823-7.646,2.156-11.583c-1.677-3.938-5.542-6.5-9.823-6.5h-41.03
			c-17.646,0-32,14.354-32,32c0,5.874-4.782,10.666-10.667,10.666s-10.667-4.792-10.667-10.667V202.666
			c0-5.875,4.782-10.667,10.667-10.667s10.667,4.792,10.667,10.667c0,17.646,14.354,32,32,32h151.042
			c62.583,0,146.104-39.125,186.188-87.208l46.26-55.5c3.5-4.208,8.646-6.625,14.115-6.625c10.146,0,18.396,8.25,18.396,18.396
			V408.27z"/>
	</g>
</g>
<g>
	<g>
		<path d="M282.229,298.666H165.771c-20.823,0-37.771,16.938-37.771,37.771v9.792c0,20.833,16.948,37.77,37.771,37.77h116.458
			c20.823,0,37.771-16.937,37.771-37.771v-9.792C320,315.603,303.052,298.666,282.229,298.666z M298.667,346.228
			c0,9.063-7.375,16.438-16.438,16.438H165.771c-9.063,0-16.438-7.375-16.438-16.438v-9.792c0-9.063,7.375-16.438,16.438-16.438
			h116.458c9.063,0,16.438,7.375,16.438,16.438V346.228z"/>
	</g>
</g>
<g>
</g>
<g>
</g>
<g>
</g>
<g>
</g>
<g>
</g>
<g>
</g>
<g>
</g>
<g>
</g>
<g>
</g>
<g>
</g>
<g>
</g>
<g>
</g>
<g>
</g>
<g>
</g>
<g>
</g>
</svg>
