<?xml version="1.0" encoding="iso-8859-1"?>
<!-- Generator: Adobe Illustrator 19.0.0, SVG Export Plug-In . SVG Version: 6.00 Build 0)  -->
<svg version="1.1" id="Capa_1" xmlns="http://www.w3.org/2000/svg" xmlns:xlink="http://www.w3.org/1999/xlink" x="0px" y="0px"
	 viewBox="0 0 511.999 511.999" style="enable-background:new 0 0 511.999 511.999;" xml:space="preserve">
<g>
	<g>
		<path d="M501.333,85.333H480c-4.583,0-8.667,2.938-10.125,7.292c-13.021,39.042-39.021,73.104-73.25,95.917
			c-24.333,16.229-52.646,24.792-81.875,24.792H158.801C144,187.95,116.783,170.667,85.333,170.667C38.271,170.667,0,208.937,0,256
			s38.271,85.333,85.333,85.333c31.449,0,58.667-17.284,73.467-42.667h34.277c-0.4,3.548-1.078,7.014-1.078,10.667
			c0,52.938,43.063,96,96,96c50.676,0,91.867-39.585,95.332-89.396c4.496,2.37,9.025,4.674,13.293,7.521
			c34.229,22.813,60.229,56.875,73.25,95.917c1.458,4.354,5.542,7.292,10.125,7.292h21.333c5.896,0,10.667-4.771,10.667-10.667V96
			C512,90.104,507.229,85.333,501.333,85.333z M85.333,320c-35.292,0-64-28.708-64-64s28.708-64,64-64s64,28.708,64,64
			S120.625,320,85.333,320z M167.638,277.333L167.638,277.333c1.783-6.86,3.029-13.924,3.029-21.334
			c0-7.41-1.246-14.474-3.029-21.333h60.767c-13.822,11.059-24.452,25.684-30.508,42.667H167.638z M487.542,405.333
			c-15.229-40.458-43.083-75.625-79.083-99.625c-27.854-18.563-60.25-28.375-93.708-28.375h-20.188v0.125
			c-0.418-0.014-0.809-0.125-1.229-0.125c-20.583,0-37.333,16.75-37.333,37.333C256,335.25,272.75,352,293.333,352
			s37.333-16.75,37.333-37.333c0-5.371-1.189-10.452-3.24-15.07c12.072,1.038,23.867,3.447,35.24,7.361v2.376
			C362.667,350.5,329.167,384,288,384s-74.667-33.5-74.667-74.667s33.5-74.667,74.667-74.667h26.75
			c33.458,0,65.854-9.813,93.708-28.375c36-24,63.854-59.167,79.083-99.625h3.125v298.667H487.542z M309.333,314.667
			c0,8.813-7.188,16-16,16s-16-7.188-16-16s7.188-16,16-16S309.333,305.854,309.333,314.667z"/>
	</g>
</g>
<g>
</g>
<g>
</g>
<g>
</g>
<g>
</g>
<g>
</g>
<g>
</g>
<g>
</g>
<g>
</g>
<g>
</g>
<g>
</g>
<g>
</g>
<g>
</g>
<g>
</g>
<g>
</g>
<g>
</g>
</svg>
