<?xml version="1.0" encoding="iso-8859-1"?>
<!-- Generator: Adobe Illustrator 19.0.0, SVG Export Plug-In . SVG Version: 6.00 Build 0)  -->
<svg version="1.1" id="Capa_1" xmlns="http://www.w3.org/2000/svg" xmlns:xlink="http://www.w3.org/1999/xlink" x="0px" y="0px"
	 viewBox="0 0 512.008 512.008" style="enable-background:new 0 0 512.008 512.008;" xml:space="preserve">
<g>
	<g>
		<path d="M436.05,228.963l-76.501-76.501c-1.563-1.563-3.604-2.604-5.792-2.979l-64-10.667c-4.229-0.708-8.646,1.292-10.896,5.042
			l-21.333,35.667c-2.521,4.208-1.854,9.563,1.604,13.021l106.667,106.667c2.083,2.083,4.813,3.125,7.542,3.125
			s5.458-1.042,7.542-3.125l55.167-55.167C440.217,239.879,440.217,233.129,436.05,228.963z M346.882,169.962l36.464,36.464
			c-9.734,3.861-21.27,1.897-29.13-5.964l-35.138-35.138L346.882,169.962z M373.341,276.587l-93.25-93.25l10.043-16.79
			l48.999,48.999c9.438,9.438,21.813,14.146,34.208,14.146c8.98,0,17.917-2.553,25.767-7.504l14.316,14.316L373.341,276.587z"/>
	</g>
</g>
<g>
	<g>
		<path d="M40.778,132.608c-3.958-5.75-13.583-5.75-17.542,0c-6.979,10.104-23.229,35.083-23.229,48.729c0,17.646,14.354,32,32,32
			s32-14.354,32-32C64.007,167.691,47.757,142.712,40.778,132.608z M32.007,192.004c-5.875,0-10.667-4.792-10.667-10.646
			c0.083-3.271,4.521-12.563,10.667-22.917c6.146,10.333,10.583,19.646,10.667,22.917C42.674,187.233,37.882,192.004,32.007,192.004
			z"/>
	</g>
</g>
<g>
	<g>
		<path d="M500.999,324.764l7.883-7.885c4.167-4.167,4.167-10.917,0-15.083l-35.124-35.124l12.499-12.501
			c16.625-16.625,16.625-43.708,0-60.333l-66.813-66.813c3.521-6.125,5.417-13.104,5.417-20.354
			c0-10.917-4.271-21.167-11.979-28.875l-17.917-17.938c-11.604-11.563-28.896-15.125-44.042-9.021l-81.688,32.646l-37.687-37.688
			c-4.167-4.167-10.917-4.167-15.083,0l-0.309,0.309c-22.915-19.751-62.081-46.1-108.316-46.1
			C45.257,0.004,6.361,25.649,4.736,26.733c-4.896,3.271-6.208,9.875-2.938,14.771l23.667,35.5
			c3.188,4.813,9.771,6.125,14.646,3.042c0.271-0.146,25.896-16.042,67.729-16.042c25.708,0,49.781,16.207,63.75,27.783
			c-1.684,3.896-0.977,8.574,2.208,11.759l39.542,39.542v46.333c0,11.229,4.563,22.229,12.5,30.167L343.174,336.92
			c8.063,8.063,18.771,12.5,30.167,12.5c7.085,0,13.806-1.895,19.883-5.117l36.576,36.576c2.083,2.083,4.813,3.125,7.542,3.125
			s5.458-1.042,7.542-3.125l1.622-1.622c-7.049,39.014-41.085,68.747-82.102,68.747h-55.063c-5.896,0-10.667,4.771-10.667,10.667
			v42.667c0,5.896,4.771,10.667,10.667,10.667h55.063c81.396,0,147.604-66.208,147.604-147.604
			C512.008,350.289,508.108,336.82,500.999,324.764z M107.841,42.67c-33.271,0-57.479,8.688-69.958,14.5L25.966,39.295
			c13.917-6.813,42.688-17.958,81.875-17.958c39.443,0,74.367,24.04,93.176,39.908l-14.858,14.858
			C168.588,61.311,140.092,42.67,107.841,42.67z M388.445,321.837c-8.333,8.354-21.854,8.333-30.188,0L240.924,204.504
			c-3.979-3.979-6.25-9.479-6.25-15.083v-50.75c0-2.833-1.125-5.542-3.125-7.542l-35.125-35.125l27.583-27.583l35.125,35.125
			c3.021,3.042,7.521,3.958,11.5,2.354l88.229-35.271c7.271-2.896,15.5-1.188,21.021,4.313l17.917,17.938
			c3.688,3.688,5.729,8.583,5.729,13.792c0,5.208-2.042,10.104-5.729,13.792c-4.167,4.167-4.167,10.917,0,15.083l73.375,73.375
			c8.313,8.313,8.313,21.854,0,30.167L388.445,321.837z M437.341,358.254l-27.574-27.574l48.911-48.922l27.579,27.579
			L437.341,358.254z M364.403,490.67h-44.396v-21.333h44.396c57.854,0,104.938-47.083,104.938-104.938
			c0-2.35-0.288-4.72-0.841-7.138l16.738-16.738c3.477,7.47,5.436,15.514,5.436,23.876
			C490.674,434.025,434.028,490.67,364.403,490.67z"/>
	</g>
</g>
<g>
</g>
<g>
</g>
<g>
</g>
<g>
</g>
<g>
</g>
<g>
</g>
<g>
</g>
<g>
</g>
<g>
</g>
<g>
</g>
<g>
</g>
<g>
</g>
<g>
</g>
<g>
</g>
<g>
</g>
</svg>
