<?xml version="1.0" encoding="iso-8859-1"?>
<!-- Generator: Adobe Illustrator 19.0.0, SVG Export Plug-In . SVG Version: 6.00 Build 0)  -->
<svg version="1.1" id="Capa_1" xmlns="http://www.w3.org/2000/svg" xmlns:xlink="http://www.w3.org/1999/xlink" x="0px" y="0px"
	 viewBox="0 0 469.335 469.335" style="enable-background:new 0 0 469.335 469.335;" xml:space="preserve">
<g>
	<g>
		<path d="M458.667,224h-63.142l28.809-36c3.677-4.604,2.927-11.313-1.667-15c-4.604-3.646-11.302-2.917-15,1.667L368.201,224
			H260.417l74.667-74.667h59.583c5.896,0,10.667-4.771,10.667-10.667S400.563,128,394.667,128h-38.25l45.771-45.771
			c4.167-4.167,4.167-10.917,0-15.083c-4.167-4.167-10.917-4.167-15.083,0l-45.771,45.771v-38.25
			c0-5.896-4.771-10.667-10.667-10.667S320,68.771,320,74.667v59.583l-74.667,74.667V101.133l49.333-39.466
			c4.594-3.688,5.344-10.396,1.667-15c-3.698-4.583-10.385-5.333-15-1.667l-36,28.799V10.667c0-5.896-4.77-10.667-10.666-10.667
			S224,4.771,224,10.667V73.8L188,45c-4.604-3.646-11.312-2.917-15,1.667c-3.677,4.604-2.927,11.313,1.667,15L224,101.133v107.784
			l-74.667-74.667V74.667c0-5.896-4.771-10.667-10.667-10.667S128,68.771,128,74.667v38.25L82.208,67.125
			c-4.167-4.167-10.917-4.167-15.083,0c-4.167,4.167-4.167,10.917,0,15.083L112.917,128h-38.25C68.771,128,64,132.771,64,138.667
			s4.771,10.667,10.667,10.667h59.583L208.917,224H101.133l-39.466-49.333c-3.698-4.583-10.385-5.333-15-1.667
			c-4.594,3.688-5.344,10.396-1.667,15l28.809,36H10.667C4.771,224,0,228.771,0,234.667s4.771,10.667,10.667,10.667h63.142
			l-28.809,36c-3.677,4.604-2.927,11.313,1.667,15c1.969,1.563,4.323,2.333,6.656,2.333c3.135,0,6.229-1.375,8.344-4l39.466-49.333
			h107.784L134.25,320H74.667C68.771,320,64,324.771,64,330.667s4.771,10.667,10.667,10.667h38.25l-45.813,45.813
			c-4.167,4.167-4.167,10.917,0,15.083c2.083,2.083,4.813,3.125,7.542,3.125s5.458-1.042,7.542-3.125L128,356.417v38.25
			c0,5.896,4.771,10.667,10.667,10.667s10.667-4.771,10.667-10.667v-59.583L224,260.417v107.784l-49.333,39.466
			c-4.594,3.688-5.344,10.396-1.667,15c3.688,4.583,10.385,5.313,15,1.667l36-28.799v63.133c0,5.896,4.771,10.667,10.667,10.667
			s10.667-4.771,10.667-10.667v-63.133l36,28.799c1.969,1.563,4.323,2.333,6.656,2.333c3.135,0,6.229-1.375,8.344-4
			c3.677-4.604,2.927-11.313-1.667-15l-49.333-39.466V260.417L320,335.083v59.583c0,5.896,4.771,10.667,10.667,10.667
			s10.667-4.771,10.667-10.667v-38.25l45.792,45.792c2.083,2.083,4.813,3.125,7.542,3.125s5.458-1.042,7.542-3.125
			c4.167-4.167,4.167-10.917,0-15.083l-45.792-45.792h38.25c5.896,0,10.667-4.771,10.667-10.667s-4.771-10.667-10.667-10.667
			h-59.583l-74.667-74.667h107.784l39.466,49.333c2.115,2.625,5.208,4,8.344,4c2.333,0,4.688-0.771,6.656-2.333
			c4.594-3.688,5.344-10.396,1.667-15l-28.809-36h63.142c5.896,0,10.667-4.771,10.667-10.667S464.563,224,458.667,224z"/>
	</g>
</g>
<g>
</g>
<g>
</g>
<g>
</g>
<g>
</g>
<g>
</g>
<g>
</g>
<g>
</g>
<g>
</g>
<g>
</g>
<g>
</g>
<g>
</g>
<g>
</g>
<g>
</g>
<g>
</g>
<g>
</g>
</svg>
