<?xml version="1.0" encoding="iso-8859-1"?>
<!-- Generator: Adobe Illustrator 19.0.0, SVG Export Plug-In . SVG Version: 6.00 Build 0)  -->
<svg version="1.1" id="Capa_1" xmlns="http://www.w3.org/2000/svg" xmlns:xlink="http://www.w3.org/1999/xlink" x="0px" y="0px"
	 viewBox="0 0 469.3 469.3" style="enable-background:new 0 0 469.3 469.3;" xml:space="preserve">
<g>
	<g>
		<path d="M365.5,150.7c12-20.4,18.4-43.6,18.4-67.2c0-22.3-8.7-43.3-24.5-59C343.6,8.7,322.6,0,300.4,0H168.7
			c-22.3,0-43.3,8.7-59,24.5c-15.8,15.8-24.5,36.7-24.5,59c0,23.6,6.4,46.7,18.4,67.2c-34.7,6.4-61,36.8-61,73.3v7.5
			c0,10.7,2.3,21.1,6.7,30.9l38.3,84.2c-14,7-23.6,20.2-23.6,35.6v20.6c0,25.6,16.1,48.5,42,59.7c10.2,4.4,21.7,6.8,33.1,6.8h191.1
			c11.4,0,22.8-2.3,33.1-6.8c25.9-11.2,42-34.1,42-59.8v-20.6c0-17.9-13-33-30.8-38.5l43.1-78.9c6-10.9,9.1-23.3,9.1-35.8v-5
			C426.5,187.5,400.1,157.2,365.5,150.7z M124.7,39.6c11.8-11.7,27.4-18.2,44-18.2h131.7c16.6,0,32.2,6.5,44,18.2
			c11.8,11.7,18.2,27.3,18.2,44c0,20.2-5.5,40-15.8,57.2l-5.5,8.7H127.7l-5.3-8.5c-10.4-17.4-15.9-37.3-15.9-57.5
			C106.5,66.9,113,51.3,124.7,39.6z M224.7,341.4c-13.7-60.2-26.2-134-31.2-170.7h82.2c-5.1,36.7-17.6,110.4-31.4,170.7H224.7z
			 M239.2,362.7c-1.6,6.3-3.1,12.4-4.7,18c-1.6-5.7-3.1-11.8-4.7-18H239.2z M150.6,172.2c2.9-0.9,6-1.5,9.2-1.5h12.1
			c6.4,46.8,27.3,170.9,47.6,234.7C190.8,352.2,157.7,210.3,150.6,172.2z M174.6,349.8c-4.6,1.3-8.6,2.7-12.1,4.2
			c-22.5-47-34.6-99.1-34.6-151.3c0-5.6,1.6-10.8,4.1-15.3C139.3,222.6,155.9,292.4,174.6,349.8z M297.2,170.7h12
			c3.3,0,6.4,0.6,9.3,1.6c-7.1,38-40.2,179.9-68.9,233.1h-0.1C270,341.4,290.9,217.4,297.2,170.7z M337.1,187.6
			c2.5,4.5,4,9.6,4,15.1c0.1,52.1-12.1,104.2-34.6,151.3c-3.5-1.4-7.5-2.8-12-4.2C313.2,292.5,329.8,222.8,337.1,187.6z M68.6,253.6
			c-3.2-7-4.8-14.4-4.8-22.1V224c0-29,23.3-52.6,52.2-53.2l0.6,0.9c-6.3,8.8-10.1,19.4-10.1,31c0,50.4,10.5,100.9,30.4,147.2
			c-7.9-5.5-17.4-8.6-27.6-8.6c-0.3,0-0.5,0.1-0.8,0.1L68.6,253.6z M383.8,382.2v20.6c0,17-11.2,32.4-29.2,40.2
			c-7.6,3.3-16.1,5-24.6,5H138.9c-8.5,0-17-1.7-24.6-5c-18-7.8-29.2-23.2-29.2-40.2v-20.6c0-10.8,10.8-19.5,24.1-19.5
			c6.6,0,13.1,2.3,17.6,6.2l14.4,12.5c3.8,3.3,9.5,3.4,13.5,0.4c0.1-0.1,9.1-6.4,26.6-11.7c4.7,13.1,9.5,25.1,14.2,35.3H181
			c-5.9,0-10.7,4.8-10.7,10.7s4.8,10.7,10.7,10.7h106.7c5.9,0,10.7-4.8,10.7-10.7s-4.8-10.7-10.7-10.7h-14.4
			c4.7-10.2,9.5-22.1,14.2-35.2c17.4,5.3,26.4,11.6,26.4,11.6c4.1,3.2,9.8,3.1,13.6-0.3l14.4-12.5c4.6-4,11-6.2,17.6-6.2
			C373,362.7,383.8,371.5,383.8,382.2z M405.2,229c0,8.9-2.3,17.7-6.5,25.5L350.9,342c-6.9,1.2-13.2,4-18.8,7.8
			c19.9-46.2,30.4-96.7,30.4-147.1c0-11.6-3.8-22.2-10.1-31l0.6-0.9c28.9,0.6,52.2,24.2,52.2,53.2V229z"/>
	</g>
</g>
<g>
</g>
<g>
</g>
<g>
</g>
<g>
</g>
<g>
</g>
<g>
</g>
<g>
</g>
<g>
</g>
<g>
</g>
<g>
</g>
<g>
</g>
<g>
</g>
<g>
</g>
<g>
</g>
<g>
</g>
</svg>
