<?xml version="1.0" encoding="iso-8859-1"?>
<!-- Generator: Adobe Illustrator 19.0.0, SVG Export Plug-In . SVG Version: 6.00 Build 0)  -->
<svg version="1.1" id="Capa_1" xmlns="http://www.w3.org/2000/svg" xmlns:xlink="http://www.w3.org/1999/xlink" x="0px" y="0px"
	 viewBox="0 0 512 512" style="enable-background:new 0 0 512 512;" xml:space="preserve">
<g>
	<g>
		<path d="M469.333,149.333H42.667C19.146,149.333,0,168.469,0,192v128c0,23.531,19.146,42.667,42.667,42.667h426.667
			c23.52,0,42.666-19.136,42.666-42.667V192C512,168.469,492.854,149.333,469.333,149.333z M490.667,320
			c0,11.76-9.563,21.333-21.333,21.333H42.667c-11.771,0-21.333-9.573-21.333-21.333V192c0-11.76,9.563-21.333,21.333-21.333
			h426.667c11.771,0,21.333,9.573,21.333,21.333V320z"/>
	</g>
</g>
<g>
	<g>
		<path d="M458.667,192H160c-5.896,0-10.875,4.76-10.875,10.646c0,5.688,4.229,10.313,9.833,10.635
			c0.229,0.021,0.479,0.042,0.729,0.052c5.375,1.396,21.646,18.823,21.646,42.667c0,24.031-16.521,41.542-21.333,42.667
			c-5.896,0-10.667,4.771-10.667,10.667s4.771,10.667,10.667,10.667h298.667c5.896,0,10.667-4.771,10.667-10.667V202.667
			C469.333,196.771,464.563,192,458.667,192z M448,298.667h-64v-32c0-5.896-4.771-10.667-10.667-10.667s-10.667,4.771-10.667,10.667
			v32h-21.333v-32c0-5.896-4.771-10.667-10.667-10.667s-10.667,4.771-10.667,10.667v32h-21.333v-53.333
			c0-5.896-4.771-10.667-10.667-10.667s-10.667,4.771-10.667,10.667v53.333H256v-32c0-5.896-4.771-10.667-10.667-10.667
			s-10.667,4.771-10.667,10.667v32h-45.188c7.729-11.688,13.188-26.958,13.188-42.667s-5.458-30.979-13.188-42.667H448V298.667z"/>
	</g>
</g>
<g>
	<g>
		<path d="M96,202.667c-29.417,0-53.333,23.927-53.333,53.333S66.583,309.333,96,309.333s53.333-23.927,53.333-53.333
			S125.417,202.667,96,202.667z M96,288c-17.646,0-32-14.354-32-32s14.354-32,32-32s32,14.354,32,32S113.646,288,96,288z"/>
	</g>
</g>
<g>
</g>
<g>
</g>
<g>
</g>
<g>
</g>
<g>
</g>
<g>
</g>
<g>
</g>
<g>
</g>
<g>
</g>
<g>
</g>
<g>
</g>
<g>
</g>
<g>
</g>
<g>
</g>
<g>
</g>
</svg>
