<?xml version="1.0" encoding="iso-8859-1"?>
<!-- Generator: Adobe Illustrator 19.0.0, SVG Export Plug-In . SVG Version: 6.00 Build 0)  -->
<svg version="1.1" id="Capa_1" xmlns="http://www.w3.org/2000/svg" xmlns:xlink="http://www.w3.org/1999/xlink" x="0px" y="0px"
	 viewBox="0 0 512.001 512.001" style="enable-background:new 0 0 512.001 512.001;" xml:space="preserve">
<g>
	<g>
		<path d="M485.261,189.168l-105.615-17.604l-30.604-45.896c-7.938-11.896-21.208-19-35.5-19h-157.75
			c-14.292,0-27.563,7.104-35.5,19l-30.875,46.313l-65.188,16.292C9.97,191.855,0.001,204.605,0.001,219.314v53.604
			c0,12.583,4.896,24.396,13.792,33.292c8.896,8.895,20.718,13.791,33.291,13.791h28.663c1.616,7.931,5.139,15.103,9.855,21.333
			H74.668c-5.896,0-10.667,4.771-10.667,10.667v21.333c0,17.646,14.354,32,32,32h126.25l-1.625,0.542
			c-4.354,1.458-7.292,5.542-7.292,10.125s2.938,8.667,7.292,10.125l33.646,11.208l-33.646,11.208
			c-4.354,1.458-7.292,5.542-7.292,10.125s2.938,8.667,7.292,10.125l33.646,11.209l-32.02,10.667H96.001
			c-5.896,0-10.667,4.771-10.667,10.667c0,5.895,4.771,10.666,10.667,10.666h320c5.896,0,10.667-4.771,10.667-10.667
			s-4.771-10.667-10.667-10.667h-126.25l1.625-0.542c4.354-1.458,7.292-5.542,7.292-10.125s-2.938-8.667-7.292-10.125
			l-33.646-11.208l33.646-11.208c4.354-1.458,7.292-5.542,7.292-10.125s-2.938-8.667-7.292-10.125l-33.646-11.208l32.02-10.667
			h126.251c17.646,0,32-14.354,32-32v-21.333c0-5.896-4.771-10.667-10.667-10.667h-21.602c4.716-6.23,8.24-13.402,9.855-21.333
			h47.819c8.135,0,15.448-4.521,19.083-11.792l17.26-34.521c0.375-0.75,0.719-1.813,0.906-2.625l1.052-4.417
			c0.188-0.833,0.292-1.667,0.292-2.5v-43.417C512.001,205.043,500.761,191.772,485.261,189.168z M426.668,362.668v10.667
			c0,5.875-4.781,10.667-10.667,10.667h-320c-5.885,0-10.667-4.792-10.667-10.667v-10.667H426.668z M96.001,309.334
			c0-17.646,14.354-32,32-32s32,14.354,32,32s-14.354,32-32,32S96.001,326.98,96.001,309.334z M170.399,341.334
			c4.716-6.23,8.24-13.402,9.855-21.333H321.08c1.616,7.931,5.139,15.103,9.855,21.333H170.399z M341.334,309.334
			c0-17.646,14.354-32,32-32s32,14.354,32,32s-14.354,32-32,32C355.689,341.334,341.334,326.98,341.334,309.334z M490.668,262.897
			l-17.26,35.771h-47.819c-4.956-24.319-26.5-42.667-52.254-42.667c-25.754,0-47.298,18.348-52.254,42.667H180.255
			c-4.956-24.319-26.5-42.667-52.254-42.667c-25.754,0-47.298,18.348-52.254,42.667H47.084c-6.875,0-13.344-2.688-18.208-7.542
			c-4.865-4.875-7.542-11.333-7.542-18.208v-53.604c0-4.896,3.323-9.146,8.073-10.333l69.177-17.292
			c2.573-0.646,4.823-2.229,6.292-4.438l33.167-49.75c3.969-5.938,10.604-9.5,17.75-9.5h157.75c7.146,0,13.781,3.563,17.75,9.5
			l33.167,49.75c1.635,2.458,4.219,4.125,7.125,4.604l110.156,18.354c5.177,0.875,8.927,5.292,8.927,10.521V262.897z"/>
	</g>
</g>
<g>
	<g>
		<path d="M296.531,46.938l-32-42.667c-2.009-2.686-5.268-4.27-8.526-4.271c-3.262-0.001-6.525,1.582-8.536,4.271l-32,42.667
			c-3.541,4.709-2.583,11.396,2.136,14.938c4.729,3.542,11.396,2.563,14.927-2.146l12.802-17.069v32.007
			c0,5.896,4.771,10.667,10.667,10.667s10.667-4.771,10.667-10.667V42.661L279.47,59.73c2.094,2.792,5.291,4.271,8.541,4.271
			c2.229,0,4.469-0.688,6.385-2.125C299.115,58.334,300.073,51.647,296.531,46.938z"/>
	</g>
</g>
<g>
</g>
<g>
</g>
<g>
</g>
<g>
</g>
<g>
</g>
<g>
</g>
<g>
</g>
<g>
</g>
<g>
</g>
<g>
</g>
<g>
</g>
<g>
</g>
<g>
</g>
<g>
</g>
<g>
</g>
</svg>
