<?xml version="1.0" encoding="iso-8859-1"?>
<!-- Generator: Adobe Illustrator 19.0.0, SVG Export Plug-In . SVG Version: 6.00 Build 0)  -->
<svg version="1.1" id="Capa_1" xmlns="http://www.w3.org/2000/svg" xmlns:xlink="http://www.w3.org/1999/xlink" x="0px" y="0px"
	 viewBox="0 0 469.338 469.338" style="enable-background:new 0 0 469.338 469.338;" xml:space="preserve">
<g>
	<g>
		<path d="M416.005,42.67c-29.417,0-53.333,23.917-53.333,53.333c0,29.417,23.917,53.333,53.333,53.333
			c29.417,0,53.333-23.917,53.333-53.333C469.338,66.586,445.422,42.67,416.005,42.67z M416.005,128.003c-17.646,0-32-14.354-32-32
			s14.354-32,32-32s32,14.354,32,32S433.651,128.003,416.005,128.003z"/>
	</g>
</g>
<g>
	<g>
		<path d="M148.213,219.232c-1.813-3.604-5.5-5.896-9.542-5.896h-32v-74.667c0-5.896-4.771-10.667-10.667-10.667H53.338
			c-5.896,0-10.667,4.771-10.667,10.667v74.667h-32c-4.042,0-7.729,2.292-9.542,5.896c-1.813,3.604-1.417,7.938,1,11.167l64,85.333
			c2.021,2.688,5.188,4.271,8.542,4.271c3.354,0,6.521-1.583,8.542-4.271l64-85.333C149.63,227.17,150.026,222.836,148.213,219.232z
			 M74.672,291.565l-42.667-56.896h21.333c5.896,0,10.667-4.771,10.667-10.667v-74.667h21.333v74.667
			c0,5.896,4.771,10.667,10.667,10.667h21.333L74.672,291.565z"/>
	</g>
</g>
<g>
	<g>
		<path d="M230.401,66.128l-85.333-64c-1.867-1.394-4.13-2.123-6.402-2.125c-1.631-0.002-3.267,0.376-4.765,1.125
			c-3.604,1.813-5.896,5.5-5.896,9.542v32H53.338c-5.896,0-10.667,4.771-10.667,10.667v42.667
			c0.001,5.895,4.772,10.666,10.667,10.666h74.667v32c0,4.042,2.292,7.729,5.896,9.542c1.5,0.75,3.146,1.125,4.771,1.125
			c2.271,0,4.521-0.729,6.396-2.125l85.333-64c2.688-2.021,4.271-5.188,4.271-8.542S233.089,68.149,230.401,66.128z
			 M149.339,117.337V96.003c0-5.896-4.771-10.667-10.667-10.667H64.005V64.003h74.667c5.896,0,10.667-4.771,10.667-10.667V32.003
			l56.896,42.667L149.339,117.337z"/>
	</g>
</g>
<g>
	<g>
		<path d="M421.005,172.315c-0.021-0.021-0.042-0.021-0.042-0.021c-6.208-1.958-19.667-2.833-30.583,1.604l-88.313,39.438h-78.021
			c-17.667,0-32.021,14.354-32.021,32s14.354,32,32.021,32h85.333c4.958,0,9.917-1.167,13.896-3.167l39.042-17.354l-12.916,50.917
			l-149.917-9c-12.333-0.875-24.063,4.708-31.583,14.354l-74.687,96c-6.125,7.854-8.813,17.646-7.583,27.542
			c1.229,9.896,6.25,18.708,14.125,24.833c6.604,5.146,14.542,7.875,22.896,7.875c11.604,0,22.354-5.25,29.479-14.417l62.625-80.479
			l158.021,9.5c0.813,0.042,4.063,0.083,4.917,0.083c16.229,0,30.583-11.896,34.938-28.938l34.125-134.417
			C451.963,200.253,440.401,178.565,421.005,172.315z M426.088,215.42l-34.125,134.396c-1.938,7.583-7.813,12.875-14.271,12.875
			l-167.25-9.875c-3.792-0.313-6.917,1.313-9.063,4.104l-66.083,84.917c-5.271,6.729-15.625,8.063-22.458,2.792
			c-3.354-2.625-5.521-6.396-6.042-10.646c-0.521-4.229,0.625-8.438,3.25-11.813l74.687-95.979
			c3.042-3.917,7.771-6.188,12.708-6.188c0.271,0,0.563,0,0.833,0.021l158.646,9.521c5.458,0.542,9.708-3.063,10.979-8.021
			l20.5-80.75c1.021-3.958-0.333-8.146-3.458-10.771c-3.104-2.625-7.438-3.271-11.208-1.604l-59.563,26.479
			c-1.479,0.729-3.125,1.125-4.792,1.125h-85.333c-5.896,0-10.688-4.792-10.688-10.667s4.792-10.667,10.688-10.667h80.292
			c1.5,0,2.979-0.313,4.354-0.938l90.042-40.208c5.646-2.313,13.875-1.479,15.771-0.896
			C423.067,195.42,428.463,206.045,426.088,215.42z"/>
	</g>
</g>
<g>
</g>
<g>
</g>
<g>
</g>
<g>
</g>
<g>
</g>
<g>
</g>
<g>
</g>
<g>
</g>
<g>
</g>
<g>
</g>
<g>
</g>
<g>
</g>
<g>
</g>
<g>
</g>
<g>
</g>
</svg>
