<?xml version="1.0" encoding="iso-8859-1"?>
<!-- Generator: Adobe Illustrator 19.0.0, SVG Export Plug-In . SVG Version: 6.00 Build 0)  -->
<svg version="1.1" id="Capa_1" xmlns="http://www.w3.org/2000/svg" xmlns:xlink="http://www.w3.org/1999/xlink" x="0px" y="0px"
	 viewBox="0 0 511.997 511.997" style="enable-background:new 0 0 511.997 511.997;" xml:space="preserve">
<g>
	<g>
		<path d="M511.323,241.582l-50.073-133.51c-9.896-26.406-27.542-48.635-51.01-64.292c-22.031-14.688-47.677-22.448-74.146-22.448
			H42.667C19.135,21.332,0,40.467,0,63.999v384c0,23.531,19.135,42.667,42.667,42.667h247.031c5.302,0,9.802-3.896,10.563-9.156
			c9.708-67.75,68.646-118.844,137.073-118.844c6.24,0,12.333,0.563,18.365,1.365c4.729,0.667,9.448-2.052,11.281-6.531
			l44.229-108.125C512.219,246.884,512.26,244.103,511.323,241.582z M450.281,341.957c-4.26-0.396-8.573-0.625-12.948-0.625
			c-75.854,0-141.604,54.406-156.604,128H42.667c-11.76,0-21.333-9.573-21.333-21.333v-384c0-11.76,9.573-21.333,21.333-21.333
			h293.427c22.25,0,43.792,6.521,62.313,18.865c19.729,13.156,34.552,31.844,42.865,54.031l48.604,129.604L450.281,341.957z"/>
	</g>
</g>
<g>
	<g>
		<path d="M465.5,240.905l-44.198-117.854c-6.739-17.979-18.75-33.115-34.729-43.771c-15-10-32.458-15.281-50.479-15.281H53.333
			c-5.896,0-10.667,4.771-10.667,10.667v192c0,2.833,1.125,5.542,3.125,7.542s4.708,3.125,7.542,3.125L448,277.301
			c4.563,0,8.615-2.906,10.094-7.219l7.51-21.979C466.406,245.77,466.364,243.228,465.5,240.905z M440.375,255.967L64,255.999
			V85.332h272.094c13.802,0,27.167,4.042,38.646,11.698c12.229,8.156,21.427,19.74,26.583,33.51l42.854,114.281L440.375,255.967z"/>
	</g>
</g>
<g>
	<g>
		<path d="M437.333,298.665h-64c-5.896,0-10.667,4.771-10.667,10.667s4.771,10.667,10.667,10.667h64
			c5.896,0,10.667-4.771,10.667-10.667S443.229,298.665,437.333,298.665z"/>
	</g>
</g>
<g>
	<g>
		<path d="M288,383.999H53.333c-5.896,0-10.667,4.771-10.667,10.667s4.771,10.667,10.667,10.667H288
			c5.896,0,10.667-4.771,10.667-10.667S293.896,383.999,288,383.999z"/>
	</g>
</g>
<g>
	<g>
		<path d="M146.209,109.79c-4.167-4.167-10.917-4.167-15.083,0l-42.667,42.667c-4.167,4.167-4.167,10.917,0,15.083
			c2.083,2.084,4.812,3.125,7.541,3.125s5.458-1.042,7.542-3.125l42.667-42.667C150.376,120.706,150.376,113.956,146.209,109.79z"/>
	</g>
</g>
<g>
	<g>
		<path d="M188.876,109.79c-4.168-4.166-10.918-4.166-15.084,0l-85.333,85.333c-4.167,4.167-4.167,10.917,0,15.083
			c2.083,2.083,4.813,3.125,7.542,3.125s5.458-1.042,7.542-3.125l85.333-85.333C193.043,120.706,193.043,113.956,188.876,109.79z"/>
	</g>
</g>
<g>
</g>
<g>
</g>
<g>
</g>
<g>
</g>
<g>
</g>
<g>
</g>
<g>
</g>
<g>
</g>
<g>
</g>
<g>
</g>
<g>
</g>
<g>
</g>
<g>
</g>
<g>
</g>
<g>
</g>
</svg>
