<?xml version="1.0" encoding="iso-8859-1"?>
<!-- Generator: Adobe Illustrator 19.0.0, SVG Export Plug-In . SVG Version: 6.00 Build 0)  -->
<svg version="1.1" id="Capa_1" xmlns="http://www.w3.org/2000/svg" xmlns:xlink="http://www.w3.org/1999/xlink" x="0px" y="0px"
	 viewBox="0 0 512 512" style="enable-background:new 0 0 512 512;" xml:space="preserve">
<g>
	<g>
		<path d="M117.333,192H74.667C68.771,192,64,196.771,64,202.667s4.771,10.667,10.667,10.667h42.667
			c5.896,0,10.667-4.771,10.667-10.667C128,196.771,123.229,192,117.333,192z"/>
	</g>
</g>
<g>
	<g>
		<path d="M437.333,192h-10.667v-10.667c0-5.896-4.771-10.667-10.667-10.667s-10.667,4.771-10.667,10.667V192h-10.667
			c-5.896,0-10.667,4.771-10.667,10.667s4.771,10.667,10.667,10.667h10.667V224c0,5.896,4.771,10.667,10.667,10.667
			s10.667-4.771,10.667-10.667v-10.667h10.667c5.896,0,10.667-4.771,10.667-10.667C448,196.771,443.229,192,437.333,192z"/>
	</g>
</g>
<g>
	<g>
		<path d="M469.333,106.667V85.333C469.333,73.573,459.771,64,448,64h-64c-11.771,0-21.333,9.573-21.333,21.333v21.333h-6.25
			l-8.833-8.833c-7.938-7.948-18.938-12.5-30.167-12.5H194.583c-11.229,0-22.229,4.552-30.167,12.5l-8.833,8.833h-6.25V85.333
			C149.333,73.573,139.771,64,128,64H64c-11.771,0-21.333,9.573-21.333,21.333v21.333C19.146,106.667,0,125.802,0,149.333v256
			C0,428.865,19.146,448,42.667,448h426.667c23.52,0,42.666-19.135,42.666-42.667v-256C512,125.802,492.854,106.667,469.333,106.667
			z M384,85.333h64v21.333h-64V85.333z M64,85.333h64v21.333H64V85.333z M469.334,426.666H42.667
			c-11.771,0-21.333-9.573-21.333-21.333v-256c0-11.76,9.563-21.333,21.333-21.333H160c2.833,0,5.542-1.125,7.542-3.125
			l11.958-11.958c3.979-3.969,9.479-6.25,15.083-6.25h122.833c5.604,0,11.104,2.281,15.083,6.25l11.958,11.958
			c2,2,4.708,3.125,7.542,3.125h117.333c11.771,0,21.333,9.573,21.333,21.333v256h0.002
			C490.667,417.093,481.104,426.666,469.334,426.666z"/>
	</g>
</g>
<g>
</g>
<g>
</g>
<g>
</g>
<g>
</g>
<g>
</g>
<g>
</g>
<g>
</g>
<g>
</g>
<g>
</g>
<g>
</g>
<g>
</g>
<g>
</g>
<g>
</g>
<g>
</g>
<g>
</g>
</svg>
