<?xml version="1.0" encoding="iso-8859-1"?>
<!-- Generator: Adobe Illustrator 19.0.0, SVG Export Plug-In . SVG Version: 6.00 Build 0)  -->
<svg version="1.1" id="Capa_1" xmlns="http://www.w3.org/2000/svg" xmlns:xlink="http://www.w3.org/1999/xlink" x="0px" y="0px"
	 viewBox="0 0 512 512" style="enable-background:new 0 0 512 512;" xml:space="preserve">
<g>
	<g>
		<path d="M341.332,245.334c-5.885,0-10.667-4.792-10.667-10.667S335.447,224,341.332,224h21.333
			c5.896,0,10.667-4.771,10.667-10.667s-4.771-10.667-10.667-10.667h-21.333c-17.646,0-32,14.354-32,32s14.354,32,32,32
			c5.885,0,10.667,4.792,10.667,10.667S347.218,288,341.332,288h-21.333c-5.896,0-10.667,4.771-10.667,10.667
			s4.771,10.667,10.667,10.667h21.333c17.646,0,32-14.354,32-32S358.978,245.334,341.332,245.334z"/>
	</g>
</g>
<g>
	<g>
		<path d="M170.666,202.667c-17.646,0-32,14.354-32,32v64c0,5.896,4.771,10.667,10.667,10.667c5.896,0,10.667-4.771,10.667-10.667
			V288h21.333v10.667c0,5.896,4.771,10.667,10.667,10.667s10.667-4.771,10.667-10.667v-64
			C202.666,217.021,188.312,202.667,170.666,202.667z M181.333,266.667L181.333,266.667h-21.334v-32
			c0-5.875,4.781-10.667,10.667-10.667c5.885,0,10.667,4.792,10.667,10.667V266.667z"/>
	</g>
</g>
<g>
	<g>
		<path d="M287.999,234.668c0-17.647-14.354-32.001-32-32.001h-21.333c-5.896,0-10.667,4.771-10.667,10.667v85.333
			c0,5.896,4.771,10.667,10.667,10.667h21.333c17.646,0,32-14.354,32-32c0-8.188-3.094-15.667-8.167-21.333
			C284.905,250.334,287.999,242.855,287.999,234.668z M255.999,288h-10.667v-21.333h10.667c5.885,0,10.667,4.792,10.667,10.667
			S261.884,288,255.999,288z M255.999,245.333h-10.667V224h10.667c5.885,0,10.667,4.792,10.667,10.667
			S261.884,245.333,255.999,245.333z"/>
	</g>
</g>
<g>
	<g>
		<path d="M255.999,64c-105.875,0-192,86.125-192,192s86.125,192,192,192s192-86.125,192-192S361.874,64,255.999,64z
			 M255.999,426.667c-94.104,0-170.667-76.563-170.667-170.667S161.895,85.333,255.999,85.333S426.666,161.896,426.666,256
			S350.103,426.667,255.999,426.667z"/>
	</g>
</g>
<g>
	<g>
		<path d="M89.984,82.985c4.169-4.344,4.169-11.382,0-15.727c-4.169-4.344-10.922-4.344-15.09,0
			c-99.859,104.07-99.859,273.414,0,377.483c2.084,2.172,4.815,3.258,7.545,3.258s5.461-1.086,7.545-3.258
			c4.169-4.344,4.169-11.382,0-15.727C-1.559,333.612-1.559,178.388,89.984,82.985z"/>
	</g>
</g>
<g>
	<g>
		<path d="M437.105,67.258c-4.169-4.344-10.922-4.344-15.09,0c-4.169,4.344-4.169,11.382,0,15.727
			c91.543,95.403,91.543,250.627,0,346.03c-4.169,4.344-4.169,11.382,0,15.727c2.084,2.172,4.815,3.258,7.545,3.258
			c2.73,0,5.461-1.086,7.545-3.258C536.964,340.672,536.964,171.328,437.105,67.258z"/>
	</g>
</g>
<g>
</g>
<g>
</g>
<g>
</g>
<g>
</g>
<g>
</g>
<g>
</g>
<g>
</g>
<g>
</g>
<g>
</g>
<g>
</g>
<g>
</g>
<g>
</g>
<g>
</g>
<g>
</g>
<g>
</g>
</svg>
