<?xml version="1.0" encoding="iso-8859-1"?>
<!-- Generator: Adobe Illustrator 19.0.0, SVG Export Plug-In . SVG Version: 6.00 Build 0)  -->
<svg version="1.1" id="Capa_1" xmlns="http://www.w3.org/2000/svg" xmlns:xlink="http://www.w3.org/1999/xlink" x="0px" y="0px"
	 viewBox="0 0 512 512" style="enable-background:new 0 0 512 512;" xml:space="preserve">
<g>
	<g>
		<path d="M509.364,174.312c-3.188-3.635-79.854-88.979-253.365-88.979S5.822,170.676,2.635,174.312
			c-2.354,2.688-3.198,6.375-2.26,9.823l64,234.667c0.938,3.427,3.521,6.146,6.885,7.281c3.333,1.156,7.073,0.521,9.896-1.615
			c0.531-0.406,54.593-40.469,174.843-40.469s174.313,40.063,174.844,40.469c1.885,1.427,4.177,2.177,6.49,2.177
			c1.146,0,2.302-0.177,3.406-0.563c3.365-1.135,5.948-3.854,6.885-7.281l64-234.667
			C512.562,180.687,511.718,176.999,509.364,174.312z M430.812,399.364c-22.616-12.469-75.617-34.628-164.146-36.37v-13.12
			c0-5.896-4.771-10.667-10.667-10.667s-10.667,4.771-10.667,10.667v13.12c-88.529,1.742-141.53,23.901-164.146,36.37
			L22.562,184.426c17-16.313,90.552-77.76,233.438-77.76c142.281,0,216.313,61.479,233.427,77.792L430.812,399.364z"/>
	</g>
</g>
<g>
	<g>
		<path d="M266.666,405.333c0-5.896-4.771-10.667-10.667-10.667s-10.667,4.771-10.667,10.667c-5.896,0-10.667,4.771-10.667,10.667
			s4.771,10.667,10.667,10.667h21.333c5.896,0,10.667-4.771,10.667-10.667C277.332,410.103,272.562,405.333,266.666,405.333z"/>
	</g>
</g>
<g>
	<g>
		<path d="M352.812,218.114c-5.01-7.5-11.781-13.833-19.594-18.333c-5.104-2.948-11.635-1.198-14.563,3.917
			c-2.948,5.103-1.187,11.624,3.917,14.562c4.979,2.875,9.313,6.917,12.51,11.708c2.052,3.073,5.427,4.74,8.875,4.74
			c2.031,0,4.094-0.583,5.917-1.802C354.77,229.635,356.093,223.01,352.812,218.114z"/>
	</g>
</g>
<g>
	<g>
		<path d="M306.291,201.561c-0.99-5.802-6.49-9.646-12.313-8.708c-8.896,1.521-17.448,5.167-24.75,10.552
			c-4.74,3.49-5.75,10.167-2.25,14.917c2.084,2.833,5.323,4.333,8.594,4.333c2.198,0,4.417-0.677,6.323-2.083
			c4.625-3.417,10.052-5.729,15.688-6.698C303.396,212.884,307.291,207.364,306.291,201.561z"/>
	</g>
</g>
<g>
	<g>
		<path d="M352,245.332c-5.897,0-10.667,4.771-10.667,10.667v10.667c0,5.896,4.771,10.667,10.667,10.667s10.667-4.771,10.667-10.667
			v-10.667C362.667,250.103,357.896,245.332,352,245.332z"/>
	</g>
</g>
<g>
	<g>
		<path d="M242.77,203.405c-7.302-5.385-15.854-9.031-24.75-10.552c-5.802-0.958-11.323,2.906-12.313,8.708
			c-1,5.802,2.896,11.323,8.708,12.313c5.635,0.969,11.063,3.281,15.688,6.698c1.906,1.406,4.125,2.083,6.323,2.083
			c3.271,0,6.511-1.5,8.594-4.333C248.52,213.572,247.51,206.895,242.77,203.405z"/>
	</g>
</g>
<g>
	<g>
		<path d="M193.343,203.696c-2.938-5.114-9.448-6.864-14.563-3.916c-7.813,4.5-14.583,10.833-19.594,18.333
			c-3.281,4.896-1.958,11.521,2.938,14.792c1.823,1.219,3.875,1.802,5.917,1.802c3.448,0,6.823-1.667,8.875-4.74
			c3.198-4.792,7.531-8.833,12.51-11.708C194.53,215.321,196.291,208.801,193.343,203.696z"/>
	</g>
</g>
<g>
	<g>
		<path d="M260.001,228.728c-1.267-0.32-2.525-0.315-3.75-0.181c-0.056-0.008-0.112,0.001-0.169-0.008
			c-0.135,0.017-0.272-0.004-0.408,0.018c-1.206-0.126-2.439-0.14-3.675,0.171c-5.719,1.427-9.198,7.219-7.76,12.927
			c0.729,2.917,1.094,5.948,1.094,9.01v10.479c0,5.896,4.771,10.667,10.667,10.667c5.896,0,10.667-4.771,10.667-10.667v-10.479
			c0-3.063,0.365-6.094,1.094-9.01C269.199,235.947,265.719,230.155,260.001,228.728z"/>
	</g>
</g>
<g>
	<g>
		<path d="M255.999,283.749c-5.896,0-10.667,4.771-10.667,10.667v22.188c0,5.896,4.771,10.667,10.667,10.667
			s10.667-4.771,10.667-10.667v-22.188C266.666,288.52,261.895,283.749,255.999,283.749z"/>
	</g>
</g>
<g>
	<g>
		<path d="M159.999,245.332c-5.896,0-10.667,4.771-10.667,10.667v10.667c0,5.896,4.771,10.667,10.667,10.667
			s10.667-4.771,10.667-10.667v-10.667C170.666,250.103,165.895,245.332,159.999,245.332z"/>
	</g>
</g>
<g>
	<g>
		<path d="M100.77,171.791c-5.281-2.604-11.667-0.5-14.313,4.771l-21.333,42.667c-2.635,5.271-0.5,11.677,4.771,14.313
			c1.531,0.76,3.156,1.125,4.76,1.125c3.917,0,7.677-2.156,9.552-5.896l21.333-42.667
			C108.176,180.832,106.041,174.426,100.77,171.791z"/>
	</g>
</g>
<g>
	<g>
		<path d="M143.437,171.791c-5.25-2.604-11.677-0.5-14.313,4.771l-42.667,85.333c-2.635,5.271-0.5,11.677,4.771,14.313
			c1.531,0.76,3.156,1.125,4.76,1.125c3.917,0,7.677-2.156,9.552-5.896l42.667-85.333
			C150.843,180.832,148.707,174.426,143.437,171.791z"/>
	</g>
</g>
<g>
</g>
<g>
</g>
<g>
</g>
<g>
</g>
<g>
</g>
<g>
</g>
<g>
</g>
<g>
</g>
<g>
</g>
<g>
</g>
<g>
</g>
<g>
</g>
<g>
</g>
<g>
</g>
<g>
</g>
</svg>
