<?xml version="1.0" encoding="iso-8859-1"?>
<!-- Generator: Adobe Illustrator 19.0.0, SVG Export Plug-In . SVG Version: 6.00 Build 0)  -->
<svg version="1.1" id="Capa_1" xmlns="http://www.w3.org/2000/svg" xmlns:xlink="http://www.w3.org/1999/xlink" x="0px" y="0px"
	 viewBox="0 0 512 512" style="enable-background:new 0 0 512 512;" xml:space="preserve">
<g>
	<g>
		<path d="M394.667,373.333c-1.842,0-3.491,0.611-5.198,1.052l-19.219-19.219c-4.167-4.167-10.917-4.167-15.083,0
			s-4.167,10.917,0,15.083l19.219,19.219c-0.441,1.707-1.052,3.355-1.052,5.198c0,11.76,9.573,21.333,21.333,21.333
			S416,406.427,416,394.667S406.427,373.333,394.667,373.333z"/>
	</g>
</g>
<g>
	<g>
		<path d="M402.01,224.771c-6.292-29.5-21.302-56.167-43.438-77.125c-2.083-1.979-4.875-3.208-7.75-2.906
			c-2.875,0.115-5.583,1.375-7.5,3.51c-30.729,34.073-38.281,65.208-20.198,83.292c8.501,8.51,23.157,12.937,38.636,12.937
			c11.885,0,24.271-2.615,34.708-8.01C400.739,234.261,403.01,229.469,402.01,224.771z M338.209,216.459
			c-8.511-8.511,0.27-27.876,13.614-45.146c12.688,14.302,21.938,31.063,27.167,49.292
			C363.355,225.376,344.677,222.928,338.209,216.459z"/>
	</g>
</g>
<g>
	<g>
		<path d="M301.459,113.771c-29.5-9.438-61.417-9.438-90.917,0c-4.688,1.49-7.74,5.99-7.406,10.896
			C205.802,163.052,228.521,192,256,192s50.198-28.948,52.865-67.333C309.198,119.761,306.146,115.261,301.459,113.771z
			 M256,170.666c-14.125,0-26.677-16.531-30.552-38.958c20.021-4.916,41.083-4.916,61.104,0
			C282.677,154.135,270.125,170.666,256,170.666z"/>
	</g>
</g>
<g>
	<g>
		<path d="M168.676,148.249c-1.916-2.134-4.624-3.395-7.499-3.509c-2.854-0.271-5.677,0.938-7.75,2.906
			c-22.135,20.958-37.146,47.625-43.438,77.125c-1,4.698,1.271,9.49,5.542,11.698c10.448,5.396,22.813,8.01,34.708,8.01
			c15.479,0,30.135-4.438,38.635-12.938C206.968,213.458,199.416,182.312,168.676,148.249z M173.792,216.458
			c-6.479,6.469-25.156,8.896-40.781,4.146c5.24-18.229,14.479-34.99,27.167-49.292
			C173.531,188.583,182.313,207.938,173.792,216.458z"/>
	</g>
</g>
<g>
	<g>
		<path d="M188.875,280.459c-15.021-15.053-49.302-17.344-73.344-4.928c-4.271,2.208-6.542,7-5.542,11.698
			c6.292,29.5,21.302,56.167,43.438,77.125c1.99,1.875,4.615,2.917,7.333,2.917c0.135,0,0.281,0,0.417-0.01
			c2.875-0.115,5.583-1.375,7.5-3.51C199.417,329.688,206.969,298.543,188.875,280.459z M160.177,340.688
			c-12.688-14.302-21.927-31.063-27.167-49.292c15.646-4.771,34.323-2.323,40.781,4.146
			C182.313,304.063,173.531,323.417,160.177,340.688z"/>
	</g>
</g>
<g>
	<g>
		<path d="M256,213.333c-23.531,0-42.667,19.135-42.667,42.667c0,23.532,19.135,42.667,42.667,42.667s42.667-19.135,42.667-42.667
			S279.531,213.333,256,213.333z M256,277.333c-11.76,0-21.333-9.573-21.333-21.333s9.573-21.333,21.333-21.333
			s21.333,9.573,21.333,21.333S267.76,277.333,256,277.333z"/>
	</g>
</g>
<g>
	<g>
		<path d="M512,256C512,114.844,397.156,0,256,0S0,114.844,0,256s114.844,256,256,256c28.538,0,56.464-4.814,83.169-13.996
			C355.704,506.921,374.6,512,394.667,512C459.365,512,512,459.365,512,394.667c0-20.065-5.079-38.96-13.995-55.494
			C507.185,312.47,512,284.546,512,256z M394.667,490.667c-33.21,0-62.505-16.966-79.749-42.667h159.497
			C457.172,473.701,427.876,490.667,394.667,490.667z M480,405.333h9.589c-0.832,7.402-2.395,14.533-4.819,21.333H304.564
			c-2.424-6.801-3.987-13.931-4.819-21.333h9.589c5.896,0,10.667-4.771,10.667-10.667S315.229,384,309.333,384h-9.589
			c2.073-18.423,9.233-35.15,20.25-48.922l3.13,3.13c2.083,2.083,4.813,3.125,7.542,3.125s5.458-1.042,7.542-3.125
			c4.167-4.167,4.167-10.917,0-15.083l-3.13-3.13c13.772-11.017,30.499-18.177,48.922-20.25v9.589
			c0,5.896,4.771,10.667,10.667,10.667s10.667-4.771,10.667-10.667v-9.589c18.423,2.073,35.15,9.233,48.922,20.25l-3.13,3.13
			c-4.167,4.167-4.167,10.917,0,15.083c2.083,2.083,4.813,3.125,7.542,3.125s5.458-1.042,7.542-3.125l3.13-3.13
			c11.017,13.772,18.177,30.499,20.25,48.922H480c-5.896,0-10.667,4.771-10.667,10.667S474.104,405.333,480,405.333z M256,320
			c-27.479,0-50.198,28.948-52.865,67.333c-0.333,4.906,2.719,9.406,7.406,10.896c14.75,4.719,30.042,7.104,45.458,7.104
			c7.296,0,14.564-0.732,21.783-1.798c0.543,7.217,1.762,14.232,3.557,21.029c-8.371,1.245-16.82,2.103-25.34,2.103
			c-94.104,0-170.667-76.563-170.667-170.667S161.896,85.333,256,85.333S426.667,161.896,426.667,256
			c0,8.516-0.858,16.966-2.104,25.34c-9.564-2.526-19.549-4.007-29.896-4.007c-44.564,0-83.396,24.978-103.254,61.663
			C281.85,327.033,269.35,320,256,320z M281.552,363.947c-1.581,5.815-2.815,11.77-3.484,17.904
			c-17.43,3.063-35.408,2.667-52.62-1.559c3.875-22.427,16.427-38.958,30.552-38.958
			C265.936,341.333,275.497,350.049,281.552,363.947z M482.596,317.24c-10.456-11.859-23.245-21.559-37.669-28.436
			C446.788,277.995,448,267.04,448,256c0-105.865-86.135-192-192-192S64,150.135,64,256s86.135,192,192,192
			c11.038,0,21.996-1.211,32.805-3.072c6.876,14.423,16.574,27.211,28.432,37.665c-19.862,5.362-40.38,8.073-61.237,8.073
			C126.604,490.667,21.333,385.396,21.333,256S126.604,21.333,256,21.333S490.667,126.604,490.667,256
			C490.667,276.862,487.956,297.38,482.596,317.24z"/>
	</g>
</g>
<g>
</g>
<g>
</g>
<g>
</g>
<g>
</g>
<g>
</g>
<g>
</g>
<g>
</g>
<g>
</g>
<g>
</g>
<g>
</g>
<g>
</g>
<g>
</g>
<g>
</g>
<g>
</g>
<g>
</g>
</svg>
