<?xml version="1.0" encoding="iso-8859-1"?>
<!-- Generator: Adobe Illustrator 19.0.0, SVG Export Plug-In . SVG Version: 6.00 Build 0)  -->
<svg version="1.1" id="Capa_1" xmlns="http://www.w3.org/2000/svg" xmlns:xlink="http://www.w3.org/1999/xlink" x="0px" y="0px"
	 viewBox="0 0 511.999 511.999" style="enable-background:new 0 0 511.999 511.999;" xml:space="preserve">
<g>
	<g>
		<path d="M485.25,295.843l-105.604-17.604l-30.604-45.906c-7.938-11.896-21.208-19-35.5-19h-157.75c-14.292,0-27.563,7.104-35.5,19
			l-30.875,46.323L24.25,294.947C9.979,298.509,0,311.28,0,325.989v53.594c0,12.573,4.896,24.396,13.792,33.292
			c8.771,8.76,20.896,13.792,33.292,13.792h28.661c4.956,24.314,26.492,42.667,52.255,42.667s47.299-18.353,52.255-42.667h140.823
			c4.956,24.314,26.492,42.667,52.255,42.667s47.299-18.353,52.255-42.667h47.807c8.146,0,15.458-4.51,19.104-11.792l17.25-34.521
			c0.375-0.75,0.667-1.542,0.854-2.354l1.125-4.771c0.188-0.792,0.271-1.604,0.271-2.417v-43.406
			C512,311.687,500.75,298.416,485.25,295.843z M128,447.999c-17.646,0-32-14.354-32-32s14.354-32,32-32s32,14.354,32,32
			S145.646,447.999,128,447.999z M373.333,447.999c-17.646,0-32-14.354-32-32s14.354-32,32-32s32,14.354,32,32
			S390.979,447.999,373.333,447.999z M490.668,369.572L490.668,369.572l-17.272,35.76h-47.807
			c-4.956-24.314-26.492-42.667-52.255-42.667s-47.299,18.353-52.255,42.667H180.255c-4.956-24.314-26.492-42.667-52.255-42.667
			s-47.299,18.353-52.255,42.667H47.083c-6.771,0-13.417-2.75-18.208-7.542c-4.854-4.865-7.542-11.333-7.542-18.208v-53.593
			c0-4.906,3.333-9.156,8.083-10.354l69.167-17.292c2.583-0.635,4.813-2.219,6.292-4.427l33.167-49.75
			c3.958-5.948,10.604-9.5,17.75-9.5h157.75c7.146,0,13.792,3.552,17.75,9.5l33.167,49.75c1.625,2.458,4.208,4.125,7.125,4.604
			l110.167,18.365c5.167,0.854,8.917,5.281,8.917,10.521V369.572z"/>
	</g>
</g>
<g>
	<g>
		<path d="M483.542,145.843c-2.521-2.896-6.375-4.24-10.146-3.5l-34.188,6.729c-0.021,0.01-0.021,0.01-0.042,0.01
			c-4.146,0.854-8.333-0.458-11.271-3.396l-2.604-2.604c-9.375-9.375-11.917-23.76-6.333-35.813
			c1.417-3.052,4.458-5.438,8.125-6.375l38.292-9.75c3.542-0.896,6.375-3.542,7.521-7.01c1.125-3.469,0.417-7.281-1.917-10.094
			c-16.375-19.938-40.313-31.375-65.646-31.375c-22.896,0-44.375,9.021-60.479,25.406c-10.958,11.135-24.854,17.26-39.146,17.26H64
			c-23.521,0-42.667,19.135-42.667,42.667S40.479,170.666,64,170.666h241.708c14.292,0,28.188,6.125,39.146,17.26
			c16.104,16.385,37.583,25.406,60.479,25.406c35.875,0,68.104-22.885,80.188-56.958
			C486.792,152.759,486.042,148.739,483.542,145.843z M405.333,191.999c-17.125,0-33.208-6.76-45.271-19.031
			c-15-15.24-34.292-23.635-54.354-23.635H64c-11.771,0-21.333-9.573-21.333-21.333c0-11.76,9.562-21.334,21.333-21.334h241.708
			c20.063,0,39.354-8.396,54.354-23.635c21.146-21.5,56.688-24.719,81.125-7.74l-19.375,4.938
			c-9.813,2.51-18.104,9.26-22.188,18.063c-9.354,20.135-5.104,44.208,10.563,59.865l2.604,2.604
			c8.021,8.031,19.5,11.458,30.583,9.24l11.854-2.333C443.333,182.728,425.083,191.999,405.333,191.999z"/>
	</g>
</g>
<g>
</g>
<g>
</g>
<g>
</g>
<g>
</g>
<g>
</g>
<g>
</g>
<g>
</g>
<g>
</g>
<g>
</g>
<g>
</g>
<g>
</g>
<g>
</g>
<g>
</g>
<g>
</g>
<g>
</g>
</svg>
