<?xml version="1.0" encoding="iso-8859-1"?>
<!-- Generator: Adobe Illustrator 19.0.0, SVG Export Plug-In . SVG Version: 6.00 Build 0)  -->
<svg version="1.1" id="Capa_1" xmlns="http://www.w3.org/2000/svg" xmlns:xlink="http://www.w3.org/1999/xlink" x="0px" y="0px"
	 viewBox="0 0 512 512" style="enable-background:new 0 0 512 512;" xml:space="preserve">
<g>
	<g>
		<path d="M480,213.333c-17.646,0-32,14.354-32,32v32h-21.333V237.25c0-11.229-4.552-22.229-12.5-30.167l-23.917-23.917
			c-7.938-7.948-18.938-12.5-30.167-12.5h-61.417V128h32c17.646,0,32-14.354,32-32s-14.354-32-32-32h-128c-17.646,0-32,14.354-32,32
			s14.354,32,32,32h32v42.667h-40.083c-11.229,0-22.229,4.552-30.167,12.5l-30.167,30.167h-16.917c-17.646,0-32,14.354-32,32v32H64
			v-32c0-17.646-14.354-32-32-32s-32,14.354-32,32v128c0,17.646,14.354,32,32,32s32-14.354,32-32v-32h21.333v32
			c0,17.646,14.354,32,32,32h16.917l30.167,30.167c7.938,7.948,18.938,12.5,30.167,12.5H338.75c11.229,0,22.229-4.552,30.167-12.5
			l45.25-45.25c7.948-7.938,12.5-18.938,12.5-30.167v-18.75H448v32c0,17.646,14.354,32,32,32s32-14.354,32-32v-128
			C512,227.688,497.646,213.333,480,213.333z M490.668,373.333L490.668,373.333C490.667,379.218,485.886,384,480,384
			c-5.885,0-10.667-4.781-10.667-10.667v-42.667c0-5.896-4.771-10.667-10.667-10.667H416c-5.896,0-10.667,4.771-10.667,10.667
			v29.417c0,5.615-2.281,11.115-6.25,15.083l-45.25,45.25c-3.969,3.969-9.469,6.25-15.083,6.25H194.583
			c-5.615,0-11.115-2.281-15.083-6.25l-33.292-33.292c-2-2-4.708-3.125-7.542-3.125h-21.333c-5.885,0-10.667-4.781-10.667-10.667
			v-42.667c0-5.896-4.771-10.667-10.667-10.667H53.333c-5.896,0-10.667,4.771-10.667,10.667v42.667
			C42.667,379.219,37.885,384,32,384s-10.667-4.781-10.667-10.667v-128c0-5.885,4.781-10.667,10.667-10.667
			s10.667,4.781,10.667,10.667V288c0,5.896,4.771,10.667,10.667,10.667H96c5.896,0,10.667-4.771,10.667-10.667v-42.667
			c0-5.885,4.781-10.667,10.667-10.667h21.333c2.833,0,5.542-1.125,7.542-3.125L179.5,198.25c3.969-3.969,9.469-6.25,15.083-6.25
			h50.75c5.896,0,10.667-4.771,10.667-10.667v-64c0-5.896-4.771-10.667-10.667-10.667h-42.667C196.781,106.667,192,101.885,192,96
			s4.781-10.667,10.667-10.667h128c5.885,0,10.667,4.781,10.667,10.667s-4.781,10.667-10.667,10.667H288
			c-5.896,0-10.667,4.771-10.667,10.667v64c0,5.896,4.771,10.667,10.667,10.667h72.083c5.615,0,11.115,2.281,15.083,6.25
			l23.917,23.917c3.969,3.969,6.25,9.469,6.25,15.083V288c0,5.896,4.771,10.667,10.667,10.667h42.667
			c5.896,0,10.667-4.771,10.667-10.667v-42.667c0-5.885,4.781-10.667,10.667-10.667c5.885,0,10.667,4.781,10.667,10.667V373.333z"/>
	</g>
</g>
<g>
</g>
<g>
</g>
<g>
</g>
<g>
</g>
<g>
</g>
<g>
</g>
<g>
</g>
<g>
</g>
<g>
</g>
<g>
</g>
<g>
</g>
<g>
</g>
<g>
</g>
<g>
</g>
<g>
</g>
</svg>
