<?xml version="1.0" encoding="iso-8859-1"?>
<!-- Generator: Adobe Illustrator 19.0.0, SVG Export Plug-In . SVG Version: 6.00 Build 0)  -->
<svg version="1.1" id="Capa_1" xmlns="http://www.w3.org/2000/svg" xmlns:xlink="http://www.w3.org/1999/xlink" x="0px" y="0px"
	 viewBox="0 0 469.34 469.34" style="enable-background:new 0 0 469.34 469.34;" xml:space="preserve">
<g>
	<g>
		<path d="M277.333,42.67H192c-105.875,0-192,86.125-192,192s86.125,192,192,192h85.333c23.521,0,42.667-19.146,42.667-42.667
			V85.337C320,61.816,300.854,42.67,277.333,42.67z M277.334,405.336H192c-94.104,0-170.667-76.563-170.667-170.667
			S97.896,64.003,192,64.003h85.333c11.771,0,21.333,9.563,21.333,21.333v298.667h0.001
			C298.667,395.774,289.104,405.336,277.334,405.336z"/>
	</g>
</g>
<g>
	<g>
		<path d="M458.688,266.67c4.979,0,9.417-3.5,10.438-8.583c1.167-5.771-2.583-11.396-8.375-12.542l-66.211-13.242
			c0.469-4.117,1.863-8.164,4.753-11.534l30.375-35.438c9.577-11.156,12.326-26.288,8.271-39.932l18.646,3.729
			c0.688,0.146,1.396,0.208,2.104,0.208c4.979,0,9.417-3.5,10.438-8.583c1.167-5.771-2.583-11.396-8.375-12.542l-36.672-7.335
			L382.21,58.08c-3.313-4.938-9.938-6.208-14.792-2.958c-4.896,3.271-6.229,9.896-2.958,14.792l30.034,45.046l-40.409-8.082
			c-5.542-1.125-11.375,2.563-12.542,8.375c-1.167,5.771,2.583,11.396,8.375,12.542l61.31,12.262l3.794,5.691
			c5.271,7.917,4.646,18.479-1.563,25.708l-30.375,35.438c-5.344,6.241-8.553,13.583-9.75,21.168l-19.25-3.85
			c-5.542-1.208-11.375,2.563-12.542,8.375c-1.167,5.771,2.583,11.396,8.375,12.542l25.93,5.186
			c1.711,4.299,4.065,8.417,7.237,12.121l30.375,35.438c6.208,7.229,6.833,17.792,1.563,25.708l-17.738,26.603l-43.199-8.639
			c-5.542-1.188-11.375,2.563-12.542,8.375c-1.167,5.771,2.583,11.396,8.375,12.542l34.57,6.914l-20.029,30.039
			c-3.271,4.896-1.938,11.521,2.958,14.792c1.813,1.208,3.875,1.792,5.917,1.792c3.438,0,6.813-1.667,8.875-4.75l24.902-37.348
			l49.473,9.895c0.688,0.146,1.396,0.208,2.104,0.208c4.979,0,9.417-3.5,10.438-8.583c1.167-5.771-2.583-11.396-8.375-12.542
			l-40.844-8.169l12.865-19.294c10.563-15.854,9.271-37-3.104-51.417l-23.71-27.661l50.626,10.125
			C457.271,266.607,457.979,266.67,458.688,266.67z"/>
	</g>
</g>
<g>
</g>
<g>
</g>
<g>
</g>
<g>
</g>
<g>
</g>
<g>
</g>
<g>
</g>
<g>
</g>
<g>
</g>
<g>
</g>
<g>
</g>
<g>
</g>
<g>
</g>
<g>
</g>
<g>
</g>
</svg>
