<?xml version="1.0" encoding="iso-8859-1"?>
<!-- Generator: Adobe Illustrator 19.0.0, SVG Export Plug-In . SVG Version: 6.00 Build 0)  -->
<svg version="1.1" id="Capa_1" xmlns="http://www.w3.org/2000/svg" xmlns:xlink="http://www.w3.org/1999/xlink" x="0px" y="0px"
	 viewBox="0 0 469.334 469.334" style="enable-background:new 0 0 469.334 469.334;" xml:space="preserve">
<g>
	<g>
		<path d="M298.667,102.651V10.667C298.667,4.771,293.896,0,288,0H181.333c-5.896,0-10.667,4.771-10.667,10.667v91.984
			c-38.195,22.173-64,63.426-64,110.682c0,70.583,57.417,128,128,128s128-57.417,128-128
			C362.667,166.077,336.862,124.824,298.667,102.651z M191.999,21.333L191.999,21.333h85.334V92.8
			c-13.369-4.747-27.689-7.467-42.667-7.467c-14.978,0-29.298,2.72-42.667,7.467V21.333z M234.667,320
			C175.854,320,128,272.146,128,213.333c0-58.813,47.854-106.667,106.667-106.667s106.667,47.854,106.667,106.667
			C341.334,272.146,293.479,320,234.667,320z"/>
	</g>
</g>
<g>
	<g>
		<path d="M412.876,35.125c-4.167-4.167-10.917-4.167-15.083,0l-42.667,42.667c-4.167,4.167-4.167,10.917,0,15.083
			c2.082,2.083,4.812,3.125,7.541,3.125s5.458-1.042,7.542-3.125l42.667-42.667C417.043,46.041,417.043,39.291,412.876,35.125z"/>
	</g>
</g>
<g>
	<g>
		<path d="M114.209,77.792L71.542,35.125c-4.167-4.167-10.917-4.167-15.083,0c-4.167,4.167-4.167,10.917,0,15.083l42.666,42.667
			c2.083,2.083,4.813,3.125,7.542,3.125s5.458-1.042,7.542-3.125C118.376,88.708,118.376,81.958,114.209,77.792z"/>
	</g>
</g>
<g>
	<g>
		<path d="M412.876,376.459l-42.668-42.667c-4.167-4.167-10.917-4.167-15.083,0c-4.167,4.167-4.167,10.917,0,15.083l42.667,42.667
			c2.083,2.083,4.813,3.125,7.542,3.125s5.458-1.042,7.542-3.125C417.043,387.375,417.043,380.625,412.876,376.459z"/>
	</g>
</g>
<g>
	<g>
		<path d="M114.209,333.792c-4.167-4.167-10.917-4.167-15.084,0l-42.667,42.667c-4.167,4.167-4.167,10.917,0,15.083
			c2.083,2.083,4.813,3.125,7.542,3.125s5.458-1.042,7.542-3.125l42.667-42.667C118.376,344.708,118.376,337.958,114.209,333.792z"
			/>
	</g>
</g>
<g>
	<g>
		<path d="M53.333,213.333H10.667C4.771,213.333,0,218.104,0,224s4.771,10.667,10.667,10.667h42.667
			C59.229,234.667,64,229.896,64,224S59.229,213.333,53.333,213.333z"/>
	</g>
</g>
<g>
	<g>
		<path d="M458.667,213.333H416c-5.896,0-10.667,4.771-10.667,10.667s4.771,10.667,10.667,10.667h42.667
			c5.896,0,10.667-4.771,10.667-10.667C469.333,218.104,464.563,213.333,458.667,213.333z"/>
	</g>
</g>
<g>
	<g>
		<path d="M234.667,384c-5.896,0-10.667,4.771-10.667,10.667v64c0,5.896,4.771,10.667,10.667,10.667s10.667-4.771,10.667-10.667v-64
			C245.333,388.771,240.562,384,234.667,384z"/>
	</g>
</g>
<g>
</g>
<g>
</g>
<g>
</g>
<g>
</g>
<g>
</g>
<g>
</g>
<g>
</g>
<g>
</g>
<g>
</g>
<g>
</g>
<g>
</g>
<g>
</g>
<g>
</g>
<g>
</g>
<g>
</g>
</svg>
