<?xml version="1.0" encoding="iso-8859-1"?>
<!-- Generator: Adobe Illustrator 19.0.0, SVG Export Plug-In . SVG Version: 6.00 Build 0)  -->
<svg version="1.1" id="Capa_1" xmlns="http://www.w3.org/2000/svg" xmlns:xlink="http://www.w3.org/1999/xlink" x="0px" y="0px"
	 viewBox="0 0 512.003 512.003" style="enable-background:new 0 0 512.003 512.003;" xml:space="preserve">
<g>
	<g>
		<path d="M511.188,326.584c-1.646-3.99-5.542-6.583-9.854-6.583H256V21.334c0-11.76-9.573-21.333-21.333-21.333H192
			c-11.76,0-21.333,9.573-21.333,21.333v21.333h-32c-5.896,0-10.667,4.771-10.667,10.667v160h-21.333
			c0-11.76-9.573-21.333-21.333-21.333h-64C9.573,192.001,0,201.574,0,213.334v21.333C0,246.427,9.573,256,21.333,256h64
			c11.76,0,21.333-9.573,21.333-21.333h32c5.896,0,10.667-4.771,10.667-10.667V64h21.333v384c-23.531,0-42.667,19.135-42.667,42.667
			v10.667c0,5.896,4.771,10.667,10.667,10.667h170.667c5.896,0,10.667-4.771,10.667-10.667v-10.667
			C320,467.136,300.865,448,277.333,448H256v-42.667h27.583c5.615,0,11.115-2.281,15.083-6.25L313.749,384h131.667
			c11.229,0,22.229-4.552,30.167-12.5l33.292-33.292C511.927,335.157,512.844,330.574,511.188,326.584z M85.333,234.668h-64v-21.333
			h64V234.668z M192,21.334h42.667v64H192V21.334z M192,106.668h42.667v341.333H192V106.668z M277.333,469.335
			c11.76,0,21.333,9.573,21.333,21.333H149.333c0-11.76,9.573-21.333,21.333-21.333H277.333z M460.5,356.418
			c-3.969,3.969-9.469,6.25-15.083,6.25H309.333c-2.833,0-5.542,1.125-7.542,3.125l-18.208,18.208H256v-42.667h219.583
			L460.5,356.418z"/>
	</g>
</g>
<g>
</g>
<g>
</g>
<g>
</g>
<g>
</g>
<g>
</g>
<g>
</g>
<g>
</g>
<g>
</g>
<g>
</g>
<g>
</g>
<g>
</g>
<g>
</g>
<g>
</g>
<g>
</g>
<g>
</g>
</svg>
