<?xml version="1.0" encoding="iso-8859-1"?>
<!-- Generator: Adobe Illustrator 19.0.0, SVG Export Plug-In . SVG Version: 6.00 Build 0)  -->
<svg version="1.1" id="Capa_1" xmlns="http://www.w3.org/2000/svg" xmlns:xlink="http://www.w3.org/1999/xlink" x="0px" y="0px"
	 viewBox="0 0 469.333 469.333" style="enable-background:new 0 0 469.333 469.333;" xml:space="preserve">
<g>
	<g>
		<path d="M373.333,42.667C343.917,42.667,320,66.583,320,96s23.917,53.333,53.333,53.333S426.667,125.417,426.667,96
			S402.75,42.667,373.333,42.667z M373.333,128c-17.646,0-32-14.354-32-32s14.354-32,32-32s32,14.354,32,32S390.979,128,373.333,128
			z"/>
	</g>
</g>
<g>
	<g>
		<path d="M230.396,66.125l-85.333-64C143.192,0.728,140.932,0,138.658,0c-1.626,0-3.26,0.378-4.763,1.125
			c-3.604,1.813-5.896,5.5-5.896,9.542v32H53.333c-5.896,0-10.667,4.771-10.667,10.667V96c0.001,5.896,4.771,10.667,10.667,10.667
			H128v32c0,4.042,2.292,7.729,5.896,9.542c1.5,0.75,3.146,1.125,4.771,1.125c2.271,0,4.521-0.729,6.396-2.125l85.333-64
			c2.688-2.021,4.271-5.188,4.271-8.542S233.084,68.146,230.396,66.125z M149.334,117.334V96c0-5.896-4.771-10.667-10.667-10.667H64
			V64h74.667c5.896,0,10.667-4.771,10.667-10.667V32l56.896,42.667L149.334,117.334z"/>
	</g>
</g>
<g>
	<g>
		<path d="M378.333,172.312c-0.021-0.021-0.042-0.021-0.042-0.021c-6.208-1.958-19.688-2.833-30.583,1.604l-88.313,39.438h-78.042
			c-17.646,0-32,14.354-32,32s14.354,32,32,32h85.354c4.938,0,9.875-1.167,13.896-3.167l39.042-17.354l-12.917,50.917l-149.917-9
			c-12.188-0.875-24.063,4.708-31.583,14.354l-74.688,96c-6.125,7.854-8.813,17.646-7.583,27.542
			c1.229,9.896,6.25,18.708,14.125,24.833c6.604,5.146,14.542,7.875,22.896,7.875c11.604,0,22.354-5.25,29.479-14.417l62.625-80.479
			l158.021,9.5c0.813,0.042,4.063,0.083,4.917,0.083c16.229,0,30.583-11.896,34.938-28.938l34.125-134.417
			C409.292,200.25,397.729,178.562,378.333,172.312z M383.417,215.417l-34.125,134.396c-1.938,7.583-7.813,12.875-14.271,12.875
			l-167.25-9.875c-3.75-0.313-6.917,1.313-9.063,4.104l-66.083,84.917c-5.271,6.729-15.625,8.063-22.458,2.792
			c-3.354-2.625-5.521-6.396-6.042-10.646c-0.521-4.229,0.625-8.438,3.25-11.813l74.688-95.979
			c3.042-3.917,7.771-6.188,12.708-6.188c0.271,0,0.563,0,0.833,0.021l158.646,9.521c5.563,0.542,9.729-3.063,10.979-8.021
			l20.5-80.75c1.021-3.958-0.333-8.146-3.458-10.771c-3.104-2.625-7.438-3.271-11.208-1.604l-59.542,26.458
			c-1.5,0.75-3.167,1.146-4.813,1.146h-85.354c-5.875,0-10.667-4.792-10.667-10.667s4.792-10.667,10.667-10.667h80.312
			c1.5,0,2.979-0.313,4.354-0.938l90.042-40.208c5.646-2.313,13.875-1.479,15.771-0.896
			C380.396,195.417,385.792,206.042,383.417,215.417z"/>
	</g>
</g>
<g>
</g>
<g>
</g>
<g>
</g>
<g>
</g>
<g>
</g>
<g>
</g>
<g>
</g>
<g>
</g>
<g>
</g>
<g>
</g>
<g>
</g>
<g>
</g>
<g>
</g>
<g>
</g>
<g>
</g>
</svg>
