<?xml version="1.0" encoding="iso-8859-1"?>
<!-- Generator: Adobe Illustrator 19.0.0, SVG Export Plug-In . SVG Version: 6.00 Build 0)  -->
<svg version="1.1" id="Capa_1" xmlns="http://www.w3.org/2000/svg" xmlns:xlink="http://www.w3.org/1999/xlink" x="0px" y="0px"
	 viewBox="0 0 512 512" style="enable-background:new 0 0 512 512;" xml:space="preserve">
<g>
	<g>
		<path d="M285.384,119.708c-15-16.583-43.77-16.583-58.77,0c-7.5,8.292-11.156,19.417-10.031,30.583L234.666,320
			c0,10.333,7.479,21.333,21.333,21.333s21.333-11,21.271-20.208l18.156-170.896C296.541,139.125,292.884,128,285.384,119.708z
			 M274.207,148.042l-17.615,171.917c0,0-0.188,0.042-0.594,0.042L237.8,148.105c-0.521-5.208,1.125-10.208,4.635-14.083
			S250.759,128,255.999,128s10.052,2.146,13.563,6.021S274.718,142.896,274.207,148.042z"/>
	</g>
</g>
<g>
	<g>
		<path d="M255.999,362.667c-11.76,0-21.333,9.563-21.333,21.333c0,11.771,9.573,21.333,21.333,21.333s21.333-9.563,21.333-21.333
			C277.332,372.229,267.759,362.667,255.999,362.667z"/>
	</g>
</g>
<g>
	<g>
		<path d="M255.999,64c-105.875,0-192,86.125-192,192s86.125,192,192,192s192-86.125,192-192S361.874,64,255.999,64z
			 M255.999,426.667c-94.104,0-170.667-76.563-170.667-170.667S161.895,85.333,255.999,85.333S426.666,161.896,426.666,256
			S350.103,426.667,255.999,426.667z"/>
	</g>
</g>
<g>
	<g>
		<path d="M89.984,82.985c4.169-4.344,4.169-11.382,0-15.727c-4.169-4.344-10.922-4.344-15.09,0
			c-99.859,104.07-99.859,273.414,0,377.483c2.084,2.172,4.815,3.258,7.545,3.258s5.461-1.086,7.545-3.258
			c4.169-4.344,4.169-11.382,0-15.727C-1.559,333.612-1.559,178.388,89.984,82.985z"/>
	</g>
</g>
<g>
	<g>
		<path d="M437.105,67.258c-4.169-4.344-10.922-4.344-15.09,0c-4.169,4.344-4.169,11.382,0,15.727
			c91.543,95.403,91.543,250.627,0,346.03c-4.169,4.344-4.169,11.382,0,15.727c2.084,2.172,4.815,3.258,7.545,3.258
			c2.73,0,5.461-1.086,7.545-3.258C536.964,340.672,536.964,171.328,437.105,67.258z"/>
	</g>
</g>
<g>
</g>
<g>
</g>
<g>
</g>
<g>
</g>
<g>
</g>
<g>
</g>
<g>
</g>
<g>
</g>
<g>
</g>
<g>
</g>
<g>
</g>
<g>
</g>
<g>
</g>
<g>
</g>
<g>
</g>
</svg>
