<?xml version="1.0" encoding="iso-8859-1"?>
<!-- Generator: Adobe Illustrator 19.0.0, SVG Export Plug-In . SVG Version: 6.00 Build 0)  -->
<svg version="1.1" id="Capa_1" xmlns="http://www.w3.org/2000/svg" xmlns:xlink="http://www.w3.org/1999/xlink" x="0px" y="0px"
	 viewBox="0 0 512 512" style="enable-background:new 0 0 512 512;" xml:space="preserve">
<g>
	<g>
		<path d="M309.333,42.667h-192c-5.896,0-10.667,4.771-10.667,10.667v149.333c0,5.896,4.771,10.667,10.667,10.667h192
			c5.896,0,10.667-4.771,10.667-10.667V53.333C320,47.438,315.229,42.667,309.333,42.667z M298.667,192H128V64h170.667V192z"/>
	</g>
</g>
<g>
	<g>
		<path d="M444.167,66.479l-64-53.333c-4.5-3.75-11.229-3.167-15.021,1.354c-3.771,4.521-3.167,11.25,1.354,15.021l27.328,22.776
			c-11.668,22.169-6.458,49.402,13.547,65.391l19.292,15.444V416c0,4.792-5.875,10.667-10.667,10.667s-10.667-5.875-10.667-10.667
			v-42.667c0-25.763-18.348-47.301-42.667-52.255V42.667C362.667,19.146,343.521,0,320,0H106.667C83.146,0,64,19.146,64,42.667
			v426.667C64,492.854,83.146,512,106.667,512H320c23.521,0,42.667-19.146,42.667-42.667V343.298
			C375.056,347.716,384,359.445,384,373.333V416c0,16.458,15.542,32,32,32s32-15.542,32-32V74.667
			C448,71.5,446.604,68.5,444.167,66.479z M341.333,469.333c0,11.771-9.563,21.333-21.333,21.333H106.667
			c-11.771,0-21.333-9.563-21.333-21.333V42.667c0-11.771,9.563-21.333,21.333-21.333H320c11.771,0,21.333,9.563,21.333,21.333
			V469.333z M426.668,105.79L426.668,105.79l-5.959-4.77c-10.587-8.462-13.845-22.143-9.648-34.362l15.607,13.008V105.79z"/>
	</g>
</g>
<g>
	<g>
		<path d="M309.333,234.667h-192c-5.896,0-10.667,4.771-10.667,10.667s4.771,10.667,10.667,10.667h192
			c5.896,0,10.667-4.771,10.667-10.667S315.229,234.667,309.333,234.667z"/>
	</g>
</g>
<g>
</g>
<g>
</g>
<g>
</g>
<g>
</g>
<g>
</g>
<g>
</g>
<g>
</g>
<g>
</g>
<g>
</g>
<g>
</g>
<g>
</g>
<g>
</g>
<g>
</g>
<g>
</g>
<g>
</g>
</svg>
