<?xml version="1.0" encoding="iso-8859-1"?>
<!-- Generator: Adobe Illustrator 19.0.0, SVG Export Plug-In . SVG Version: 6.00 Build 0)  -->
<svg version="1.1" id="Capa_1" xmlns="http://www.w3.org/2000/svg" xmlns:xlink="http://www.w3.org/1999/xlink" x="0px" y="0px"
	 viewBox="0 0 469.334 469.334" style="enable-background:new 0 0 469.334 469.334;" xml:space="preserve">
<g>
	<g>
		<path d="M414.167,185.75L304.917,76.5C296.979,68.552,285.979,64,274.75,64h-40.083V32c0-17.646-14.354-32-32-32h-85.333
			c-17.646,0-32,14.354-32,32v32c-23.521,0-42.667,19.135-42.667,42.667v320c0,23.531,19.146,42.667,42.667,42.667H384
			c23.521,0,42.667-19.135,42.667-42.667v-210.75C426.667,204.687,422.104,193.687,414.167,185.75z M106.667,32
			c0-5.885,4.792-10.667,10.667-10.667h85.333c5.875,0,10.667,4.781,10.667,10.667v32H106.667V32z M405.333,426.667
			c0,11.76-9.563,21.333-21.333,21.333H85.333C73.562,448,64,438.427,64,426.667v-320c0-11.76,9.563-21.333,21.333-21.333H274.75
			c5.604,0,11.104,2.281,15.083,6.25l109.25,109.25c3.979,3.969,6.25,9.469,6.25,15.083V426.667z"/>
	</g>
</g>
<g>
	<g>
		<path d="M363.958,212.041l-85.333-85.333c-12.458-12.479-32.792-12.479-45.25,0c-12.479,12.479-12.479,32.771,0,45.25
			l85.333,85.333c6.042,6.042,14.083,9.375,22.625,9.375s16.583-3.333,22.625-9.375C376.437,244.812,376.437,224.52,363.958,212.041
			z M348.875,242.208c-4.042,4.021-11.042,4.021-15.083,0l-85.333-85.333c-4.167-4.156-4.167-10.927,0-15.083
			c2.083-2.083,4.813-3.115,7.542-3.115s5.458,1.031,7.542,3.115l85.333,85.333C353.042,231.281,353.042,238.052,348.875,242.208z"
			/>
	</g>
</g>
<g>
	<g>
		<path d="M210,258.927c-4.125-3.896-10.542-3.896-14.667,0c-7.688,7.281-46,44.948-46,71.74c0,29.406,23.917,53.333,53.333,53.333
			S256,360.073,256,330.667C256,303.875,217.687,266.208,210,258.927z M202.667,362.667c-17.646,0-32-14.354-32-32
			c0-11.188,16.896-33.125,32-48.938c15.104,15.792,32,37.729,32,48.938C234.667,348.313,220.312,362.667,202.667,362.667z"/>
	</g>
</g>
<g>
</g>
<g>
</g>
<g>
</g>
<g>
</g>
<g>
</g>
<g>
</g>
<g>
</g>
<g>
</g>
<g>
</g>
<g>
</g>
<g>
</g>
<g>
</g>
<g>
</g>
<g>
</g>
<g>
</g>
</svg>
