<?xml version="1.0" encoding="iso-8859-1"?>
<!-- Generator: Adobe Illustrator 19.0.0, SVG Export Plug-In . SVG Version: 6.00 Build 0)  -->
<svg version="1.1" id="Capa_1" xmlns="http://www.w3.org/2000/svg" xmlns:xlink="http://www.w3.org/1999/xlink" x="0px" y="0px"
	 viewBox="0 0 511.999 511.999" style="enable-background:new 0 0 511.999 511.999;" xml:space="preserve">
<g>
	<g>
		<path d="M485.25,210.51l-110.167-18.365c-5.708-1.031-11.292,2.948-12.271,8.771c-0.979,5.802,2.958,11.302,8.771,12.271
			l110.167,18.365c5.167,0.854,8.917,5.281,8.917,10.521v42.167L473.417,320h-47.828c-4.956-24.314-26.492-42.667-52.255-42.667
			S326.035,295.686,321.079,320H180.255c-4.956-24.314-26.492-42.667-52.255-42.667c-25.743,0-47.273,18.324-52.25,42.611
			L47.083,320c-6.771,0-13.417-2.75-18.208-7.542c-4.854-4.865-7.542-11.333-7.542-18.208v-53.594c0-4.906,3.333-9.156,8.083-10.354
			l69.167-17.292c2.583-0.635,4.813-2.219,6.292-4.427l33.167-49.75c3.958-5.948,10.604-9.5,17.75-9.5h157.75
			c5.896,0,10.667-4.771,10.667-10.667s-4.771-10.667-10.667-10.667h-157.75c-14.292,0-27.563,7.104-35.5,19l-30.875,46.323
			L24.25,209.615C9.979,213.177,0,225.948,0,240.656v53.594c0,12.573,4.896,24.396,13.792,33.292
			c8.771,8.76,20.896,13.792,33.313,13.792l28.634-0.056C80.673,365.619,102.217,384,128,384c25.763,0,47.299-18.353,52.255-42.667
			h140.823C326.034,365.647,347.57,384,373.333,384s47.299-18.353,52.255-42.667h47.828c8.125,0,15.438-4.51,19.083-11.792
			l17.25-34.521c0.375-0.75,0.667-1.542,0.854-2.354l1.125-4.771c0.188-0.792,0.271-1.604,0.271-2.417v-43.406
			C512,226.354,500.75,213.083,485.25,210.51z M128,362.667c-17.646,0-32-14.354-32-32s14.354-32,32-32s32,14.354,32,32
			S145.646,362.667,128,362.667z M373.333,362.667c-17.646,0-32-14.354-32-32s14.354-32,32-32s32,14.354,32,32
			S390.979,362.667,373.333,362.667z"/>
	</g>
</g>
<g>
	<g>
		<path d="M437.334,149.331h-74.667C339.146,149.333,320,168.469,320,192c0,11.76-9.562,21.333-21.333,21.333h-60.771l2.688-1.792
			c4.896-3.271,6.229-9.885,2.958-14.792c-3.292-4.917-9.958-6.229-14.792-2.958l-32,21.333c-2.958,1.979-4.75,5.313-4.75,8.875
			c0,3.562,1.792,6.896,4.75,8.875l32,21.333c1.813,1.208,3.875,1.792,5.917,1.792c3.438,0,6.813-1.667,8.875-4.75
			c3.271-4.906,1.938-11.521-2.958-14.792l-2.688-1.792h60.771c23.521,0,42.667-19.135,42.667-42.667
			c0-11.76,9.563-21.333,21.333-21.333h74.667c5.896,0,10.667-4.771,10.667-10.667S443.23,149.331,437.334,149.331z"/>
	</g>
</g>
<g>
</g>
<g>
</g>
<g>
</g>
<g>
</g>
<g>
</g>
<g>
</g>
<g>
</g>
<g>
</g>
<g>
</g>
<g>
</g>
<g>
</g>
<g>
</g>
<g>
</g>
<g>
</g>
<g>
</g>
</svg>
