<?xml version="1.0" encoding="iso-8859-1"?>
<!-- Generator: Adobe Illustrator 19.0.0, SVG Export Plug-In . SVG Version: 6.00 Build 0)  -->
<svg version="1.1" id="Capa_1" xmlns="http://www.w3.org/2000/svg" xmlns:xlink="http://www.w3.org/1999/xlink" x="0px" y="0px"
	 viewBox="0 0 512.001 512.001" style="enable-background:new 0 0 512.001 512.001;" xml:space="preserve">
<g>
	<g>
		<path d="M485.26,295.834L379.645,278.23l-30.604-45.896c-7.938-11.896-21.208-19-35.5-19h-157.75c-14.292,0-27.563,7.104-35.5,19
			l-30.875,46.313l-65.188,16.292C9.969,298.522,0,311.272,0,325.98v53.604c0,12.583,4.896,24.396,13.792,33.292
			s20.719,13.792,33.292,13.792h28.663c4.956,24.319,26.5,42.667,52.254,42.667c25.754,0,47.298-18.348,52.254-42.667h140.826
			c4.956,24.319,26.5,42.667,52.254,42.667c25.754,0,47.298-18.348,52.254-42.667h47.819c8.135,0,15.448-4.521,19.083-11.792
			l17.26-34.521c0.375-0.75,0.719-1.813,0.906-2.625l1.052-4.417c0.188-0.833,0.292-1.667,0.292-2.5v-43.417
			C512,311.709,500.76,298.439,485.26,295.834z M128,448.001c-17.646,0-32-14.354-32-32s14.354-32,32-32s32,14.354,32,32
			S145.646,448.001,128,448.001z M373.333,448.001c-17.646,0-32-14.354-32-32s14.354-32,32-32s32,14.354,32,32
			S390.979,448.001,373.333,448.001z M490.667,369.564l-17.26,35.771h-47.819c-4.956-24.319-26.5-42.667-52.254-42.667
			c-25.754,0-47.298,18.348-52.254,42.667H180.254c-4.956-24.319-26.5-42.667-52.254-42.667c-25.754,0-47.298,18.348-52.254,42.667
			H47.083c-6.875,0-13.344-2.688-18.208-7.542c-4.865-4.875-7.542-11.333-7.542-18.208V325.98c0-4.896,3.323-9.146,8.073-10.333
			l69.177-17.292c2.573-0.646,4.823-2.229,6.292-4.438l33.167-49.75c3.969-5.938,10.604-9.5,17.75-9.5h157.75
			c7.146,0,13.781,3.563,17.75,9.5l33.167,49.75c1.635,2.458,4.219,4.125,7.125,4.604l110.156,18.354
			c5.177,0.875,8.927,5.292,8.927,10.521V369.564z"/>
	</g>
</g>
<g>
	<g>
		<path d="M394.666,42.667H117.333c-5.896,0-10.667,4.771-10.667,10.667c0.001,5.896,4.772,10.667,10.667,10.667h277.333
			c5.896,0,10.667-4.771,10.667-10.667S400.562,42.667,394.666,42.667z"/>
	</g>
</g>
<g>
	<g>
		<path d="M168.771,89.939c-3.979-5.75-13.563-5.75-17.542,0C144.24,100.043,128,125.022,128,138.668c0,17.646,14.354,32,32,32
			s32-14.354,32-32C192,125.022,175.76,100.043,168.771,89.939z M160,149.335c-5.885,0-10.667-4.792-10.667-10.646
			c0.083-3.271,4.521-12.563,10.667-22.917c6.146,10.333,10.583,19.646,10.667,22.917C170.657,144.564,165.875,149.335,160,149.335z
			"/>
	</g>
</g>
<g>
	<g>
		<path d="M254.105,111.272c-3.98-5.75-13.563-5.75-17.542,0c-6.99,10.104-23.229,35.083-23.229,48.729c0,17.646,14.354,32,32,32
			c17.646,0,32-14.354,32-32C277.334,146.355,261.094,121.376,254.105,111.272z M245.333,170.668
			c-5.885,0-10.667-4.792-10.667-10.646c0.083-3.271,4.521-12.563,10.667-22.917c6.146,10.334,10.584,19.646,10.667,22.917
			C255.99,165.897,251.208,170.668,245.333,170.668z"/>
	</g>
</g>
<g>
	<g>
		<path d="M339.438,89.939c-3.98-5.75-13.563-5.75-17.542,0c-6.99,10.104-23.229,35.083-23.229,48.729c0,17.646,14.354,32,32,32
			s32-14.354,32-32C362.667,125.022,346.427,100.043,339.438,89.939z M330.666,149.335c-5.885,0-10.667-4.792-10.667-10.646
			c0.083-3.271,4.521-12.563,10.667-22.917c6.147,10.333,10.584,19.646,10.667,22.917
			C341.323,144.564,336.541,149.335,330.666,149.335z"/>
	</g>
</g>
<g>
</g>
<g>
</g>
<g>
</g>
<g>
</g>
<g>
</g>
<g>
</g>
<g>
</g>
<g>
</g>
<g>
</g>
<g>
</g>
<g>
</g>
<g>
</g>
<g>
</g>
<g>
</g>
<g>
</g>
</svg>
