<?xml version="1.0" encoding="iso-8859-1"?>
<!-- Generator: Adobe Illustrator 19.0.0, SVG Export Plug-In . SVG Version: 6.00 Build 0)  -->
<svg version="1.1" id="Capa_1" xmlns="http://www.w3.org/2000/svg" xmlns:xlink="http://www.w3.org/1999/xlink" x="0px" y="0px"
	 viewBox="0 0 426.668 426.668" style="enable-background:new 0 0 426.668 426.668;" xml:space="preserve">
<g>
	<g>
		<path d="M423.542,344.295L292.385,212.878l3.125-3.131c2.531-2.536,3.625-6.189,2.906-9.707c-0.719-3.517-3.156-6.44-6.49-7.776
			l-15.408-6.178l14.605-14.635c11.573-11.596,18.208-27.649,18.208-44.046c0-16.397-6.635-32.45-18.208-44.046L225.29,17.394
			c-23.146-23.192-64.771-23.192-87.917,0L18.208,136.799C6.635,148.395,0,164.448,0,180.845s6.635,32.45,18.208,44.046
			l65.833,65.965c11.573,11.596,27.594,18.245,43.958,18.245c16.365,0,32.385-6.649,43.958-18.245l14.605-14.635l6.165,15.438
			c1.333,3.34,4.25,5.782,7.76,6.503c3.563,0.689,7.146-0.376,9.688-2.912l3.125-3.131l56.49,56.602
			c2,2.004,4.708,3.131,7.542,3.131H288c0,5.908,4.771,10.688,10.667,10.688H320v21.376c0,5.908,4.771,10.688,10.667,10.688v10.688
			c0,2.839,1.125,5.553,3.125,7.557l10.667,10.688c2,2.004,4.708,3.131,7.542,3.131h64c5.896,0,10.667-4.78,10.667-10.688v-64.128
			C426.667,349.013,425.542,346.299,423.542,344.295z M156.875,276.043c-15.208,15.208-42.542,15.208-57.75,0L33.292,210.21
			c-7.604-7.604-11.958-18.125-11.958-28.875s4.354-21.271,11.958-28.875L152.458,33.293c7.604-7.604,18.125-11.958,28.875-11.958
			s21.271,4.354,28.875,11.958l65.833,65.833C283.646,106.73,288,117.251,288,128.001s-4.354,21.271-11.958,28.875L156.875,276.043z
			 M405.333,405.334h-48.917L352,400.918v-16.917c0-5.896-4.771-10.667-10.667-10.667v-21.333c0-5.896-4.771-10.667-10.667-10.667
			h-21.333c0-5.896-4.771-10.667-10.667-10.667H281.75l-60.906-60.906c-3.917-3.927-10.125-4.156-14.292-0.719l-3.576-8.935
			l57.13-57.13l8.935,3.576c-3.438,4.188-3.198,10.385,0.719,14.292l135.573,135.573V405.334z"/>
	</g>
</g>
<g>
	<g>
		<path d="M204.876,83.126c-12.98-12.979-34.105-12.979-47.084,0l-74.667,74.667c-12.979,12.979-12.979,34.104,0,47.083
			c6.49,6.49,15.021,9.74,23.542,9.74s17.052-3.25,23.542-9.74l74.667-74.667C217.855,117.23,217.855,96.105,204.876,83.126z
			 M189.792,115.126l-74.667,74.667c-4.521,4.521-12.396,4.521-16.917,0c-2.26-2.26-3.5-5.26-3.5-8.458s1.24-6.198,3.5-8.458
			l74.667-74.667c2.26-2.26,5.26-3.5,8.458-3.5s6.198,1.24,8.458,3.5s3.5,5.26,3.5,8.458
			C193.292,109.866,192.052,112.866,189.792,115.126z"/>
	</g>
</g>
<g>
</g>
<g>
</g>
<g>
</g>
<g>
</g>
<g>
</g>
<g>
</g>
<g>
</g>
<g>
</g>
<g>
</g>
<g>
</g>
<g>
</g>
<g>
</g>
<g>
</g>
<g>
</g>
<g>
</g>
</svg>
