<?xml version="1.0" encoding="iso-8859-1"?>
<!-- Generator: Adobe Illustrator 19.0.0, SVG Export Plug-In . SVG Version: 6.00 Build 0)  -->
<svg version="1.1" id="Capa_1" xmlns="http://www.w3.org/2000/svg" xmlns:xlink="http://www.w3.org/1999/xlink" x="0px" y="0px"
	 viewBox="0 0 512 512" style="enable-background:new 0 0 512 512;" xml:space="preserve">
<g>
	<g>
		<path d="M373.333,42.667h-74.667C298.667,19.135,279.531,0,256,0s-42.667,19.135-42.667,42.667h-74.667
			C97.5,42.667,64,76.167,64,117.333v320C64,478.5,97.5,512,138.667,512h234.667C414.5,512,448,478.5,448,437.333v-320
			C448,76.167,414.5,42.667,373.333,42.667z M256,21.333c11.76,0,21.333,9.573,21.333,21.333h-42.667
			C234.667,30.906,244.24,21.333,256,21.333z M426.667,437.333L426.667,437.333c0,29.406-23.927,53.333-53.333,53.333H138.667
			c-29.406,0-53.333-23.927-53.333-53.333v-320C85.333,87.927,109.26,64,138.667,64h234.667c29.406,0,53.333,23.927,53.333,53.333
			V437.333z"/>
	</g>
</g>
<g>
	<g>
		<path d="M362.667,85.333H149.333c-23.531,0-42.667,19.135-42.667,42.667v298.667c0,23.531,19.135,42.667,42.667,42.667h213.333
			c23.531,0,42.667-19.135,42.667-42.667V128C405.333,104.469,386.198,85.333,362.667,85.333z M362.667,448H149.333
			c-11.76,0-21.333-9.573-21.333-21.333V128c0-11.76,9.573-21.333,21.333-21.333h213.333c11.76,0,21.333,9.573,21.333,21.333
			v298.667H384C384,438.427,374.427,448,362.667,448z"/>
	</g>
</g>
<g>
	<g>
		<path d="M330.667,245.333v-10.667C330.667,193.5,297.167,160,256,160s-74.667,33.5-74.667,74.667v10.667
			c-11.76,0-21.333,9.573-21.333,21.333v106.667c0,11.76,9.573,21.333,21.333,21.333h149.333c11.76,0,21.333-9.573,21.333-21.333
			V266.667C352,254.906,342.427,245.333,330.667,245.333z M202.667,234.667c0-29.406,23.927-53.333,53.333-53.333
			s53.333,23.927,53.333,53.333v10.667H202.667V234.667z M181.333,373.333V266.667h149.333v106.666H181.333z"/>
	</g>
</g>
<g>
	<g>
		<path d="M256.001,288.001c-11.76,0-21.333,9.573-21.333,21.333c-0.001,7.791,4.408,14.329,10.665,18.053v13.947
			c0,5.896,4.771,10.667,10.667,10.667s10.667-4.771,10.667-10.667v-13.947c6.258-3.724,10.667-10.262,10.667-18.053
			C277.334,297.574,267.761,288.001,256.001,288.001z"/>
	</g>
</g>
<g>
</g>
<g>
</g>
<g>
</g>
<g>
</g>
<g>
</g>
<g>
</g>
<g>
</g>
<g>
</g>
<g>
</g>
<g>
</g>
<g>
</g>
<g>
</g>
<g>
</g>
<g>
</g>
<g>
</g>
</svg>
