<?xml version="1.0" encoding="iso-8859-1"?>
<!-- Generator: Adobe Illustrator 19.0.0, SVG Export Plug-In . SVG Version: 6.00 Build 0)  -->
<svg version="1.1" id="Capa_1" xmlns="http://www.w3.org/2000/svg" xmlns:xlink="http://www.w3.org/1999/xlink" x="0px" y="0px"
	 viewBox="0 0 512 512" style="enable-background:new 0 0 512 512;" xml:space="preserve">
<g>
	<g>
		<path d="M488.771,281.938c-3.958-5.771-13.583-5.771-17.542,0C464.25,292.052,448,317.031,448,330.667c0,17.646,14.354,32,32,32
			s32-14.354,32-32C512,317.031,495.75,292.052,488.771,281.938z M480,341.333c-5.875,0-10.667-4.781-10.667-10.656
			c0.083-3.26,4.521-12.552,10.667-22.906c6.146,10.333,10.563,19.625,10.667,22.896C490.667,336.552,485.875,341.333,480,341.333z"
			/>
	</g>
</g>
<g>
	<g>
		<path d="M120.835,170.115c-7.439-13.011-20.71-20.782-35.502-20.782c-15.688,0-29.771,8.708-36.75,22.708l-1.604,3.167
			c-2.813,5.698-4.313,12.042-4.313,18.344V294.25c0,6.844,2.667,13.302,7.563,18.219C55.083,317.323,61.563,320,68.417,320h6.5
			c2.875,0,5.625-1.156,7.625-3.219c2.021-2.052,3.104-4.833,3.042-7.698c-0.021-0.833-0.104-1.656-0.25-2.333
			c0-25.719,3.167-51.417,9.417-76.396l1.146-4.604c3.896-15.583,12.042-30.51,23.563-43.156
			C122.585,179.167,123.148,174.125,120.835,170.115z M75.188,220.594c0,0,0,0,0,0.01l-1.146,4.594
			c-5.75,23.021-9.063,46.635-9.854,70.333C64.063,295.125,64,294.698,64,294.25V193.552c0-3.031,0.729-6.104,2.063-8.823
			l1.583-3.125c3.375-6.75,10.146-10.938,17.688-10.938c4.646,0,8.979,1.635,12.438,4.542
			C86.979,188.885,79.229,204.417,75.188,220.594z"/>
	</g>
</g>
<g>
	<g>
		<path d="M485.042,150.594c-3.458-1.854-7.667-1.646-10.958,0.531l-116.375,77.583l-10-29.958
			c-5.042-15.135-13.688-29.125-25-40.448c-12.76-12.775-28.434-21.352-45.375-26.068v-25.568c0-11.76-9.563-21.333-21.333-21.333
			h-64c-11.771,0-21.333,9.573-21.333,21.333v23.62c-7.266,1.409-14.424,3.422-21.313,6.109
			c-21.083-25.219-54.438-35.604-87.5-26.521c-22.083,6.073-41.063,22.24-52.021,44.271c-0.021,0.021-1,1.938-1,1.958
			C3.063,167.698,0,180.646,0,193.552V294.25c0,18.281,7.125,35.469,20.042,48.375c12.938,12.927,30.125,20.042,48.375,20.042h9.75
			c5.708,10.979,12.75,20.677,20.958,28.875c22.667,22.656,52.771,35.125,84.792,35.125h86.354c12.917,0,25.667-2.073,37.917-6.156
			L323,415.573c23.25-7.75,43.313-22.208,58.021-41.813l107.521-143.365c1.375-1.843,2.125-4.082,2.125-6.395v-64
			C490.667,156.062,488.5,152.448,485.042,150.594z M191.999,106.667L191.999,106.667H256v21.962
			c-2.164-0.134-4.251-0.629-6.438-0.629h-55.771c-0.599,0-1.193,0.16-1.792,0.169V106.667z M469.335,220.448h-0.002
			l-105.396,140.51c-12.083,16.125-28.583,28.01-47.688,34.385l-14.813,4.938c-10.063,3.354-20.542,5.052-31.167,5.052h-86.354
			c-26.313,0-51.083-10.26-69.708-28.875c-7.938-7.917-14.542-17.635-19.667-28.885c-1.729-3.802-5.521-6.24-9.708-6.24H68.417
			c-12.563,0-24.396-4.896-33.292-13.792c-8.896-8.885-13.792-20.708-13.792-33.292V193.552c0-9.625,2.271-19.281,6.542-27.854
			c0.021-0.021,1-1.938,1-1.958c8.313-16.698,22.396-28.833,38.646-33.302C73.5,128.802,79.479,128,85.354,128
			c20.646,0,39.813,9.854,51.667,27.469c2.958,4.375,8.625,5.948,13.438,3.677c13.479-6.417,28.458-9.813,43.333-9.813h55.771
			c21.938,0,42.563,8.542,58.063,24.052c8.979,8.99,15.854,20.083,19.833,32.104l14.417,43.219c1.063,3.156,3.521,5.635,6.667,6.719
			c3.146,1.083,6.604,0.625,9.375-1.219l111.417-74.281V220.448z"/>
	</g>
</g>
<g>
</g>
<g>
</g>
<g>
</g>
<g>
</g>
<g>
</g>
<g>
</g>
<g>
</g>
<g>
</g>
<g>
</g>
<g>
</g>
<g>
</g>
<g>
</g>
<g>
</g>
<g>
</g>
<g>
</g>
</svg>
