<?xml version="1.0" encoding="iso-8859-1"?>
<!-- Generator: Adobe Illustrator 19.0.0, SVG Export Plug-In . SVG Version: 6.00 Build 0)  -->
<svg version="1.1" id="Capa_1" xmlns="http://www.w3.org/2000/svg" xmlns:xlink="http://www.w3.org/1999/xlink" x="0px" y="0px"
	 viewBox="0 0 469.334 469.334" style="enable-background:new 0 0 469.334 469.334;" xml:space="preserve">
<g>
	<g>
		<path d="M463.042,381.479L276.281,44.542C267.302,30,251.74,21.334,234.667,21.334S202.031,30,192.792,44.979L6.552,381.042
			C2.26,387.979,0,395.958,0,404.104C0,428.313,19.687,448,43.896,448h381.542c24.208,0,43.896-19.688,43.896-43.896
			C469.333,395.958,467.073,387.979,463.042,381.479z M425.438,426.667H43.896c-12.437,0-22.562-10.125-22.562-22.563
			c0-4.188,1.167-8.292,3.625-12.292L211.198,55.75c4.99-8.063,13.979-13.083,23.469-13.083s18.479,5.021,23.208,12.646
			l186.76,336.938c2.198,3.563,3.365,7.667,3.365,11.854C448,416.542,437.875,426.667,425.438,426.667z"/>
	</g>
</g>
<g>
	<g>
		<path d="M409.936,373.667L253.344,91.063c-3.75-6.771-10.896-11-18.646-11h-0.01c-7.75,0-14.906,4.208-18.667,11L59.354,373.667
			c-3.698,6.667-3.594,14.583,0.281,21.167c3.875,6.563,10.75,10.5,18.385,10.5h313.25c7.635,0,14.51-3.938,18.385-10.5
			C413.53,388.251,413.634,380.334,409.936,373.667z M77.99,384.042l-9.302-5.208L78.021,384l156.656-282.604L391.271,384
			L77.99,384.042z"/>
	</g>
</g>
<g>
</g>
<g>
</g>
<g>
</g>
<g>
</g>
<g>
</g>
<g>
</g>
<g>
</g>
<g>
</g>
<g>
</g>
<g>
</g>
<g>
</g>
<g>
</g>
<g>
</g>
<g>
</g>
<g>
</g>
</svg>
