<?xml version="1.0" encoding="iso-8859-1"?>
<!-- Generator: Adobe Illustrator 19.0.0, SVG Export Plug-In . SVG Version: 6.00 Build 0)  -->
<svg version="1.1" id="Capa_1" xmlns="http://www.w3.org/2000/svg" xmlns:xlink="http://www.w3.org/1999/xlink" x="0px" y="0px"
	 viewBox="0 0 469.333 469.333" style="enable-background:new 0 0 469.333 469.333;" xml:space="preserve">
<g>
	<g>
		<path d="M400.21,211.791c-16.575-70.083-72.575-126.072-142.668-142.656c-5.792-1.385-11.49,2.177-12.833,7.917
			c-1.365,5.74,2.188,11.479,7.917,12.833c62.312,14.75,112.083,64.521,126.813,126.823c1.167,4.906,5.542,8.208,10.375,8.208
			c0.813,0,1.635-0.094,2.469-0.281C398.012,223.27,401.564,217.531,400.21,211.791z"/>
	</g>
</g>
<g>
	<g>
		<path d="M213.333,192c-35.292,0-64,28.708-64,64s28.708,64,64,64s64-28.708,64-64S248.625,192,213.333,192z M213.333,298.667
			c-23.531,0-42.667-19.135-42.667-42.667s19.135-42.667,42.667-42.667C236.865,213.333,256,232.469,256,256
			S236.865,298.667,213.333,298.667z"/>
	</g>
</g>
<g>
	<g>
		<path d="M117.333,128c-17.646,0-32,14.354-32,32s14.354,32,32,32s32-14.354,32-32S134.979,128,117.333,128z M117.333,170.667
			c-5.885,0-10.667-4.781-10.667-10.667c0.001-5.885,4.782-10.667,10.667-10.667S128,154.114,128,160
			C128,165.885,123.219,170.667,117.333,170.667z"/>
	</g>
</g>
<g>
	<g>
		<path d="M117.333,320c-17.646,0-32,14.354-32,32s14.354,32,32,32s32-14.354,32-32S134.979,320,117.333,320z M117.333,362.667
			c-5.885,0-10.667-4.781-10.667-10.667c0-5.885,4.781-10.667,10.667-10.667c5.885,0,10.667,4.781,10.667,10.667
			C128,357.885,123.219,362.667,117.333,362.667z"/>
	</g>
</g>
<g>
	<g>
		<path d="M309.333,320c-17.646,0-32,14.354-32,32s14.354,32,32,32s32-14.354,32-32S326.979,320,309.333,320z M309.333,362.667
			c-5.885,0-10.667-4.781-10.667-10.667c0-5.885,4.781-10.667,10.667-10.667c5.885,0,10.667,4.781,10.667,10.667
			C320,357.885,315.219,362.667,309.333,362.667z"/>
	</g>
</g>
<g>
	<g>
		<path d="M213.333,0c-5.896,0-10.667,4.771-10.667,10.667v32.54C89.999,48.819,0,141.965,0,256
			c0,117.635,95.698,213.333,213.333,213.333c114.035,0,207.181-89.999,212.793-202.667h32.54c5.896,0,10.667-4.771,10.667-10.667
			C469.333,114.844,354.49,0,213.333,0z M213.333,448c-105.865,0-192-86.135-192-192c0-102.264,80.44-185.875,181.333-191.46v23.783
			c0,20.646,14.167,38.198,33.688,41.74c52.094,9.458,93.458,50.823,102.917,102.917c3.542,19.521,21.094,33.687,41.74,33.687
			h23.783C399.208,367.56,315.598,448,213.333,448z M381.01,245.333c-10.156,0-19.073-6.948-20.74-16.167
			c-11.052-60.792-59.313-109.052-120.104-120.104C230.948,107.396,224,98.479,224,88.323v-66.75
			c120.917,5.438,218.323,102.844,223.76,223.76H381.01z"/>
	</g>
</g>
<g>
</g>
<g>
</g>
<g>
</g>
<g>
</g>
<g>
</g>
<g>
</g>
<g>
</g>
<g>
</g>
<g>
</g>
<g>
</g>
<g>
</g>
<g>
</g>
<g>
</g>
<g>
</g>
<g>
</g>
</svg>
