<?xml version="1.0" encoding="iso-8859-1"?>
<!-- Generator: Adobe Illustrator 19.0.0, SVG Export Plug-In . SVG Version: 6.00 Build 0)  -->
<svg version="1.1" id="Capa_1" xmlns="http://www.w3.org/2000/svg" xmlns:xlink="http://www.w3.org/1999/xlink" x="0px" y="0px"
	 viewBox="0 0 512 512" style="enable-background:new 0 0 512 512;" xml:space="preserve">
<g>
	<g>
		<path d="M351.999,85.333h-42.667c-5.896,0-10.667,4.771-10.667,10.667s4.771,10.667,10.667,10.667h42.667
			c5.896,0,10.667-4.771,10.667-10.667S357.895,85.333,351.999,85.333z"/>
	</g>
</g>
<g>
	<g>
		<path d="M351.999,192h-42.667c-5.896,0-10.667,4.771-10.667,10.667s4.771,10.667,10.667,10.667h42.667
			c5.896,0,10.667-4.771,10.667-10.667S357.895,192,351.999,192z"/>
	</g>
</g>
<g>
	<g>
		<path d="M351.999,298.667h-42.667c-5.896,0-10.667,4.771-10.667,10.667s4.771,10.667,10.667,10.667h42.667
			c5.896,0,10.667-4.771,10.667-10.667S357.895,298.667,351.999,298.667z"/>
	</g>
</g>
<g>
	<g>
		<path d="M351.999,405.333h-42.667c-5.896,0-10.667,4.771-10.667,10.667s4.771,10.667,10.667,10.667h42.667
			c5.896,0,10.667-4.771,10.667-10.667S357.895,405.333,351.999,405.333z"/>
	</g>
</g>
<g>
	<g>
		<path d="M415.999,53.333h-21.333c-5.896,0-10.667,4.771-10.667,10.667v64c0,5.896,4.771,10.667,10.667,10.667
			s10.667-4.771,10.667-10.667v-10.667h10.666c17.646,0,32-14.354,32-32S433.645,53.333,415.999,53.333z M415.999,96h-10.667V74.667
			h10.667c5.875,0,10.667,4.781,10.667,10.667C426.666,91.219,421.874,96,415.999,96z"/>
	</g>
</g>
<g>
	<g>
		<path d="M444.875,227.125l-9.682-9.682c7.728-5.848,12.806-15.026,12.806-25.443c0-17.646-14.354-32-32-32h-21.333
			c-5.896,0-10.667,4.771-10.667,10.667v64c0,5.896,4.771,10.667,10.667,10.667s10.667-4.771,10.667-10.667V224h6.25l18.208,18.208
			c2.083,2.083,4.813,3.125,7.542,3.125s5.458-1.042,7.542-3.125C449.042,238.041,449.042,231.291,444.875,227.125z
			 M415.999,202.667h-10.667v-21.333h10.667c5.875,0,10.667,4.781,10.667,10.667S421.874,202.667,415.999,202.667z"/>
	</g>
</g>
<g>
	<g>
		<path d="M437.332,266.667c-5.896,0-10.667,4.771-10.667,10.667v25.406l-21.333-10.667v-14.74c0-5.896-4.771-10.667-10.667-10.667
			s-10.666,4.772-10.666,10.667v64c0,5.896,4.771,10.667,10.667,10.667s10.667-4.771,10.667-10.667v-25.406l21.333,10.667v14.74
			c0,5.896,4.771,10.667,10.667,10.667S448,347.23,448,341.334v-64C447.999,271.438,443.228,266.667,437.332,266.667z"/>
	</g>
</g>
<g>
	<g>
		<path d="M405.332,373.333h-10.667c-5.896,0-10.667,4.771-10.667,10.667v64c0,5.896,4.771,10.667,10.667,10.667h10.667
			c23.521,0,42.667-19.136,42.667-42.667S428.853,373.333,405.332,373.333z M405.332,437.333v-42.667
			c11.771,0,21.333,9.573,21.333,21.333C426.666,427.76,417.103,437.333,405.332,437.333z"/>
	</g>
</g>
<g>
	<g>
		<path d="M234.666,171.212V64c0-35.292-28.708-64-64-64c-35.292,0-64,28.708-64,64v107.212
			C80.917,190.703,63.999,221.293,63.999,256c0,34.707,16.918,65.297,42.667,84.788V448c0,35.292,28.708,64,64,64s64-28.708,64-64
			V340.788c25.749-19.491,42.667-50.081,42.667-84.788C277.333,221.293,260.414,190.703,234.666,171.212z M127.999,64
			c0-23.531,19.146-42.667,42.667-42.667S213.333,40.468,213.333,64v94.375c-9.941-4.365-20.762-6.826-32-7.964V53.333
			c0-5.896-4.771-10.667-10.667-10.667s-10.667,4.771-10.667,10.667v97.078c-11.238,1.138-22.059,3.599-32,7.964V64z M213.333,448
			L213.333,448c-0.001,23.531-19.147,42.667-42.668,42.667c-23.52,0-42.666-19.136-42.666-42.667v-94.375
			c9.941,4.365,20.762,6.826,32,7.964v97.078c0,5.896,4.771,10.667,10.667,10.667s10.667-4.771,10.667-10.667v-97.078
			c11.238-1.138,22.059-3.599,32-7.964V448z M170.666,341.333c-47.063,0-85.333-38.281-85.333-85.333s38.271-85.333,85.333-85.333
			c47.062,0,85.333,38.281,85.333,85.333S217.728,341.333,170.666,341.333z"/>
	</g>
</g>
<g>
	<g>
		<path d="M170.666,192c-35.292,0-64,28.708-64,64c0,5.896,4.771,10.667,10.667,10.667c5.896,0,10.667-4.771,10.667-10.667
			c0-23.531,19.146-42.667,42.667-42.667c5.896,0,10.667-4.771,10.667-10.667C181.332,196.771,176.562,192,170.666,192z"/>
	</g>
</g>
<g>
</g>
<g>
</g>
<g>
</g>
<g>
</g>
<g>
</g>
<g>
</g>
<g>
</g>
<g>
</g>
<g>
</g>
<g>
</g>
<g>
</g>
<g>
</g>
<g>
</g>
<g>
</g>
<g>
</g>
</svg>
