<?xml version="1.0" encoding="iso-8859-1"?>
<!-- Generator: Adobe Illustrator 19.0.0, SVG Export Plug-In . SVG Version: 6.00 Build 0)  -->
<svg version="1.1" id="Capa_1" xmlns="http://www.w3.org/2000/svg" xmlns:xlink="http://www.w3.org/1999/xlink" x="0px" y="0px"
	 viewBox="0 0 512 512" style="enable-background:new 0 0 512 512;" xml:space="preserve">
<g>
	<g>
		<path d="M85.334,384c-23.531,0-42.667,19.135-42.667,42.667s19.135,42.667,42.667,42.667s42.667-19.136,42.667-42.667
			S108.866,384,85.334,384z M85.334,448c-11.76,0-21.333-9.573-21.333-21.333s9.573-21.333,21.333-21.333
			s21.333,9.573,21.333,21.333S97.095,448,85.334,448z"/>
	</g>
</g>
<g>
	<g>
		<path d="M437.334,42.667c-17.646,0-32,14.354-32,32s14.354,32,32,32s32-14.354,32-32S454.98,42.667,437.334,42.667z
			 M437.334,85.333c-5.885,0-10.667-4.781-10.667-10.667c0-5.885,4.781-10.667,10.667-10.667
			c5.886,0.001,10.667,4.782,10.667,10.668C448.001,80.552,443.22,85.333,437.334,85.333z"/>
	</g>
</g>
<g>
	<g>
		<path d="M437.334,0c-41.167,0-74.667,33.5-74.667,74.667c0,5.25,0.57,10.363,1.607,15.31l-36.49,36.49l-25.742-8.581
			c-5.635-1.875-11.635,1.156-13.49,6.74c-1.865,5.594,1.156,11.635,6.74,13.49l15.633,5.211l-25.807,25.807l-25.742-8.581
			c-5.656-1.865-11.625,1.156-13.49,6.74c-1.865,5.594,1.156,11.635,6.74,13.49l15.633,5.211l-25.807,25.807l-25.742-8.581
			c-5.625-1.896-11.625,1.167-13.49,6.74c-1.865,5.594,1.156,11.635,6.74,13.49l15.633,5.211l-25.807,25.807l-25.742-8.581
			c-5.635-1.875-11.625,1.156-13.49,6.74c-1.865,5.594,1.156,11.635,6.74,13.49l15.633,5.211l-12.258,12.258l-13.792-13.792
			c-4.167-4.167-10.917-4.167-15.083,0l-64,64c-2.358,2.358-3.23,5.522-2.919,8.599c-42.08,5.224-74.874,40.804-74.874,84.274
			C0.001,473.719,38.282,512,85.334,512c43.47,0,79.049-32.794,84.276-74.872c0.358,0.036,0.698,0.206,1.057,0.206
			c2.729,0,5.458-1.042,7.542-3.125l64-64c4.167-4.167,4.167-10.917,0-15.083l-13.792-13.792l41.133-41.133l25.742,8.581
			c1.125,0.375,2.26,0.552,3.375,0.552c4.469,0,8.625-2.823,10.115-7.292c1.865-5.594-1.156-11.635-6.74-13.49l-15.633-5.211
			l25.807-25.807l25.742,8.581c1.125,0.375,2.26,0.552,3.375,0.552c4.469,0,8.625-2.823,10.115-7.292
			c1.865-5.594-1.156-11.635-6.74-13.49l-15.633-5.211l25.807-25.807l25.742,8.581c1.125,0.375,2.26,0.552,3.375,0.552
			c4.469,0,8.625-2.823,10.115-7.292c1.865-5.594-1.156-11.635-6.74-13.49l-15.633-5.211l25.807-25.807l25.742,8.581
			c1.125,0.375,2.26,0.552,3.375,0.552c4.469,0,8.625-2.823,10.115-7.292c1.865-5.594-1.156-11.635-6.74-13.49l-15.633-5.211
			l7.615-7.615c4.947,1.036,10.06,1.607,15.31,1.607c41.167,0,74.667-33.5,74.667-74.667C512.001,33.5,478.501,0,437.334,0z
			 M85.334,490.667c-35.292,0-64-28.708-64-64s28.708-64,64-64s64,28.708,64,64S120.626,490.667,85.334,490.667z M170.668,411.583
			l-1.697-1.697c-6.733-33.608-33.249-60.124-66.857-66.857l-1.697-1.697l48.917-48.917l70.25,70.25L170.668,411.583z
			 M213.334,326.25l-27.583-27.583l19.799-19.799l41.375,13.792L213.334,326.25z M263.785,275.799l-41.375-13.792l25.807-25.807
			l41.375,13.792L263.785,275.799z M306.452,233.133l-41.375-13.792l25.807-25.807l41.375,13.792L306.452,233.133z M349.118,190.466
			l-41.375-13.792l25.807-25.807l41.375,13.792L349.118,190.466z M391.785,147.799l-41.375-13.792l22.422-22.422
			c6.611,11.497,16.086,20.973,27.583,27.583L391.785,147.799z M437.334,128c-29.406,0-53.333-23.927-53.333-53.333
			s23.927-53.333,53.333-53.333s53.333,23.927,53.333,53.333S466.741,128,437.334,128z"/>
	</g>
</g>
<g>
</g>
<g>
</g>
<g>
</g>
<g>
</g>
<g>
</g>
<g>
</g>
<g>
</g>
<g>
</g>
<g>
</g>
<g>
</g>
<g>
</g>
<g>
</g>
<g>
</g>
<g>
</g>
<g>
</g>
</svg>
