<?xml version="1.0" encoding="iso-8859-1"?>
<!-- Generator: Adobe Illustrator 19.0.0, SVG Export Plug-In . SVG Version: 6.00 Build 0)  -->
<svg version="1.1" id="Capa_1" xmlns="http://www.w3.org/2000/svg" xmlns:xlink="http://www.w3.org/1999/xlink" x="0px" y="0px"
	 viewBox="0 0 512.001 512.001" style="enable-background:new 0 0 512.001 512.001;" xml:space="preserve">
<g>
	<g>
		<path d="M469.334,405.333h-20.216l8.264-64h7.535c12.573,0,24.396-4.896,33.292-13.792C507.104,318.646,512,306.823,512,294.25
			v-204.5c0-12.573-4.896-24.396-13.792-33.292s-20.719-13.792-33.292-13.792h-76.5c-12.573,0-24.396,4.896-33.292,13.792
			s-13.792,20.719-13.792,33.292v65.833c0,5.615,2.281,11.115,6.25,15.083l15.083,15.083v108.5c0,12.573,4.896,24.396,13.792,33.292
			s20.719,13.792,33.292,13.792h7.475l7.794,64H257.415l8-64h11.918c23.531,0,42.667-19.135,42.667-42.667v-128
			c0-23.531-19.135-42.666-42.667-42.666h-64c-23.531,0-42.667,19.135-42.667,42.667v128c0,23.531,19.135,42.667,42.667,42.667
			h11.918l8,64H87.007l7.781-64h11.879c23.531,0,42.667-19.135,42.667-42.667v-128c0-23.531-19.135-42.667-42.667-42.667h-64
			C19.135,128.001,0,147.136,0,170.667v128c0,23.531,19.135,42.667,42.667,42.667h11.954l8.281,64H42.667
			C19.135,405.333,0,424.469,0,448v10.667c0,5.896,4.771,10.667,10.667,10.667h490.667c5.896,0,10.667-4.771,10.667-10.667V448
			C512.001,424.469,492.866,405.333,469.334,405.333z M409.75,319.996V320c-6.875,0-13.344-2.677-18.208-7.542
			c-4.865-4.865-7.542-11.333-7.542-18.208v-21.467l36.667-17.855c5.302-2.583,7.5-8.969,4.927-14.26
			c-2.583-5.292-8.938-7.49-14.26-4.927L384,249.05v-40.267l36.667-17.855c5.302-2.583,7.5-8.969,4.927-14.26
			c-2.583-5.271-8.938-7.49-14.26-4.927l-27.461,13.372c-0.169-5.384-2.309-10.632-6.122-14.445l-15.083-15.083v-10.324
			l36.771-18.385c5.271-2.635,7.406-9.042,4.771-14.313s-9.042-7.385-14.313-4.771l-27.229,13.615V89.751
			c0-6.875,2.677-13.344,7.542-18.208c4.863-4.865,11.332-7.542,18.207-7.542h76.5c6.875,0,13.344,2.677,18.208,7.542
			c4.865,4.865,7.542,11.333,7.542,18.208v31.299l-27.333-13.31c-5.292-2.594-11.667-0.354-14.26,4.927
			c-2.573,5.292-0.375,11.677,4.927,14.26l36.667,17.855v40.267l-27.333-13.31c-5.292-2.583-11.667-0.365-14.26,4.927
			c-2.573,5.292-0.375,11.677,4.927,14.26l36.667,17.855v40.267l-27.333-13.31c-5.292-2.583-11.667-0.365-14.26,4.927
			c-2.573,5.292-0.375,11.677,4.927,14.26l36.667,17.855v21.467c0,6.875-2.677,13.344-7.542,18.208
			c-4.865,4.865-11.333,7.542-18.208,7.542H409.75z M213.333,320c-11.76,0-21.333-9.573-21.333-21.333v-14.272l36.865-18.905
			c5.25-2.688,7.313-9.115,4.625-14.354c-2.677-5.25-9.146-7.344-14.354-4.625L192,260.426v-40.031l36.865-18.905
			c5.25-2.688,7.313-9.115,4.625-14.354c-2.677-5.26-9.146-7.365-14.354-4.625L192,196.426v-25.759
			c0-11.76,9.573-21.333,21.333-21.333h64c11.76,0,21.333,9.573,21.333,21.333v24.714l-27.427-13.016
			c-5.333-2.521-11.688-0.26-14.208,5.063c-2.531,5.323-0.26,11.688,5.063,14.208l36.573,17.357v40.388l-27.427-13.016
			c-5.333-2.521-11.688-0.26-14.208,5.063c-2.531,5.323-0.26,11.688,5.063,14.208l36.573,17.357v15.674
			c0,11.76-9.573,21.333-21.333,21.333H213.333z M42.667,320L42.667,320c-11.76,0.001-21.333-9.572-21.333-21.332v-14.272
			l36.865-18.905c5.25-2.688,7.313-9.115,4.625-14.354c-2.688-5.25-9.125-7.344-14.354-4.625l-27.135,13.915v-40.031L58.2,201.49
			c5.25-2.688,7.313-9.115,4.625-14.354c-2.688-5.26-9.125-7.365-14.354-4.625l-27.135,13.915v-25.759
			c0-11.76,9.573-21.333,21.333-21.333h64c11.76,0,21.333,9.573,21.333,21.333v24.714l-27.427-13.016
			c-5.323-2.521-11.698-0.26-14.208,5.063c-2.531,5.323-0.26,11.688,5.063,14.208L128,218.993v40.388l-27.427-13.016
			c-5.323-2.521-11.698-0.26-14.208,5.063c-2.531,5.323-0.26,11.688,5.063,14.208L128,282.992v15.674
			c0,11.76-9.573,21.333-21.333,21.333H42.667z M21.333,448c0-11.76,9.573-21.333,21.333-21.333h426.667
			c11.76,0,21.333,9.573,21.333,21.333H21.333z"/>
	</g>
</g>
<g>
</g>
<g>
</g>
<g>
</g>
<g>
</g>
<g>
</g>
<g>
</g>
<g>
</g>
<g>
</g>
<g>
</g>
<g>
</g>
<g>
</g>
<g>
</g>
<g>
</g>
<g>
</g>
<g>
</g>
</svg>
