<?xml version="1.0" encoding="iso-8859-1"?>
<!-- Generator: Adobe Illustrator 19.0.0, SVG Export Plug-In . SVG Version: 6.00 Build 0)  -->
<svg version="1.1" id="Capa_1" xmlns="http://www.w3.org/2000/svg" xmlns:xlink="http://www.w3.org/1999/xlink" x="0px" y="0px"
	 viewBox="0 0 512 512" style="enable-background:new 0 0 512 512;" xml:space="preserve">
<g>
	<g>
		<path d="M359.541,344.459l-36.408-36.408c11.233-14.451,18.199-32.368,18.199-52.051s-6.966-37.6-18.199-52.051l36.408-36.408
			c4.166-4.166,4.166-10.916,0-15.083c-4.167-4.167-10.917-4.167-15.083,0l-36.409,36.409c-2.987-2.323-6.098-4.417-9.383-6.332
			v-43.868c0-5.896-4.771-10.667-10.667-10.667h-64c-5.896,0-10.667,4.771-10.667,10.667v43.868
			c-3.285,1.915-6.396,4.009-9.383,6.332l-36.409-36.409c-4.167-4.167-10.917-4.167-15.083,0c-4.167,4.167-4.167,10.917,0,15.083
			l36.408,36.408C177.632,218.4,170.666,236.318,170.666,256s6.966,37.6,18.199,52.051l-36.408,36.408
			c-4.167,4.167-4.167,10.917,0,15.083c2.083,2.083,4.813,3.125,7.542,3.125s5.458-1.042,7.542-3.125l36.409-36.409
			c14.452,11.234,32.37,18.201,52.049,18.201s37.598-6.966,52.049-18.201l36.409,36.409c2.083,2.083,4.813,3.125,7.542,3.125
			s5.458-1.042,7.542-3.125C363.708,355.375,363.708,348.625,359.541,344.459z M277.333,149.333v24.363
			c-6.859-1.783-13.924-3.03-21.333-3.03s-14.474,1.247-21.333,3.03v-24.363H277.333z M255.999,192
			c13.799,0,26.508,4.49,36.971,11.945l-36.971,36.972l-36.971-36.971C229.491,196.49,242.2,192,255.999,192z M203.944,292.971
			c-7.455-10.463-11.945-23.172-11.945-36.971s4.49-26.508,11.945-36.971L240.916,256L203.944,292.971z M255.999,320
			c-13.799,0-26.508-4.49-36.971-11.945l36.971-36.972l36.971,36.971C282.507,315.51,269.798,320,255.999,320z M308.054,292.971
			L271.082,256l36.971-36.971c7.456,10.463,11.946,23.172,11.946,36.971S315.509,282.508,308.054,292.971z"/>
	</g>
</g>
<g>
	<g>
		<path d="M255.999,64c-105.875,0-192,86.125-192,192s86.125,192,192,192s192-86.125,192-192S361.874,64,255.999,64z
			 M255.999,426.667c-94.104,0-170.667-76.563-170.667-170.667S161.895,85.333,255.999,85.333S426.666,161.896,426.666,256
			S350.103,426.667,255.999,426.667z"/>
	</g>
</g>
<g>
	<g>
		<path d="M89.984,82.985c4.169-4.344,4.169-11.382,0-15.727c-4.169-4.344-10.922-4.344-15.09,0
			c-99.859,104.07-99.859,273.414,0,377.483c2.084,2.172,4.815,3.258,7.545,3.258s5.461-1.086,7.545-3.258
			c4.169-4.344,4.169-11.382,0-15.727C-1.559,333.612-1.559,178.388,89.984,82.985z"/>
	</g>
</g>
<g>
	<g>
		<path d="M437.105,67.258c-4.169-4.344-10.922-4.344-15.09,0c-4.169,4.344-4.169,11.382,0,15.727
			c91.543,95.403,91.543,250.627,0,346.03c-4.169,4.344-4.169,11.382,0,15.727c2.084,2.172,4.815,3.258,7.545,3.258
			c2.73,0,5.461-1.086,7.545-3.258C536.964,340.672,536.964,171.328,437.105,67.258z"/>
	</g>
</g>
<g>
</g>
<g>
</g>
<g>
</g>
<g>
</g>
<g>
</g>
<g>
</g>
<g>
</g>
<g>
</g>
<g>
</g>
<g>
</g>
<g>
</g>
<g>
</g>
<g>
</g>
<g>
</g>
<g>
</g>
</svg>
