<?xml version="1.0" encoding="iso-8859-1"?>
<!-- Generator: Adobe Illustrator 19.0.0, SVG Export Plug-In . SVG Version: 6.00 Build 0)  -->
<svg version="1.1" id="Capa_1" xmlns="http://www.w3.org/2000/svg" xmlns:xlink="http://www.w3.org/1999/xlink" x="0px" y="0px"
	 viewBox="0 0 469.333 469.333" style="enable-background:new 0 0 469.333 469.333;" xml:space="preserve">
<g>
	<g>
		<path d="M448,149.334H277.333v-96c0-3.979-2.229-7.646-5.771-9.479c-1.533-0.78-3.213-1.189-4.889-1.188
			c-2.172,0.002-4.339,0.677-6.173,1.958L4.5,225.959c-2.823,2-4.5,5.25-4.5,8.708c0,3.458,1.677,6.708,4.5,8.708l256,181.333
			c1.833,1.292,4,1.958,6.167,1.958c1.677,0,3.354-0.396,4.896-1.188c3.542-1.833,5.771-5.5,5.771-9.479v-96H448
			c11.76,0,21.333-9.563,21.333-21.333v-128C469.333,158.897,459.76,149.334,448,149.334z M448,298.668H266.667
			c-5.896,0-10.667,4.771-10.667,10.667v86.042L29.125,234.668L256,73.959v86.042c0,5.896,4.771,10.667,10.667,10.667H448V298.668z"
			/>
	</g>
</g>
<g>
</g>
<g>
</g>
<g>
</g>
<g>
</g>
<g>
</g>
<g>
</g>
<g>
</g>
<g>
</g>
<g>
</g>
<g>
</g>
<g>
</g>
<g>
</g>
<g>
</g>
<g>
</g>
<g>
</g>
</svg>
