<?xml version="1.0" encoding="iso-8859-1"?>
<!-- Generator: Adobe Illustrator 19.0.0, SVG Export Plug-In . SVG Version: 6.00 Build 0)  -->
<svg version="1.1" id="Capa_1" xmlns="http://www.w3.org/2000/svg" xmlns:xlink="http://www.w3.org/1999/xlink" x="0px" y="0px"
	 viewBox="0 0 512 512" style="enable-background:new 0 0 512 512;" xml:space="preserve">
<g>
	<g>
		<path d="M256,42.666c-23.531,0-42.667,19.146-42.667,42.667C213.333,91.229,218.104,96,224,96s10.667-4.771,10.667-10.667
			C234.667,73.563,244.24,64,256,64c5.896,0,10.667-4.771,10.667-10.667S261.896,42.666,256,42.666z"/>
	</g>
</g>
<g>
	<g>
		<path d="M426.667,213.333c-5.896,0-10.667,4.771-10.667,10.667s4.771,10.667,10.667,10.667c11.76,0,21.333,9.563,21.333,21.333
			c0,5.896,4.771,10.667,10.667,10.667s10.667-4.771,10.667-10.667C469.333,232.479,450.198,213.333,426.667,213.333z"/>
	</g>
</g>
<g>
	<g>
		<path d="M288,416c-5.896,0-10.667,4.771-10.667,10.667C277.333,438.438,267.76,448,256,448c-5.896,0-10.667,4.771-10.667,10.667
			s4.771,10.667,10.667,10.667c23.531,0,42.667-19.146,42.667-42.667C298.667,420.771,293.896,416,288,416z"/>
	</g>
</g>
<g>
	<g>
		<path d="M85.333,277.333C73.573,277.333,64,267.771,64,256c0-5.896-4.771-10.667-10.667-10.667S42.666,250.104,42.666,256
			c0,23.521,19.135,42.667,42.667,42.667C91.229,298.667,96,293.896,96,288S91.229,277.333,85.333,277.333z"/>
	</g>
</g>
<g>
	<g>
		<path d="M426.667,170.667c-22.563,0-44.656,4.25-65.667,12.646l-41.27,16.514c-2.368-2.684-4.867-5.184-7.551-7.552L328.688,151
			c8.385-20.958,12.646-43.063,12.646-65.667C341.333,38.271,303.052,0,256,0s-85.333,38.271-85.333,85.333
			c0,22.604,4.26,44.708,12.646,65.667l16.508,41.275c-2.684,2.369-5.182,4.867-7.549,7.551L151,183.292
			c-21.01-8.375-43.104-12.625-65.667-12.625C38.281,170.667,0,208.938,0,256s38.281,85.333,85.333,85.333
			c22.563,0,44.656-4.25,65.667-12.646l41.27-16.514c2.368,2.684,4.867,5.184,7.551,7.552L183.313,361
			c-8.385,20.958-12.646,43.063-12.646,65.667C170.667,473.729,208.948,512,256,512s85.333-38.271,85.333-85.333
			c0-22.604-4.26-44.708-12.646-65.667l-16.508-41.275c2.684-2.369,5.182-4.867,7.549-7.551L361,328.708
			c21.01,8.375,43.104,12.625,65.667,12.625c47.052,0,85.333-38.27,85.333-85.333S473.719,170.667,426.667,170.667z M192,85.333
			c0-35.292,28.708-64,64-64s64,28.708,64,64c0,19.875-3.74,39.313-11.125,57.75l-14.784,36.965
			c-11.518-5.805-24.337-9.381-38.091-9.381c-13.754,0-26.573,3.577-38.091,9.381l-14.784-36.965
			C195.74,124.646,192,105.208,192,85.333z M180.051,294.098l-36.967,14.777C124.615,316.271,105.177,320,85.333,320
			c-35.292,0-64-28.708-64-64s28.708-64,64-64c19.844,0,39.281,3.729,57.75,11.104l36.97,14.794
			c-5.807,11.52-9.387,24.341-9.387,38.102C170.667,269.758,174.245,282.578,180.051,294.098z M320,426.667
			c0,35.292-28.708,64-64,64s-64-28.708-64-64c0-19.875,3.74-39.313,11.125-57.75l14.784-36.965
			c11.518,5.805,24.337,9.381,38.091,9.381c13.754,0,26.573-3.577,38.091-9.381l14.784,36.965
			C316.26,387.354,320,406.792,320,426.667z M256,320c-35.292,0-64-28.708-64-64s28.708-64,64-64s64,28.708,64,64
			S291.292,320,256,320z M426.667,320c-19.844,0-39.281-3.729-57.75-11.104l-36.97-14.794c5.807-11.52,9.387-24.341,9.387-38.102
			c0-13.758-3.578-26.578-9.384-38.098l36.967-14.777c18.469-7.396,37.906-11.125,57.75-11.125c35.292,0,64,28.708,64,64
			S461.958,320,426.667,320z"/>
	</g>
</g>
<g>
</g>
<g>
</g>
<g>
</g>
<g>
</g>
<g>
</g>
<g>
</g>
<g>
</g>
<g>
</g>
<g>
</g>
<g>
</g>
<g>
</g>
<g>
</g>
<g>
</g>
<g>
</g>
<g>
</g>
</svg>
