<?xml version="1.0" encoding="iso-8859-1"?>
<!-- Generator: Adobe Illustrator 19.0.0, SVG Export Plug-In . SVG Version: 6.00 Build 0)  -->
<svg version="1.1" id="Capa_1" xmlns="http://www.w3.org/2000/svg" xmlns:xlink="http://www.w3.org/1999/xlink" x="0px" y="0px"
	 viewBox="0 0 512.001 512.001" style="enable-background:new 0 0 512.001 512.001;" xml:space="preserve">
<g>
	<g>
		<path d="M446.48,261.188l-55.826-93.043c2.393-1.956,4.013-4.81,4.013-8.145V74.667C394.668,68.771,389.897,64,384.001,64h-1.505
			c-3.048-13.035-10.828-24.598-22.245-32.208l-34.26-22.834C317.199,3.104,306.97,0,296.418,0h-80.833
			c-10.553,0-20.782,3.104-29.584,8.958l-34.25,22.833C140.334,39.402,132.556,50.965,129.508,64h-1.507
			c-5.896,0-10.667,4.771-10.667,10.667V160c0,3.335,1.62,6.189,4.013,8.145l-55.826,93.043c-3.031,5.042-1.396,11.604,3.656,14.625
			c5.063,3.063,11.604,1.396,14.635-3.667l44.189-73.646v132.167v10.667c-5.896,0-10.667,4.771-10.667,10.667v85.333
			c0,5.896,4.771,10.667,10.667,10.667h1.078c5.232,36.089,36.074,64,73.589,64h106.667c37.514,0,68.357-27.911,73.589-64h1.077
			c5.896,0,10.667-4.771,10.667-10.667V352c0-5.896-4.771-10.667-10.667-10.667v-10.667V198.5l44.188,73.646
			c3.021,5.063,9.563,6.729,14.635,3.667C447.876,272.792,449.511,266.229,446.48,261.188z M149.334,185.75l21.333,21.333v95.667
			l-21.333,10.66V185.75z M362.668,313.41l-21.333-10.66v-95.667l21.333-21.333V313.41z M362.668,155.583L362.668,155.583
			l-39.542,39.542c-2,2-3.125,4.708-3.125,7.542v106.667c0,4.042,2.281,7.729,5.896,9.542l36.771,18.375v100.083
			c0,29.417-23.927,53.333-53.333,53.333H202.668c-29.406,0-53.333-23.917-53.333-53.333V337.25l36.771-18.375
			c3.615-1.813,5.896-5.5,5.896-9.542V202.667c0-2.833-1.125-5.542-3.125-7.542l-39.542-39.542V76.167
			c0-10.729,5.323-20.667,14.25-26.625l34.24-22.833c5.292-3.521,11.427-5.375,17.76-5.375h80.833c6.333,0,12.469,1.854,17.75,5.375
			l34.25,22.833c8.927,5.958,14.25,15.896,14.25,26.625V155.583z"/>
	</g>
</g>
<g>
	<g>
		<path d="M331.551,116.792c-3.915-6.334-10.696-10.125-18.144-10.125H198.595c-7.448,0-14.229,3.792-18.146,10.125
			s-4.271,14.083-0.938,20.75l21.333,42.667c3.635,7.271,10.948,11.792,19.083,11.792h72.146c8.135,0,15.448-4.521,19.083-11.792
			l21.333-42.667C335.822,130.875,335.468,123.125,331.551,116.792z M292.074,170.667h-72.146L198.595,128h114.813L292.074,170.667z
			"/>
	</g>
</g>
<g>
	<g>
		<path d="M340.209,389.896l-21.333-42.667c-1.271-2.521-3.49-4.458-6.167-5.354c-2.688-0.875-5.615-0.688-8.146,0.583
			c-0.187,0.105-19.416,9.542-48.562,9.542c-28.813,0-48.406-9.458-48.594-9.563c-5.26-2.563-11.646-0.438-14.281,4.792
			l-21.333,42.667c-2.052,4.104-1.25,9.063,2,12.313c1,1,25.115,24.458,82.208,24.458s81.208-23.458,82.208-24.458
			C341.459,398.959,342.261,394.001,340.209,389.896z M256.001,405.333c-32.656,0-52.104-8.583-61.094-13.958l12.927-25.854
			c9.99,3.438,26.927,7.813,48.167,7.813s38.177-4.375,48.167-7.813l12.927,25.854C308.064,396.771,288.616,405.333,256.001,405.333
			z"/>
	</g>
</g>
<g>
</g>
<g>
</g>
<g>
</g>
<g>
</g>
<g>
</g>
<g>
</g>
<g>
</g>
<g>
</g>
<g>
</g>
<g>
</g>
<g>
</g>
<g>
</g>
<g>
</g>
<g>
</g>
<g>
</g>
</svg>
