<?xml version="1.0" encoding="iso-8859-1"?>
<!-- Generator: Adobe Illustrator 19.0.0, SVG Export Plug-In . SVG Version: 6.00 Build 0)  -->
<svg version="1.1" id="Capa_1" xmlns="http://www.w3.org/2000/svg" xmlns:xlink="http://www.w3.org/1999/xlink" x="0px" y="0px"
	 viewBox="0 0 512 512" style="enable-background:new 0 0 512 512;" xml:space="preserve">
<g>
	<g>
		<path d="M458.667,298.667c-5.896,0-10.667,4.771-10.667,10.667V320l-21.331-4.603c-0.001-0.451-0.003-1.112-0.003-1.324
			c0-18.438-2.958-36.667-8.792-54.177l-24.042-72.125c-8.104-24.292-27.542-42.479-52.021-48.646
			c-8.835-2.22-20.07-4.565-32.479-6.57v-25.888H320c11.771,0,21.333-9.573,21.333-21.333V42.667
			C341.333,19.135,322.188,0,298.667,0h-85.333c-23.521,0-42.667,19.135-42.667,42.667v42.667c0,11.76,9.563,21.333,21.333,21.333
			h10.667v25.888c-12.409,2.005-23.645,4.35-32.479,6.57c-1.324,0.333-2.453,1.066-3.746,1.469
			C140.579,108.499,123.203,80.424,113.85,64h3.483C123.229,64,128,59.229,128,53.333s-4.771-10.667-10.667-10.667H74.667
			C68.771,42.667,64,47.438,64,53.333C64,59.229,68.771,64,74.667,64h14.852c6.905,13.016,25.745,46.315,57.424,86.204
			c-13.12,9.007-23.508,21.775-28.776,37.566l-24.042,72.125c-3.078,9.238-5.241,18.691-6.706,28.255
			c-8.078-2.37-15.885-4.921-23.419-7.637v-13.848C64,260.771,59.229,256,53.333,256s-10.667,4.771-10.667,10.667v42.667
			c0,5.896,4.771,10.667,10.667,10.667C59.229,320,64,315.229,64,309.333v-6.249c7.04,2.387,14.253,4.65,21.673,6.76
			c-0.035,1.418-0.34,2.807-0.34,4.228c0,16.68,2.581,33.286,7.582,49.557C76.402,367.353,64,382.081,64,399.698
			c0,17.021,3.25,58.51,10.792,77.292l4.688,11.729C85.125,502.865,98.625,512,113.854,512h285.854
			c14.104,0,26.792-7.833,33.125-20.469C443.542,470.073,448,425.188,448,405.927v-6.229c0-17.617-12.401-32.344-28.914-36.068
			c2.22-7.224,3.84-14.523,5.081-21.859c0.84-0.022,23.065-0.044,23.833-0.066V352c0,5.896,4.771,10.667,10.667,10.667
			s10.667-4.771,10.667-10.667v-42.667C469.333,303.438,464.563,298.667,458.667,298.667z M192,85.334L192,85.334V42.667
			c0-11.76,9.563-21.333,21.333-21.333h85.333c11.771,0,21.333,9.573,21.333,21.333v42.667H192z M288,106.667v23.147
			c-10.237-1.036-20.839-1.814-32-1.814c-11.161,0-21.763,0.777-32,1.814v-23.147H288z M256,149.333
			c32.167,0,61.604,5.698,80.604,10.479c17.375,4.375,31.208,17.344,36.979,34.708l24.042,72.125c4.77,14.268,7.107,29.1,7.44,44.09
			c-7.454-2.365-14.781-4.878-21.945-7.579c-0.865-10.096-2.508-20.1-5.724-29.771l-24.042-72.104
			c-3.417-10.271-11.813-18.229-21.958-20.781c-17.854-4.49-45.438-9.833-75.396-9.833c-21.538,0-41.723,2.79-58.091,6.014
			c-5.794-6.133-11.26-12.215-16.499-18.234C200.341,154.008,226.84,149.333,256,149.333z M370.438,371.583
			c4.641-9.292,8.066-19.174,10.345-29.315c0.876,0.001,1.858,0.013,2.717,0.013c6.939,0,13.254-0.046,19.056-0.112
			c-1.609,8.15-4.047,16.224-7.047,24.217c-7.454,3.448-13.819,9.055-17.676,16.749l-9.813,19.615
			c-3.098-1.046-7.142-2.303-11.579-3.621L370.438,371.583z M351.396,361.99l-16.038,31.573C314.025,388.578,286.322,384,256,384
			c-30.322,0-58.025,4.578-79.357,9.563l-15.977-31.458c-5.875-11.775-9.453-24.646-10.728-37.719
			c73.362,13.039,152.145,16.906,208.848,17.699C356.935,348.945,354.551,355.658,351.396,361.99z M360.569,294.007
			c-58.46-25.829-106.402-62.121-144.379-98.885C228.335,193.301,241.885,192,256,192c27.792,0,53.5,5,70.188,9.188
			c3.083,0.781,5.812,3.448,6.917,6.823l24.042,72.125C358.663,284.68,359.674,289.335,360.569,294.007z M185.792,201.188
			c1.533-0.384,3.499-0.781,5.177-1.174c43.188,43.922,100.13,88.358,171.475,117.854c-0.034,0.934-0.107,1.863-0.164,2.796
			c-57.068-0.776-138.199-4.624-212.029-17.974c0.819-7.639,2.151-15.212,4.603-22.553l24.042-72.156
			C180,204.635,182.708,201.958,185.792,201.188z M114.375,266.646l24.042-72.125c3.958-11.91,11.892-21.497,21.977-27.917
			c4.548,5.353,9.329,10.772,14.309,16.241c-7.393,3.681-13.336,10.241-16.056,18.395l-24.042,72.146
			c-2.732,8.215-4.319,16.673-5.357,25.212c-7.1-1.5-14.079-3.109-20.948-4.813C109.556,284.599,111.415,275.503,114.375,266.646z
			 M128.362,320.241c0.867,17.783,5.253,35.436,13.263,51.457l13.934,27.43c-4.438,1.318-8.482,2.576-11.579,3.622l-9.813-19.625
			c-3.857-7.689-10.223-13.293-17.677-16.74c-6.268-16.702-9.6-33.816-9.758-51.001
			C113.839,317.108,121.052,318.725,128.362,320.241z M426.667,399.698v6.229c0,20.958-4.917,60.042-12.917,76.052
			c-2.688,5.354-8.063,8.688-14.042,8.688H113.854c-6.458,0-12.188-3.875-14.583-9.865l-4.688-11.74
			c-5.646-14.094-9.25-50.5-9.25-69.365c0-8.656,7.042-15.698,15.708-15.698c5.979,0,11.354,3.333,14.042,8.677l14.042,28.094
			c2.479,4.958,8.417,7.208,13.5,5.135c0.521-0.208,52.146-20.573,113.375-20.573c61.042,0,112.854,20.365,113.375,20.573
			c5.063,2.01,11.021-0.167,13.5-5.135l14.042-28.083c2.688-5.354,8.063-8.688,14.042-8.688
			C419.625,384,426.667,391.042,426.667,399.698z"/>
	</g>
</g>
<g>
	<g>
		<path d="M372.771,444.667c-1.854-5.604-7.979-8.636-13.438-6.792C359.021,437.969,327.438,448,256,448
			s-103.021-10.031-103.333-10.125c-5.479-1.844-11.604,1.188-13.438,6.792c-1.854,5.583,1.146,11.594,6.729,13.448
			c1.375,0.458,34.521,11.219,110.042,11.219s108.667-10.76,110.042-11.219C371.625,456.261,374.625,450.25,372.771,444.667z"/>
	</g>
</g>
<g>
</g>
<g>
</g>
<g>
</g>
<g>
</g>
<g>
</g>
<g>
</g>
<g>
</g>
<g>
</g>
<g>
</g>
<g>
</g>
<g>
</g>
<g>
</g>
<g>
</g>
<g>
</g>
<g>
</g>
</svg>
