<?xml version="1.0" encoding="iso-8859-1"?>
<!-- Generator: Adobe Illustrator 19.0.0, SVG Export Plug-In . SVG Version: 6.00 Build 0)  -->
<svg version="1.1" id="Capa_1" xmlns="http://www.w3.org/2000/svg" xmlns:xlink="http://www.w3.org/1999/xlink" x="0px" y="0px"
	 viewBox="0 0 512 512" style="enable-background:new 0 0 512 512;" xml:space="preserve">
<g>
	<g>
		<path d="M275.83,428.474l-9.163-183.255V62.035c12.39-4.418,21.334-16.147,21.334-30.035c0-17.646-14.354-32-32-32
			s-32,14.354-32,32c0,13.888,8.944,25.617,21.333,30.035v183.184l-9.163,183.255c-35.096,3.702-65.504,17.238-65.504,40.859
			c0,28.01,42.938,42.667,85.333,42.667s85.333-14.656,85.333-42.667C341.334,445.712,310.927,432.176,275.83,428.474z
			 M256.001,21.333c5.875,0,10.667,4.781,10.667,10.667s-4.792,10.667-10.667,10.667S245.334,37.886,245.334,32
			S250.126,21.333,256.001,21.333z M256.001,490.667c-39.708,0-64-13.813-64-21.333c0-6.078,16.068-16.15,43.12-19.835l-0.432,8.637
			c-0.146,2.917,0.896,5.771,2.917,7.885c2.021,2.115,4.813,3.313,7.729,3.313h21.333c2.917,0,5.708-1.198,7.729-3.313
			s3.063-4.969,2.917-7.885l-0.432-8.637c27.051,3.685,43.12,13.757,43.12,19.835C320.001,476.854,295.709,490.667,256.001,490.667z
			"/>
	</g>
</g>
<g>
</g>
<g>
</g>
<g>
</g>
<g>
</g>
<g>
</g>
<g>
</g>
<g>
</g>
<g>
</g>
<g>
</g>
<g>
</g>
<g>
</g>
<g>
</g>
<g>
</g>
<g>
</g>
<g>
</g>
</svg>
